<?xml version="1.0" encoding="UTF-8"?>
<svg version="1.1" xmlns="http://www.w3.org/2000/svg" width="237" height="178">
<path d="M0 0 C78.21 0 156.42 0 237 0 C237 58.74 237 117.48 237 178 C158.79 178 80.58 178 0 178 C0 119.26 0 60.52 0 0 Z " fill="#E5B4BE" transform="translate(0,0)"/>
<path d="M0 0 C1.18731496 -0.00128164 1.18731496 -0.00128164 2.39861608 -0.00258917 C5.05338501 -0.0042375 7.70809088 0.00126685 10.362854 0.00672913 C12.26489765 0.00701116 14.1669414 0.00685294 16.06898499 0.00628662 C21.23594822 0.00599929 26.40288831 0.01188566 31.56984615 0.01886058 C36.96839722 0.0251048 42.3669488 0.02569876 47.76550293 0.02688599 C57.9899646 0.02999614 68.21441561 0.0382053 78.43887258 0.04823548 C90.07840387 0.05940639 101.71793567 0.06490953 113.35747099 0.06993091 C137.3023051 0.08038815 161.24712974 0.09798151 185.19195557 0.12025452 C185.19195557 0.78025452 185.19195557 1.44025452 185.19195557 2.12025452 C184.53195557 2.12025452 183.87195557 2.12025452 183.19195557 2.12025452 C184.08147835 4.48132641 184.08147835 4.48132641 187.25445557 5.18275452 C193.39505351 7.72238453 197.53996146 12.94443827 200.55133057 18.73353577 C205.4170193 30.91538691 204.37871565 44.69738832 204.43023682 57.60462952 C204.43431234 58.47937172 204.43838787 59.35411392 204.4425869 60.25536346 C204.46332639 64.89310455 204.47767531 69.53081719 204.48712158 74.16859436 C204.49593756 77.94838291 204.51672455 81.7277986 204.54864502 85.50746155 C205.04850336 146.03422767 205.04850336 146.03422767 192.19195557 166.12025452 C191.53195557 165.79025452 190.87195557 165.46025452 190.19195557 165.12025452 C190.97892882 161.71003709 192.063155 158.43140286 193.19195557 155.12025452 C192.20195557 155.12025452 191.21195557 155.12025452 190.19195557 155.12025452 C189.86195557 155.12025452 189.53195557 155.12025452 189.19195557 155.12025452 C189.0118491 145.78714894 188.84681002 136.45380933 188.69195557 127.12025452 C188.68007832 126.40483742 188.66820107 125.68942032 188.6559639 124.95232391 C188.21816361 98.29952097 188.10392288 71.65138267 188.12945557 44.99525452 C188.13031158 44.09512634 188.1311676 43.19499817 188.13204956 42.26759338 C188.14334648 31.21845688 188.16410788 20.16936103 188.19195557 9.12025452 C182.91195557 8.46025452 177.63195557 7.80025452 172.19195557 7.12025452 C172.2024292 9.51670227 172.21290283 11.91315002 172.22369385 14.38221741 C172.55454735 95.14746808 172.55454735 95.14746808 171.38051605 131.80321884 C171.31713616 133.80205904 171.25750068 135.8010168 171.19787598 137.79997253 C171.08505218 141.47364876 170.95835776 145.14649963 170.82476807 148.81947327 C170.79133301 149.87574921 170.75789795 150.93202515 170.72344971 152.02030945 C170.5037404 157.38404614 169.93989509 162.03594544 168.19195557 167.12025452 C166.99570557 166.95525452 165.79945557 166.79025452 164.56695557 166.62025452 C161.08765422 166.14035088 157.70233114 166.10343835 154.19195557 166.12025452 C154.15991693 156.28693696 154.1405063 146.45361548 154.12945557 136.62025452 C154.12817154 135.48613758 154.12817154 135.48613758 154.12686157 134.32910919 C154.09815598 105.46516125 154.34403561 76.60693908 154.69195557 47.74525452 C154.70989229 46.25670456 154.70989229 46.25670456 154.72819138 44.73808289 C154.87589916 32.53205018 155.03048628 20.3261127 155.19195557 8.12025452 C154.1387915 8.28396545 153.08562744 8.44767639 152.00054932 8.61634827 C149.00545486 9.0126223 146.26101268 9.22900924 143.25445557 9.18275452 C142.48230713 9.17373108 141.71015869 9.16470764 140.91461182 9.15541077 C140.34613525 9.1438092 139.77765869 9.13220764 139.19195557 9.12025452 C139.19417618 9.99751694 139.19639679 10.87477936 139.19868469 11.77862549 C139.3972531 94.06650165 139.3972531 94.06650165 138.32427979 127.81166077 C138.19474483 131.90373065 138.10011418 135.99591586 138.00836182 140.08900452 C137.94588855 142.37029129 137.88221085 144.65154562 137.81695557 146.93275452 C137.79834473 147.88835266 137.77973389 148.84395081 137.76055908 149.82850647 C137.56065309 155.52715285 136.46758541 159.88143823 134.19195557 165.12025452 C132.23369684 165.14720303 130.2753333 165.1666267 128.31695557 165.18275452 C126.68113525 165.20015686 126.68113525 165.20015686 125.01226807 165.21791077 C122.19195557 165.12025452 122.19195557 165.12025452 120.19195557 164.12025452 C120.01875441 128.51276191 120.32557066 92.91310611 120.69195557 57.30775452 C120.70989229 55.56419867 120.70989229 55.56419867 120.72819138 53.78541946 C120.87833848 39.23031639 121.03306798 24.6752647 121.19195557 10.12025452 C115.91195557 10.12025452 110.63195557 10.12025452 105.19195557 10.12025452 C105.20283203 12.65003967 105.2137085 15.17982483 105.22491455 17.78627014 C105.31138982 43.98753926 104.97584847 70.16607981 104.39239502 96.36048889 C104.27388622 101.68471853 104.16406873 107.00909113 104.05638981 112.3335495 C103.97138753 116.49073205 103.8819814 120.64781067 103.79119682 124.80487061 C103.74875581 126.77286864 103.70769723 128.74089701 103.66807747 130.70895386 C103.61292078 133.41713963 103.55182047 136.12512605 103.48907471 138.83314514 C103.47396851 139.6337738 103.4588623 140.43440247 103.44329834 141.2592926 C103.36395578 144.45388947 103.20907464 147.06889728 102.19195557 150.12025452 C101.97015771 152.01238189 101.78581541 153.90909924 101.62945557 155.80775452 C101.5456665 156.8016217 101.46187744 157.79548889 101.37554932 158.81947327 C101.31496338 159.57873108 101.25437744 160.33798889 101.19195557 161.12025452 C100.55258057 161.24400452 99.91320557 161.36775452 99.25445557 161.49525452 C98.57383057 161.70150452 97.89320557 161.90775452 97.19195557 162.12025452 C96.86195557 162.78025452 96.53195557 163.44025452 96.19195557 164.12025452 C93.22195557 164.12025452 90.25195557 164.12025452 87.19195557 164.12025452 C85.81818938 161.37272214 86.06916693 159.18565362 86.07170105 156.10923767 C86.06963905 154.18668655 86.06963905 154.18668655 86.0675354 152.22529602 C86.07107479 150.79689003 86.0747096 149.36848427 86.07843018 147.94007874 C86.07871212 146.44226585 86.07855417 144.94445282 86.07798767 143.44664001 C86.07769998 139.37249618 86.08359218 135.29838161 86.09056163 131.22424459 C86.09679983 126.96945944 86.09739934 122.71467367 86.09858704 118.45988464 C86.10169897 110.3992706 86.10991051 102.33867007 86.11993653 94.27806199 C86.13110193 85.1028595 86.13660919 75.92765638 86.14163196 66.7524488 C86.15209323 47.87504282 86.16989073 28.99765025 86.19195557 10.12025452 C81.24195557 10.12025452 76.29195557 10.12025452 71.19195557 10.12025452 C71.20355713 11.66712952 71.21515869 13.21400452 71.22711182 14.80775452 C71.23650541 16.91191996 71.2456039 19.01608673 71.25445557 21.12025452 C71.26283447 22.13087952 71.27121338 23.14150452 71.27984619 24.18275452 C71.2976396 29.87664543 71.12624719 35.50938019 70.71710205 41.18910217 C70.10213414 50.40520923 69.9150891 59.62197904 69.74639893 68.85537338 C69.69048962 71.91131891 69.6301994 74.96715292 69.56890869 78.022995 C69.43948197 84.51367738 69.31536716 91.00445536 69.19195557 97.49525452 C69.04865852 105.02296726 68.90305515 112.55062333 68.7522583 120.07818985 C68.69371132 123.05443814 68.63900949 126.03073968 68.58453369 129.00706482 C68.36433709 140.39749564 67.91466057 151.75047783 67.19195557 163.12025452 C66.12775391 163.12984192 65.06355225 163.13942932 63.96710205 163.14930725 C62.74192871 163.16034485 61.51675537 163.17138245 60.25445557 163.18275452 C57.90029225 163.2039632 55.54509111 163.19297193 53.19195557 163.12025452 C51.15693781 161.08523676 51.77654982 157.01422271 51.63726807 154.21376038 C51.59522247 153.40417594 51.55317688 152.5945915 51.50985718 151.76047421 C51.09057712 143.04747499 51.03939867 134.34548221 51.06695557 125.62416077 C51.06817413 124.76411501 51.0693927 123.90406925 51.07064819 123.0179615 C51.10673963 100.76252682 51.60967254 78.51529062 52.11907959 56.26661682 C52.24306993 50.80709561 52.36177486 45.34745923 52.48101807 39.88783264 C52.71303071 29.29852416 52.95105371 18.7093645 53.19195557 8.12025452 C47.58195557 8.12025452 41.97195557 8.12025452 36.19195557 8.12025452 C36.200979 10.70740295 36.21000244 13.29455139 36.21929932 15.96009827 C36.23478114 29.99639652 36.02087155 44.03082434 35.81964111 58.06532288 C35.77562874 61.1453743 35.73403167 64.22544329 35.69464111 67.30555725 C35.31270118 97.09977115 35.31270118 97.09977115 34.55978394 109.42442322 C33.94280053 119.70752845 33.82810077 130.00982501 33.62945557 140.30775452 C33.58611436 142.4373175 33.54249606 144.56687486 33.49859619 146.69642639 C33.3932012 151.8376435 33.29151068 156.97892114 33.19195557 162.12025452 C31.60090502 162.14740684 30.00971949 162.16671938 28.41851807 162.18275452 C27.53244873 162.19435608 26.64637939 162.20595764 25.73345947 162.21791077 C22.62134817 162.09832916 20.05292695 161.32487405 17.19195557 160.12025452 C16.47126967 145.61836762 16.08487142 131.13820518 16.06695557 116.62025452 C16.06445801 115.92998169 16.06196045 115.23970886 16.05938721 114.52851868 C16.03673635 106.91216748 16.19668353 99.33905458 16.66680908 91.7379303 C17.20803753 82.48032039 17.49633011 73.22597988 17.72711182 63.95619202 C17.77029273 62.30039376 17.81370882 60.64460162 17.85734558 58.98881531 C17.96980387 54.69831501 18.07913794 50.40774102 18.18774414 46.11714172 C18.29983187 41.71187874 18.41498094 37.30669579 18.52984619 32.90150452 C18.7534878 24.30782804 18.97353352 15.71406524 19.19195557 7.12025452 C13.91195557 6.46025452 8.63195557 5.80025452 3.19195557 5.12025452 C3.17737305 6.65504456 3.16279053 8.18983459 3.14776611 9.77113342 C2.8416367 39.89164401 2.14808051 69.89279445 0.27862549 99.96376038 C-0.36785475 110.47501034 -0.92032312 120.96487809 -1.12054443 131.49525452 C-1.13919556 132.46594376 -1.15784668 133.436633 -1.17706299 134.43673706 C-1.25752651 138.96765799 -1.31404437 143.49764703 -1.34124756 148.02919006 C-1.36133115 149.60511906 -1.38150749 151.18104688 -1.40179443 152.75697327 C-1.39865234 153.46664246 -1.39551025 154.17631165 -1.39227295 154.90748596 C-1.43453447 157.58643393 -1.48338235 159.61071154 -2.94537354 161.90524292 C-4.80804443 163.12025452 -4.80804443 163.12025452 -7.72601318 162.75697327 C-8.8049585 162.44373108 -9.88390381 162.13048889 -10.99554443 161.80775452 C-12.08222412 161.5022467 -13.16890381 161.19673889 -14.28851318 160.88197327 C-15.1199585 160.63060608 -15.95140381 160.37923889 -16.80804443 160.12025452 C-16.87710867 138.14628996 -16.71391627 116.17929876 -16.43572998 94.20716858 C-16.39194439 90.74332312 -16.35028654 87.27946334 -16.31072998 83.81556702 C-16.10459439 65.78360927 -15.85024705 47.75349584 -15.39726067 29.72581863 C-15.35633317 28.09013943 -15.31680691 26.4544245 -15.27874947 24.81867599 C-15.22555683 22.5689481 -15.1661483 20.31947649 -15.10467529 18.06996155 C-15.05505898 16.15861923 -15.05505898 16.15861923 -15.00444031 14.20866394 C-14.80804443 11.12025452 -14.80804443 11.12025452 -13.80804443 8.12025452 C-18.52118262 12.02078267 -20.46289821 16.88800383 -21.09960938 22.85072327 C-21.23309316 26.02668541 -21.27530476 29.19150368 -21.28460693 32.37025452 C-21.30018646 33.54177063 -21.31576599 34.71328674 -21.33181763 35.92030334 C-21.37912616 39.6536132 -21.40697983 43.38674134 -21.43304443 47.12025452 C-21.48170262 52.01616437 -21.5382185 56.91195802 -21.59710693 61.80775452 C-21.60993713 62.97564514 -21.62276733 64.14353577 -21.63598633 65.34681702 C-21.74700986 73.96580551 -22.10598282 82.52875466 -22.80804443 91.12025452 C-23.13804443 91.12025452 -23.46804443 91.12025452 -23.80804443 91.12025452 C-24.13804443 78.25025452 -24.46804443 65.38025452 -24.80804443 52.12025452 C-25.46804443 53.11025452 -26.12804443 54.10025452 -26.80804443 55.12025452 C-26.85816874 51.19166533 -26.89409946 47.26320467 -26.91790771 43.33436584 C-26.93269361 41.35472555 -26.95813035 39.37517389 -26.98382568 37.39564514 C-27.03924522 26.4502874 -26.96611016 15.05438167 -19.80804443 6.12025452 C-13.53491225 0.90719437 -7.99975698 -0.03151897 0 0 Z " fill="#E49999" transform="translate(31.80804443359375,-0.1202545166015625)"/>
<path d="M0 0 C1.18731496 -0.00128164 1.18731496 -0.00128164 2.39861608 -0.00258917 C5.05338501 -0.0042375 7.70809088 0.00126685 10.362854 0.00672913 C12.26489765 0.00701116 14.1669414 0.00685294 16.06898499 0.00628662 C21.23594822 0.00599929 26.40288831 0.01188566 31.56984615 0.01886058 C36.96839722 0.0251048 42.3669488 0.02569876 47.76550293 0.02688599 C57.9899646 0.02999614 68.21441561 0.0382053 78.43887258 0.04823548 C90.07840387 0.05940639 101.71793567 0.06490953 113.35747099 0.06993091 C137.3023051 0.08038815 161.24712974 0.09798151 185.19195557 0.12025452 C185.19195557 0.78025452 185.19195557 1.44025452 185.19195557 2.12025452 C184.53195557 2.12025452 183.87195557 2.12025452 183.19195557 2.12025452 C182.86195557 2.78025452 182.53195557 3.44025452 182.19195557 4.12025452 C181.86195557 3.79025452 181.53195557 3.46025452 181.19195557 3.12025452 C178.66146155 3.04711885 176.1589072 3.02777925 173.62945557 3.05775452 C172.9185376 3.06226624 172.20761963 3.06677795 171.47515869 3.07142639 C169.71405543 3.08324588 167.95299521 3.10118189 166.19195557 3.12025452 C166.19195557 3.78025452 166.19195557 4.44025452 166.19195557 5.12025452 C164.89773682 5.05966858 163.60351807 4.99908264 162.27008057 4.93666077 C140.58722564 3.97525664 118.89013766 3.57257268 97.19195557 3.12025452 C96.86195557 5.10025452 96.53195557 7.08025452 96.19195557 9.12025452 C93.22195557 9.12025452 90.25195557 9.12025452 87.19195557 9.12025452 C87.19195557 35.19025452 87.19195557 61.26025452 87.19195557 88.12025452 C86.86195557 88.12025452 86.53195557 88.12025452 86.19195557 88.12025452 C86.19195557 62.38025452 86.19195557 36.64025452 86.19195557 10.12025452 C81.24195557 10.12025452 76.29195557 10.12025452 71.19195557 10.12025452 C71.20355713 11.66712952 71.21515869 13.21400452 71.22711182 14.80775452 C71.23650541 16.91191996 71.2456039 19.01608673 71.25445557 21.12025452 C71.26283447 22.13087952 71.27121338 23.14150452 71.27984619 24.18275452 C71.2976396 29.87664543 71.12624719 35.50938019 70.71710205 41.18910217 C70.10213414 50.40520923 69.9150891 59.62197904 69.74639893 68.85537338 C69.69048962 71.91131891 69.6301994 74.96715292 69.56890869 78.022995 C69.43948197 84.51367738 69.31536716 91.00445536 69.19195557 97.49525452 C69.04865852 105.02296726 68.90305515 112.55062333 68.7522583 120.07818985 C68.69371132 123.05443814 68.63900949 126.03073968 68.58453369 129.00706482 C68.36433709 140.39749564 67.91466057 151.75047783 67.19195557 163.12025452 C66.12775391 163.12984192 65.06355225 163.13942932 63.96710205 163.14930725 C62.74192871 163.16034485 61.51675537 163.17138245 60.25445557 163.18275452 C57.90029225 163.2039632 55.54509111 163.19297193 53.19195557 163.12025452 C51.15693781 161.08523676 51.77654982 157.01422271 51.63726807 154.21376038 C51.59522247 153.40417594 51.55317688 152.5945915 51.50985718 151.76047421 C51.09057712 143.04747499 51.03939867 134.34548221 51.06695557 125.62416077 C51.06817413 124.76411501 51.0693927 123.90406925 51.07064819 123.0179615 C51.10673963 100.76252682 51.60967254 78.51529062 52.11907959 56.26661682 C52.24306993 50.80709561 52.36177486 45.34745923 52.48101807 39.88783264 C52.71303071 29.29852416 52.95105371 18.7093645 53.19195557 8.12025452 C47.58195557 8.12025452 41.97195557 8.12025452 36.19195557 8.12025452 C36.200979 10.70740295 36.21000244 13.29455139 36.21929932 15.96009827 C36.23478114 29.99639652 36.02087155 44.03082434 35.81964111 58.06532288 C35.77562874 61.1453743 35.73403167 64.22544329 35.69464111 67.30555725 C35.31270118 97.09977115 35.31270118 97.09977115 34.55978394 109.42442322 C33.94280053 119.70752845 33.82810077 130.00982501 33.62945557 140.30775452 C33.58611436 142.4373175 33.54249606 144.56687486 33.49859619 146.69642639 C33.3932012 151.8376435 33.29151068 156.97892114 33.19195557 162.12025452 C31.60090502 162.14740684 30.00971949 162.16671938 28.41851807 162.18275452 C27.53244873 162.19435608 26.64637939 162.20595764 25.73345947 162.21791077 C22.62134817 162.09832916 20.05292695 161.32487405 17.19195557 160.12025452 C16.47126967 145.61836762 16.08487142 131.13820518 16.06695557 116.62025452 C16.06445801 115.92998169 16.06196045 115.23970886 16.05938721 114.52851868 C16.03673635 106.91216748 16.19668353 99.33905458 16.66680908 91.7379303 C17.20803753 82.48032039 17.49633011 73.22597988 17.72711182 63.95619202 C17.77029273 62.30039376 17.81370882 60.64460162 17.85734558 58.98881531 C17.96980387 54.69831501 18.07913794 50.40774102 18.18774414 46.11714172 C18.29983187 41.71187874 18.41498094 37.30669579 18.52984619 32.90150452 C18.7534878 24.30782804 18.97353352 15.71406524 19.19195557 7.12025452 C13.91195557 6.46025452 8.63195557 5.80025452 3.19195557 5.12025452 C3.17737305 6.65504456 3.16279053 8.18983459 3.14776611 9.77113342 C2.8416367 39.89164401 2.14808051 69.89279445 0.27862549 99.96376038 C-0.36785475 110.47501034 -0.92032312 120.96487809 -1.12054443 131.49525452 C-1.13919556 132.46594376 -1.15784668 133.436633 -1.17706299 134.43673706 C-1.25752651 138.96765799 -1.31404437 143.49764703 -1.34124756 148.02919006 C-1.36133115 149.60511906 -1.38150749 151.18104688 -1.40179443 152.75697327 C-1.39865234 153.46664246 -1.39551025 154.17631165 -1.39227295 154.90748596 C-1.43453447 157.58643393 -1.48338235 159.61071154 -2.94537354 161.90524292 C-4.80804443 163.12025452 -4.80804443 163.12025452 -7.72601318 162.75697327 C-8.8049585 162.44373108 -9.88390381 162.13048889 -10.99554443 161.80775452 C-12.08222412 161.5022467 -13.16890381 161.19673889 -14.28851318 160.88197327 C-15.1199585 160.63060608 -15.95140381 160.37923889 -16.80804443 160.12025452 C-16.87710867 138.14628996 -16.71391627 116.17929876 -16.43572998 94.20716858 C-16.39194439 90.74332312 -16.35028654 87.27946334 -16.31072998 83.81556702 C-16.10459439 65.78360927 -15.85024705 47.75349584 -15.39726067 29.72581863 C-15.35633317 28.09013943 -15.31680691 26.4544245 -15.27874947 24.81867599 C-15.22555683 22.5689481 -15.1661483 20.31947649 -15.10467529 18.06996155 C-15.05505898 16.15861923 -15.05505898 16.15861923 -15.00444031 14.20866394 C-14.80804443 11.12025452 -14.80804443 11.12025452 -13.80804443 8.12025452 C-18.52118262 12.02078267 -20.46289821 16.88800383 -21.09960938 22.85072327 C-21.23309316 26.02668541 -21.27530476 29.19150368 -21.28460693 32.37025452 C-21.30018646 33.54177063 -21.31576599 34.71328674 -21.33181763 35.92030334 C-21.37912616 39.6536132 -21.40697983 43.38674134 -21.43304443 47.12025452 C-21.48170262 52.01616437 -21.5382185 56.91195802 -21.59710693 61.80775452 C-21.60993713 62.97564514 -21.62276733 64.14353577 -21.63598633 65.34681702 C-21.74700986 73.96580551 -22.10598282 82.52875466 -22.80804443 91.12025452 C-23.13804443 91.12025452 -23.46804443 91.12025452 -23.80804443 91.12025452 C-24.13804443 78.25025452 -24.46804443 65.38025452 -24.80804443 52.12025452 C-25.46804443 53.11025452 -26.12804443 54.10025452 -26.80804443 55.12025452 C-26.85816874 51.19166533 -26.89409946 47.26320467 -26.91790771 43.33436584 C-26.93269361 41.35472555 -26.95813035 39.37517389 -26.98382568 37.39564514 C-27.03924522 26.4502874 -26.96611016 15.05438167 -19.80804443 6.12025452 C-13.53491225 0.90719437 -7.99975698 -0.03151897 0 0 Z " fill="#DDAEB7" transform="translate(31.80804443359375,-0.1202545166015625)"/>
<path d="M0 0 C1.91697937 0.14166357 3.83357723 0.28849584 5.75 0.4375 C7.35101563 0.55931641 7.35101563 0.55931641 8.984375 0.68359375 C11.44771673 0.94205318 13.61954866 1.36895582 16 2 C16.09995685 21.62998753 16.14031483 41.25155102 15.5625 60.875 C15.54285187 61.56437653 15.52320374 62.25375305 15.50296021 62.96401978 C15.30838003 69.63586882 15.05547406 76.28721293 14.60665894 82.94708252 C13.71437515 96.6340326 13.88618367 110.34062613 13.93133545 124.04968262 C13.94173297 127.55004256 13.94616755 131.05041018 13.95117188 134.55078125 C13.96176171 141.36720573 13.97873221 148.18360065 14 155 C14.90363281 155.06058594 15.80726562 155.12117187 16.73828125 155.18359375 C17.91777344 155.26738281 19.09726562 155.35117188 20.3125 155.4375 C22.07013672 155.55931641 22.07013672 155.55931641 23.86328125 155.68359375 C27 156 27 156 30 157 C29.99476318 155.70602295 29.98952637 154.4120459 29.98413086 153.07885742 C29.96574702 148.18270588 29.95444873 143.28655723 29.94506836 138.39038086 C29.94010316 136.28913863 29.93332877 134.18789973 29.92456055 132.08666992 C29.88395519 122.09058743 29.84659961 112.12022818 30.47265625 102.140625 C31.01920342 93.34879462 31.16781253 84.55963662 31.28125 75.75390625 C31.29557918 74.65634538 31.29557918 74.65634538 31.31019783 73.53661156 C31.37859401 68.21196519 31.43999929 62.88724665 31.5 57.5625 C31.56835766 51.50124064 31.63954182 45.44003454 31.71875 39.37890625 C31.73282898 38.2934445 31.73282898 38.2934445 31.74719238 37.18605423 C31.90116837 25.77063162 32.31853693 14.39746992 33 3 C38.61 3 44.22 3 50 3 C50.16155426 35.5868414 49.68665017 68.14940226 49.07287598 100.72998047 C48.92749495 108.50019428 48.78795489 116.27051549 48.64736938 124.04081726 C48.4359119 135.69396334 48.2173062 147.34695495 48 159 C30.84 159 13.68 159 -4 159 C-4.35462643 95.8764953 -4.35462643 95.8764953 -2.78393555 73.61425781 C-1.61995724 56.57681193 -1.55496417 39.49873354 -1.34204102 22.42797852 C-1.31758408 20.64460838 -1.31758408 20.64460838 -1.29263306 18.82521057 C-1.26227117 16.57431936 -1.23609444 14.32336666 -1.21469116 12.07237244 C-1.20112579 11.06622391 -1.18756042 10.06007538 -1.17358398 9.0234375 C-1.16407211 8.14606934 -1.15456024 7.26870117 -1.14476013 6.36474609 C-1.00713786 4.11660138 -0.62608784 2.1580373 0 0 Z " fill="#B93529" transform="translate(35,5)"/>
<path d="M0 0 C12 0 12 0 16 2 C16.02338643 21.2717483 16.04100737 40.5434937 16.05181217 59.81525326 C16.05696293 68.76396599 16.06398235 77.71266989 16.07543945 86.66137695 C16.0854236 94.46334911 16.0918623 102.26531486 16.09408849 110.06729323 C16.09538927 114.19628254 16.09843496 118.32525355 16.10573006 122.45423698 C16.11254917 126.34557003 16.11460503 130.23687734 16.11310768 134.12821579 C16.11338137 135.55155006 16.11535139 136.97488526 16.11920547 138.39821434 C16.1585573 153.6891351 16.1585573 153.6891351 15 160 C12 162 12 162 -2 162 C-1.34 108.54 -0.68 55.08 0 0 Z " fill="#D84D38" transform="translate(204,7)"/>
<path d="M0 0 C5.28 0 10.56 0 16 0 C16.03047215 15.68749132 16.05093002 31.37498319 16.0625 47.0625 C16.06335602 48.21502132 16.06421204 49.36754265 16.06509399 50.55498886 C16.08818422 85.71651923 15.90670672 120.84892358 15 156 C9.06 156 3.12 156 -3 156 C-3.088487 139.79581769 -2.76215628 123.60812477 -2.39421272 107.40922952 C-2.30860673 103.62036213 -2.22542756 99.8314414 -2.14196777 96.04252625 C-1.98427358 88.89972036 -1.82446342 81.75696353 -1.66385221 74.61422271 C-1.48080251 66.4688713 -1.30017383 58.32346673 -1.11972713 50.17805731 C-0.74913819 33.45197848 -0.37549255 16.72596948 0 0 Z " fill="#C53D2D" transform="translate(137,10)"/>
<path d="M0 0 C7.92 0 15.84 0 24 0 C22.02 0.99 22.02 0.99 20 2 C13.62797063 5.21090542 10.3334419 8.20564837 8 15 C5.93201569 23.21989637 5.75286664 31.25435377 5.875 39.6875 C5.91625 43.750625 5.9575 47.81375 6 52 C6.33 43.09 6.66 34.18 7 25 C7.33 25 7.66 25 8 25 C8.33 41.5 8.66 58 9 75 C9.02578125 71.14570312 9.0515625 67.29140625 9.078125 63.3203125 C9.11660024 59.56372961 9.16174308 55.80728143 9.20751953 52.05078125 C9.2356454 49.45156345 9.25690136 46.85226145 9.27099609 44.25292969 C9.29254097 40.50412143 9.33925377 36.75631666 9.390625 33.0078125 C9.39246796 31.28064499 9.39246796 31.28064499 9.39434814 29.51858521 C9.51875813 22.57596139 10.1411486 15.97189671 14 10 C16.13824463 8.73049927 16.13824463 8.73049927 18 8 C17.97232544 8.99668198 17.94465088 9.99336395 17.9161377 11.02024841 C17.38892941 30.19042545 16.93403307 49.35870706 16.71875 68.53515625 C16.70920288 69.37870037 16.69965576 70.22224449 16.68981934 71.09135056 C16.61318353 77.94565904 16.54285958 84.80002911 16.47393799 91.65441895 C16.41343042 97.65637517 16.34994413 103.65828779 16.28125 109.66015625 C16.27186401 110.48300739 16.26247803 111.30585854 16.25280762 112.15364456 C16.06414242 128.11092644 15.60459613 144.05333693 15 160 C19.32607587 160.72918276 23.65514916 161.39172088 28 162 C29.71688134 158.56623732 29.24509002 154.61885635 29.31640625 150.8359375 C29.33718735 149.92872955 29.35796844 149.02152161 29.37937927 148.08682251 C29.44487135 145.1829602 29.50375814 142.27900595 29.5625 139.375 C29.60568555 137.40884458 29.64929985 135.44269853 29.69335938 133.4765625 C29.80055239 128.65113638 29.90182081 123.8256176 30 119 C30.33 119 30.66 119 31 119 C31 133.85 31 148.7 31 164 C43.54 164 56.08 164 69 164 C69 164.33 69 164.66 69 165 C57.12 165.33 45.24 165.66 33 166 C32.505 168.97 32.505 168.97 32 172 C23.43597393 171.82871948 14.55914874 167.91701511 8.05859375 162.33203125 C4.51956817 157.8844797 3.7435619 152.51567555 3 147 C2.71272965 157.32577324 2.97093871 165.81649677 8 175 C8.33 175.99 8.66 176.98 9 178 C6.03 178 3.06 178 0 178 C0 119.26 0 60.52 0 0 Z " fill="#D08E96" transform="translate(0,0)"/>
<path d="M0 0 C0.19586569 84.70635986 0.19586569 84.70635986 -0.40571976 122.95849609 C-0.43739333 124.99314754 -0.46737171 127.02781841 -0.49703979 129.0625 C-0.5535718 132.81262125 -0.61692963 136.56254659 -0.68359375 140.3125 C-0.70031128 141.39184814 -0.71702881 142.47119629 -0.73425293 143.58325195 C-0.76416321 145.08311646 -0.76416321 145.08311646 -0.79467773 146.61328125 C-0.81022202 147.46704346 -0.8257663 148.32080566 -0.84178162 149.20043945 C-1.04606959 152.81516821 -1.55093263 156.40746106 -2 160 C-7.61 160 -13.22 160 -19 160 C-18.93941406 157.92332031 -18.87882813 155.84664062 -18.81640625 153.70703125 C-18.53021517 143.80506675 -18.26233178 133.90262238 -18 124 C-17.9783075 123.1866217 -17.95661499 122.37324341 -17.93426514 121.53521729 C-16.86872371 81.36440781 -16.47211186 41.18117095 -16 1 C-14.64648453 0.82812502 -13.29213367 0.66282742 -11.9375 0.5 C-10.80634766 0.36078125 -10.80634766 0.36078125 -9.65234375 0.21875 C-6.42775855 -0.04719517 -3.23400977 -0.03166717 0 0 Z " fill="#CF4532" transform="translate(187,8)"/>
<path d="M0 0 C4.95 0 9.9 0 15 0 C15.02341674 15.18923234 15.04112876 30.37846251 15.05181217 45.56770897 C15.05691039 52.62457278 15.06385185 59.68142488 15.07543945 66.73828125 C15.17196466 126.6640878 15.17196466 126.6640878 14 155 C8.39 155 2.78 155 -3 155 C-3.18122532 103.29781163 -3.06326781 51.62944578 0 0 Z " fill="#BE382A" transform="translate(103,10)"/>
<path d="M0 0 C5.28 0 10.56 0 16 0 C16.06066452 16.2927561 15.86059925 32.57900996 15.62768555 48.86962891 C15.58370467 51.95651662 15.54210623 55.04342181 15.50268555 58.13037109 C15.12038922 87.99276632 15.12038922 87.99276632 14.36782837 100.30732727 C13.75063381 110.58936333 13.63612482 120.89062699 13.4375 131.1875 C13.39415879 133.31706298 13.35054049 135.44662034 13.30664062 137.57617188 C13.20124564 142.71738899 13.09955511 147.85866663 13 153 C11.40894945 153.02715232 9.81776392 153.04646486 8.2265625 153.0625 C7.34049316 153.07410156 6.45442383 153.08570313 5.54150391 153.09765625 C2.4293926 152.97807464 -0.13902861 152.20461953 -3 151 C-3.72068589 136.4981131 -4.10708414 122.01795067 -4.125 107.5 C-4.12749756 106.80972717 -4.12999512 106.11945435 -4.13256836 105.40826416 C-4.15527796 97.77215982 -3.99338617 90.17949718 -3.52294922 82.55859375 C-3.04486636 74.37717895 -2.75373733 66.20154199 -2.55444336 58.00907898 C-2.49813826 55.70506719 -2.43800183 53.40118078 -2.37695312 51.09729004 C-2.20441196 44.5638518 -2.03805144 38.0302636 -1.875 31.49658203 C-1.77406251 27.46220583 -1.66858817 23.42796889 -1.56030273 19.39378357 C-1.52024615 17.86596735 -1.48198424 16.33810298 -1.44555664 14.81019592 C-1.39503647 12.69299031 -1.33879887 10.57600887 -1.28125 8.45898438 C-1.25095703 7.25640991 -1.22066406 6.05383545 -1.18945312 4.81481934 C-1 2 -1 2 0 0 Z " fill="#DFB3BC" transform="translate(52,9)"/>
<path d="M0 0 C5.28 0 10.56 0 16 0 C16.02301465 11.23539799 16.04117377 22.47077917 16.05181217 33.70619583 C16.05692982 38.92881426 16.06381177 44.15141512 16.07543945 49.37402344 C16.12410499 71.87435253 16.04690173 94.36354941 15.55859375 116.859375 C15.52929622 118.29502682 15.52929622 118.29502682 15.49940681 119.7596817 C15.44322421 122.43858494 15.38015544 125.11721977 15.31420898 127.79589844 C15.28943009 128.98400494 15.28943009 128.98400494 15.26415062 130.19611359 C15.17775509 133.3703938 15.01066123 135.96801632 14 139 C13.77820215 140.89212737 13.59385985 142.78884472 13.4375 144.6875 C13.35371094 145.68136719 13.26992187 146.67523438 13.18359375 147.69921875 C13.12300781 148.45847656 13.06242188 149.21773437 13 150 C12.360625 150.12375 11.72125 150.2475 11.0625 150.375 C10.381875 150.58125 9.70125 150.7875 9 151 C8.505 151.99 8.505 151.99 8 153 C5.03 153 2.06 153 -1 153 C-2.34659206 150.30681587 -2.13459533 148.21873342 -2.14526367 145.2019043 C-2.15156296 143.96632278 -2.15786224 142.73074127 -2.16435242 141.4577179 C-2.16586878 140.07988515 -2.16706321 138.70205203 -2.16796875 137.32421875 C-2.17187985 135.87725271 -2.17597886 134.43028716 -2.18025208 132.98332214 C-2.18960115 129.04116518 -2.19043703 125.09904939 -2.18847656 121.15688324 C-2.18750272 118.69436934 -2.18847677 116.23186183 -2.18969727 113.76934814 C-2.19666476 75.82822206 -1.18117269 37.92004123 0 0 Z " fill="#E4BAC4" transform="translate(120,11)"/>
<path d="M0 0 C4.95 0 9.9 0 15 0 C15.02356378 11.84328311 15.04113243 23.6865603 15.05181217 35.5298624 C15.05694761 41.03399569 15.06386631 46.53811252 15.07543945 52.04223633 C15.12005021 73.87527679 15.12442443 95.70024968 14.55859375 117.52734375 C14.52929622 118.68336185 14.52929622 118.68336185 14.49940681 119.86273384 C14.21022427 130.92172796 13.66162234 141.95736141 13 153 C11.93579834 153.0095874 10.87159668 153.0191748 9.77514648 153.02905273 C8.54997314 153.04009033 7.3247998 153.05112793 6.0625 153.0625 C3.70833668 153.08370868 1.35313555 153.07271741 -1 153 C-3.03645627 150.96354373 -2.41541896 146.88483334 -2.5546875 144.08203125 C-2.59673309 143.27184036 -2.63877869 142.46164948 -2.68209839 141.62690735 C-3.09829701 132.97932351 -3.15256166 124.34336264 -3.125 115.6875 C-3.12378143 114.83615479 -3.12256287 113.98480957 -3.12130737 113.10766602 C-3.07088246 82.27724236 -2.37133119 51.44223076 -1.5 20.625 C-1.46463135 19.31402344 -1.4292627 18.00304687 -1.39282227 16.65234375 C-1.33759399 14.86376953 -1.33759399 14.86376953 -1.28125 13.0390625 C-1.25095703 12.03053223 -1.22066406 11.02200195 -1.18945312 9.98291016 C-0.97703852 6.63847507 -0.47392755 3.31749283 0 0 Z " fill="#E0B5BF" transform="translate(86,10)"/>
<path d="M0 0 C1.63001953 0.01353516 1.63001953 0.01353516 3.29296875 0.02734375 C4.12441406 0.03894531 4.95585937 0.05054688 5.8125 0.0625 C6.97433392 3.54800177 6.96015883 6.67244273 6.95776367 10.29785156 C6.9610713 11.03710404 6.96437893 11.77635653 6.96778679 12.5380106 C6.97722173 15.00973013 6.97910307 17.48138868 6.98046875 19.953125 C6.98445753 21.70659938 6.98864775 23.46007331 6.99302673 25.21354675 C7.00448852 30.91320691 7.00268099 36.61283193 7 42.3125 C7.00005597 44.26148478 7.00011701 46.21046956 7.00018311 48.15945435 C6.99384843 73.27638612 6.7934973 98.37837315 6.00061417 123.48374939 C5.9376895 125.49394609 5.87794306 127.50421828 5.81869507 129.51452637 C5.70569062 133.21721546 5.57884501 136.91909405 5.4453125 140.62109375 C5.41187241 141.69006393 5.37843231 142.75903412 5.34397888 143.86039734 C5.12571916 149.25928685 4.5769509 153.94631 2.8125 159.0625 C1.61625 158.8975 0.42 158.7325 -0.8125 158.5625 C-4.29180135 158.08259637 -7.67712442 158.04568383 -11.1875 158.0625 C-11.29230276 142.54040529 -11.27797709 127.03549241 -10.78751945 111.51997948 C-10.10444574 89.59351207 -9.87529236 67.6635225 -9.65527344 45.72845459 C-9.60380419 40.66464889 -9.54879299 35.60088155 -9.49414062 30.53710938 C-9.38859459 20.7122728 -9.28675417 10.88740202 -9.1875 1.0625 C-5.90230525 -0.03256492 -3.45086585 -0.03710608 0 0 Z " fill="#EECBD3" transform="translate(197.1875,7.9375)"/>
<path d="M0 0 C5.28 0 10.56 0 16 0 C16.02333074 15.47505303 16.04108639 30.95010342 16.05181217 46.42516994 C16.05692873 53.61344953 16.06388082 60.80171788 16.07543945 67.98999023 C16.08553036 74.26858261 16.09188697 80.54716683 16.09408849 86.8257671 C16.09537165 90.13814198 16.09885823 93.45047535 16.10573006 96.76284599 C16.13163324 109.78525054 16.07836175 122.80332171 15.68139648 135.82055664 C15.65929894 136.83394073 15.6372014 137.84732481 15.61443424 138.8914175 C15.39362348 144.88790221 14.42728503 149.50179139 12 155 C10.04174127 155.02694851 8.08337774 155.04637218 6.125 155.0625 C5.03445312 155.07410156 3.94390625 155.08570313 2.8203125 155.09765625 C0 155 0 155 -2 154 C-1.9278125 153.2678125 -1.855625 152.535625 -1.78125 151.78125 C-1.13424157 144.23281833 -0.94316831 136.77273246 -0.98242188 129.20117188 C-1.01671612 115.56001709 -0.90500131 101.92175049 -0.78125 88.28125 C-0.75873831 85.71480386 -0.73631986 83.1483569 -0.71398926 80.58190918 C-0.66163681 74.59031968 -0.60836616 68.59873907 -0.5546174 62.607162 C-0.49331503 55.76756517 -0.43323622 48.92795775 -0.37324238 42.08834934 C-0.25015601 28.05888766 -0.1255476 14.02943986 0 0 Z " fill="#E9C4CD" transform="translate(154,10)"/>
<path d="M0 0 C0.33 0 0.66 0 1 0 C1.10957031 1.21816406 1.21914063 2.43632812 1.33203125 3.69140625 C1.49159115 5.31516288 1.65178093 6.9388577 1.8125 8.5625 C1.88275391 9.36236328 1.95300781 10.16222656 2.02539062 10.98632812 C2.67847498 17.38655478 4.02809368 22.41187296 8 27.625 C14.42685085 32.71292359 22.04463359 35.34888622 30 37 C30 35.02 30 33.04 30 31 C35.61 31 41.22 31 47 31 C47 32.98 47 34.96 47 37 C52.61 37 58.22 37 64 37 C64 35.02 64 33.04 64 31 C69.61 31 75.22 31 81 31 C81.66 33.31 82.32 35.62 83 38 C89.93 38.495 89.93 38.495 97 39 C97.33 36.69 97.66 34.38 98 32 C103.61 32 109.22 32 115 32 C115 33.32 115 34.64 115 36 C120.32932432 37.70084819 125.43109483 38.52013969 131 39 C131.33 37.02 131.66 35.04 132 33 C134.45840605 32.97308315 136.91651882 32.95320198 139.375 32.9375 C140.07367188 32.92912109 140.77234375 32.92074219 141.4921875 32.91210938 C146.7734375 32.88671875 146.7734375 32.88671875 149 34 C149.04254356 35.99954746 149.04080783 38.00041636 149 40 C147.41727399 41.58272601 145.61965997 41.34735747 143.4375 41.5625 C142.61121094 41.64628906 141.78492188 41.73007813 140.93359375 41.81640625 C140.29550781 41.87699219 139.65742188 41.93757813 139 42 C139 42.33 139 42.66 139 43 C95.44 43 51.88 43 7 43 C2.1675489 34.54321058 -0.14774086 28.66172656 -0.09765625 18.9453125 C-0.09443359 17.83671875 -0.09121094 16.728125 -0.08789062 15.5859375 C-0.07951172 14.44382813 -0.07113281 13.30171875 -0.0625 12.125 C-0.05798828 10.9596875 -0.05347656 9.794375 -0.04882812 8.59375 C-0.03708781 5.72911355 -0.0206657 2.86458367 0 0 Z " fill="#9A6A76" transform="translate(2,135)"/>
<path d="M0 0 C0.66 0 1.32 0 2 0 C1.97494385 0.89227295 1.9498877 1.7845459 1.92407227 2.70385742 C1.80004644 7.19831718 1.68011385 11.69286832 1.5625 16.1875 C1.5397702 17.05321625 1.51704041 17.9189325 1.49362183 18.81088257 C1.18614727 30.6882427 0.94826417 42.56512863 0.78125 54.4453125 C0.31979755 86.99097313 -0.53140526 119.48355949 -2 152 C-5.84559913 148.35161108 -7.90182673 146.39136702 -8.12542725 140.94476318 C-8.12496399 139.67876282 -8.12450073 138.41276245 -8.12402344 137.10839844 C-8.12471581 136.40281548 -8.12540817 135.69723251 -8.12612152 134.97026825 C-8.12628923 132.59992623 -8.11827047 130.22969939 -8.109375 127.859375 C-8.10767052 127.0306765 -8.10596603 126.201978 -8.1042099 125.34816742 C-8.06103467 104.73672568 -7.76054369 84.12885839 -7.36523438 63.52148438 C-7.28501691 59.29046796 -7.21611325 55.05947762 -7.15625 50.828125 C-7.08235097 45.60975644 -6.98980013 40.39203089 -6.88387299 35.17421722 C-6.84716136 33.21766881 -6.81681083 31.26098907 -6.79331207 29.30423737 C-6.50822362 6.50822362 -6.50822362 6.50822362 0 0 Z " fill="#B4342B" transform="translate(16,8)"/>
<path d="M0 0 C6.6 0 13.2 0 20 0 C20 58.74 20 117.48 20 178 C4.82 178 -10.36 178 -26 178 C-26 177.67 -26 177.34 -26 177 C-24.02 177 -22.04 177 -20 177 C-20 176.34 -20 175.68 -20 175 C-15.05561897 173.35187299 -9.81491007 173.57296234 -4.8125 174.75 C-1.82624326 175.32068381 -1.82624326 175.32068381 0.75 173.0625 C1.4925 172.381875 2.235 171.70125 3 171 C3.66 171 4.32 171 5 171 C5.11730469 170.26523438 5.23460937 169.53046875 5.35546875 168.7734375 C6.00102525 165.99558832 6.91392077 164.09308099 8.3125 161.625 C17.42186609 143.80004446 18.47772803 122.04555336 18.328125 102.41015625 C18.32505357 100.60518045 18.323188 98.80020226 18.32244873 96.995224 C18.31789752 93.25152197 18.30367039 89.5080413 18.28125 85.7644043 C18.25282783 80.99847588 18.24201719 76.23271909 18.2375679 71.46671391 C18.23238626 66.86450664 18.21789499 62.26234087 18.203125 57.66015625 C18.20030392 56.37272365 18.20030392 56.37272365 18.19742584 55.0592823 C18.78616774 30.51610296 18.78616774 30.51610296 7.69140625 9.40234375 C4.72725751 6.94477008 1.52613518 5.51988585 -2 4 C-2 3.34 -2 2.68 -2 2 C-1.34 2 -0.68 2 0 2 C0 1.34 0 0.68 0 0 Z " fill="#150C0D" transform="translate(217,0)"/>
<path d="M0 0 C4.70996316 2.35498158 5.28087301 3.13314726 7 8 C7.42275239 11.89397304 7.39953971 15.76041524 7.37231445 19.67407227 C7.37596512 20.84400223 7.37961578 22.01393219 7.38337708 23.21931458 C7.39147879 27.08515976 7.37786918 30.9505851 7.36328125 34.81640625 C7.36130241 37.51195961 7.36322913 40.2075076 7.36479187 42.90306091 C7.36567405 48.55627421 7.35461756 54.20936744 7.33618164 59.86254883 C7.31508686 66.36762754 7.31148933 72.87252957 7.3177436 79.37763554 C7.3234742 85.66312111 7.3177438 91.9485454 7.30657005 98.23402214 C7.3019653 100.89437617 7.30156102 103.55462902 7.3031559 106.21499825 C7.30353006 109.95015401 7.29080605 113.68504964 7.2746582 117.42016602 C7.27713562 118.50479126 7.27961304 119.5894165 7.28216553 120.70690918 C7.23032216 128.28587895 6.32874486 135.54175023 5 143 C4.01 143.33 3.02 143.66 2 144 C1.34 143.67 0.68 143.34 0 143 C0 95.81 0 48.62 0 0 Z " fill="#F2D2DA" transform="translate(221,12)"/>
<path d="M0 0 C48.84 0 97.68 0 148 0 C148 0.66 148 1.32 148 2 C147.34 2 146.68 2 146 2 C145.67 2.66 145.34 3.32 145 4 C144.67 3.67 144.34 3.34 144 3 C141.46950598 2.92686433 138.96695163 2.90752473 136.4375 2.9375 C135.72658203 2.94201172 135.01566406 2.94652344 134.28320312 2.95117188 C132.52209987 2.96299136 130.76103964 2.98092737 129 3 C129 3.66 129 4.32 129 5 C127.70578125 4.93941406 126.4115625 4.87882813 125.078125 4.81640625 C103.39527007 3.85500212 81.69818209 3.45231816 60 3 C59.67 4.98 59.34 6.96 59 9 C56.03 9 53.06 9 50 9 C50 35.07 50 61.14 50 88 C49.67 88 49.34 88 49 88 C49 62.26 49 36.52 49 10 C44.05 10 39.1 10 34 10 C34 17.92 34 25.84 34 34 C33.67 34 33.34 34 33 34 C33.01047363 33.25314941 33.02094727 32.50629883 33.03173828 31.73681641 C33.0732077 28.36624492 33.09929729 24.995727 33.125 21.625 C33.14175781 20.449375 33.15851563 19.27375 33.17578125 18.0625 C33.18222656 16.94101562 33.18867187 15.81953125 33.1953125 14.6640625 C33.20578613 13.62717285 33.21625977 12.5902832 33.22705078 11.52197266 C33.25615026 8.82891377 33.25615026 8.82891377 31 7 C31.66 6.67 32.32 6.34 33 6 C33 5.01 33 4.02 33 3 C22.11 2.67 11.22 2.34 0 2 C0 1.34 0 0.68 0 0 Z " fill="#DA8888" transform="translate(69,0)"/>
<path d="M0 0 C0.33 0 0.66 0 1 0 C1.33 10.56 1.66 21.12 2 32 C4.97 32.33 7.94 32.66 11 33 C11.66 31.68 12.32 30.36 13 29 C14.485 29.495 14.485 29.495 16 30 C16 26.37 16 22.74 16 19 C16.33 19 16.66 19 17 19 C17 24.28 17 29.56 17 35 C22.94 35 28.88 35 35 35 C35 34.34 35 33.68 35 33 C39.62 33 44.24 33 49 33 C49.33 31.02 49.66 29.04 50 27 C50.33 27 50.66 27 51 27 C51 29.97 51 32.94 51 36 C39.78 36.33 28.56 36.66 17 37 C16.67 38.98 16.34 40.96 16 43 C9.80112515 43.37952295 5.5522888 42.8352113 0 40 C0 38.68 0 37.36 0 36 C-5.61 36 -11.22 36 -17 36 C-17.33 38.31 -17.66 40.62 -18 43 C-20.29141286 43.05384521 -22.58318188 43.09272087 -24.875 43.125 C-26.15117188 43.14820313 -27.42734375 43.17140625 -28.7421875 43.1953125 C-32 43 -32 43 -34 41 C-34 39.02 -34 37.04 -34 35 C-39.61 35 -45.22 35 -51 35 C-51 36.98 -51 38.96 -51 41 C-56.61 41 -62.22 41 -68 41 C-68 39.02 -68 37.04 -68 35 C-73.28 35 -78.56 35 -84 35 C-84 34.67 -84 34.34 -84 34 C-67.5 33.67 -51 33.34 -34 33 C-34 26.4 -34 19.8 -34 13 C-33.67 13 -33.34 13 -33 13 C-32.505 21.91 -32.505 21.91 -32 31 C-25.07 31.495 -25.07 31.495 -18 32 C-18 26.06 -18 20.12 -18 14 C-17.67 14 -17.34 14 -17 14 C-17 20.6 -17 27.2 -17 34 C-11.39 34 -5.78 34 0 34 C0 22.78 0 11.56 0 0 Z " fill="#D39AA4" transform="translate(117,131)"/>
<path d="M0 0 C2.40944763 3.61417145 2.67682373 6.74787105 3.10620117 10.95507812 C3.19035121 11.75268806 3.27450125 12.550298 3.36120129 13.37207794 C4.24813069 22.48290452 4.30905795 31.5724941 4.30078125 40.71875 C4.30468536 42.55562432 4.30902342 44.39249777 4.31376648 46.22937012 C4.32115604 50.04796295 4.32099007 53.86646319 4.31567383 57.68505859 C4.30987574 62.5256484 4.32685438 67.365856 4.3500185 72.20638275 C4.36489968 75.99015434 4.36560844 79.77383676 4.36250877 83.55763245 C4.36301435 85.34022277 4.36810446 87.12281913 4.37832069 88.90538025 C4.44833661 102.81940098 3.7740037 116.78404104 -1 130 C-1.33 130 -1.66 130 -2 130 C-2.14584146 122.62498253 -2.28776129 115.24989626 -2.42724609 107.87475586 C-2.47489482 105.37799463 -2.52336627 102.88124893 -2.57275391 100.38452148 C-3.01662713 77.89645461 -3.3138323 55.42139953 -2.5625 32.9375 C-2.52250254 31.59701365 -2.48279071 30.25651875 -2.44335938 28.91601562 C-2.22960856 21.96105491 -1.92700533 15.01307669 -1.52734375 8.06640625 C-1.49024796 7.37320786 -1.45315216 6.68000946 -1.41493225 5.96580505 C-1.1175124 1.1175124 -1.1175124 1.1175124 0 0 Z " fill="#F3D4DC" transform="translate(231,22)"/>
<path d="M0 0 C0.33 0 0.66 0 1 0 C1.10957031 1.21816406 1.21914063 2.43632812 1.33203125 3.69140625 C1.49159115 5.31516288 1.65178093 6.9388577 1.8125 8.5625 C1.88275391 9.36236328 1.95300781 10.16222656 2.02539062 10.98632812 C2.67847498 17.38655478 4.02809368 22.41187296 8 27.625 C14.42685085 32.71292359 22.04463359 35.34888622 30 37 C30 35.02 30 33.04 30 31 C35.61 31 41.22 31 47 31 C47.495 34.465 47.495 34.465 48 38 C51.45790961 38.48225635 54.91640001 38.96022208 58.375 39.4375 C59.34050781 39.57220703 60.30601563 39.70691406 61.30078125 39.84570312 C67.52359716 40.70186236 73.74498886 41.42394833 80 42 C80 42.33 80 42.66 80 43 C55.91 43 31.82 43 7 43 C2.1675489 34.54321058 -0.14774086 28.66172656 -0.09765625 18.9453125 C-0.09443359 17.83671875 -0.09121094 16.728125 -0.08789062 15.5859375 C-0.07951172 14.44382813 -0.07113281 13.30171875 -0.0625 12.125 C-0.05798828 10.9596875 -0.05347656 9.794375 -0.04882812 8.59375 C-0.03708781 5.72911355 -0.0206657 2.86458367 0 0 Z " fill="#241718" transform="translate(2,135)"/>
<path d="M0 0 C7.92 0 15.84 0 24 0 C22.02 0.99 22.02 0.99 20 2 C13.63539758 5.20716294 10.31992032 8.20491443 8 15 C6.27417617 22.26337844 5.68908726 29.37634592 5.62109375 36.8203125 C5.60409927 37.80442108 5.5871048 38.78852966 5.56959534 39.80245972 C5.51705391 42.90990995 5.47644841 46.01735222 5.4375 49.125 C5.39328011 52.23972321 5.34636972 55.35435498 5.29469299 58.46896362 C5.26323413 60.39558918 5.23619975 62.3222942 5.21446228 64.24905396 C5.13813194 69.25540082 4.8430458 74.13863566 4.1769104 79.1028595 C3.93238823 81.72505079 4.32698868 84.01271743 4.9375 86.5625 C5.13214844 87.40941406 5.32679688 88.25632812 5.52734375 89.12890625 C5.68332031 89.74636719 5.83929687 90.36382812 6 91 C5.01 91 4.02 91 3 91 C3.14168137 92.43791516 3.28851043 93.8753237 3.4375 95.3125 C3.51871094 96.11300781 3.59992188 96.91351563 3.68359375 97.73828125 C3.95265693 100.16087179 3.95265693 100.16087179 5 103 C4.34 103 3.68 103 3 103 C3 103.66 3 104.32 3 105 C2.01 105 1.02 105 0 105 C0 70.35 0 35.7 0 0 Z " fill="#C38E94" transform="translate(0,0)"/>
<path d="M0 0 C0.495 0.99 0.495 0.99 1 2 C2.010625 2.226875 3.02125 2.45375 4.0625 2.6875 C9.74549021 4.19594802 14.14271644 8.15654818 17.32421875 13.02734375 C18.33636449 14.98767062 19.19640871 16.9463778 20 19 C20.5878125 20.36125 20.5878125 20.36125 21.1875 21.75 C23.97062874 32.88251496 23.13189692 44.92799621 23.09765625 56.328125 C23.0957873 58.17185426 23.09436565 60.01558403 23.09336853 61.85931396 C23.08958087 66.6727642 23.07978335 71.48618345 23.06866455 76.29962158 C23.05836905 81.22708721 23.0538536 86.15455793 23.04882812 91.08203125 C23.0381571 100.72136765 23.02112667 110.36068123 23 120 C22.67 120 22.34 120 22 120 C21.99191315 119.05025299 21.98382629 118.10050598 21.97549438 117.12197876 C21.89739669 108.09176389 21.80950815 99.06168802 21.71247292 90.03165627 C21.66291069 85.39125066 21.61658371 80.75086353 21.578125 76.11035156 C21.54075769 71.61684993 21.49427284 67.12352022 21.44193649 62.63016891 C21.42366134 60.93135017 21.40845891 59.23249497 21.39665604 57.53361893 C22.12524587 38.77152299 22.12524587 38.77152299 18 21 C17.3248609 30.97466242 16.79128717 40.9389988 16.49731445 50.93286133 C16.43842326 52.90655753 16.37258711 54.88004256 16.30664062 56.85351562 C15.75369413 74.32766498 15.85849855 91.79666214 16.39453125 109.26953125 C16.49766409 112.89719803 16.59981519 116.5248916 16.7019043 120.15258789 C16.77634603 122.61606685 16.85918529 125.0793048 16.94995117 127.54223633 C17.08111662 131.18022589 17.17823014 134.81785029 17.26953125 138.45703125 C17.31721146 139.5416011 17.36489166 140.62617096 17.41401672 141.74360657 C17.57199887 149.79484649 15.56682682 155.81539815 12 163 C11.01 163 10.02 163 9 163 C9.8204614 159.48148284 11.00720903 156.18089608 12.28125 152.8046875 C14.3640806 144.67712026 14.15651351 136.11126249 14.17700195 127.77661133 C14.18357315 126.5964595 14.19014435 125.41630768 14.19691467 124.20039368 C14.21649392 120.32760542 14.22827002 116.45485547 14.23828125 112.58203125 C14.24233566 111.24055144 14.24645277 109.89907182 14.25063133 108.55759239 C14.26961753 102.2609091 14.28387087 95.96423715 14.2922433 89.66753083 C14.30203877 82.42350922 14.32844549 75.17979125 14.36874419 67.93587667 C14.39893181 62.31522744 14.41371402 56.69466534 14.41702431 51.07393664 C14.41936859 47.72520255 14.43024093 44.37705441 14.45348549 41.02836037 C14.47779587 37.29705997 14.4769272 33.56656019 14.4699707 29.83520508 C14.48918579 28.185336 14.48918579 28.185336 14.50878906 26.50213623 C14.46547938 20.1296451 13.83660067 16.16788341 10 11 C9.34 10.67 8.68 10.34 8 10 C8 35.41 8 60.82 8 87 C7.67 87 7.34 87 7 87 C7 60.6 7 34.2 7 7 C1.69526443 5.48436127 -1.09935634 4.75584632 -6.2734375 4.83984375 C-8.0059375 4.8562793 -8.0059375 4.8562793 -9.7734375 4.87304688 C-11.55621094 4.90495117 -11.55621094 4.90495117 -13.375 4.9375 C-21.01888618 5.05015553 -28.41849254 5.04712469 -36 4 C-36 3.67 -36 3.34 -36 3 C-29.07 3 -22.14 3 -15 3 C-15 2.34 -15 1.68 -15 1 C-10.05 0.67 -5.1 0.34 0 0 Z " fill="#E49FA0" transform="translate(213,2)"/>
<path d="M0 0 C14.85 0 29.7 0 45 0 C45 0.66 45 1.32 45 2 C45.9286084 1.99476318 46.8572168 1.98952637 47.81396484 1.98413086 C51.25423805 1.96710407 54.69446659 1.95455727 58.13476562 1.94506836 C59.62468166 1.94003486 61.11459274 1.93320758 62.60449219 1.92456055 C64.74415304 1.91245195 66.88374868 1.90676193 69.0234375 1.90234375 C70.31169434 1.89710693 71.59995117 1.89187012 72.92724609 1.88647461 C76 2 76 2 78 3 C78.625 5.0625 78.625 5.0625 79 7 C75.22918364 7.0294985 71.45839769 7.04696364 67.6875 7.0625 C66.63498047 7.07087891 65.58246094 7.07925781 64.49804688 7.08789062 C58.33293271 7.10686021 52.28841108 6.85708571 46.15551758 6.21655273 C44.02939759 5.9666796 44.02939759 5.9666796 42 6 C37.851826 5.71881642 33.70750709 5.38665197 29.5625 5.0625 C28.40427734 4.97548828 27.24605469 4.88847656 26.05273438 4.79882812 C24.38887695 4.66831055 24.38887695 4.66831055 22.69140625 4.53515625 C21.67248291 4.456604 20.65355957 4.37805176 19.60375977 4.29711914 C17 4 17 4 14 3 C11.43365139 2.77281504 8.88321893 2.58391816 6.3125 2.4375 C5.61060547 2.39431641 4.90871094 2.35113281 4.18554688 2.30664062 C2.45724794 2.2008264 0.7286489 2.09993419 -1 2 C-0.67 1.34 -0.34 0.68 0 0 Z " fill="#ECBCC6" transform="translate(24,0)"/>
<path d="M0 0 C0.99 0 1.98 0 3 0 C4.20272819 2.40545638 4.10071472 3.94996953 4.0625 6.625 C4.05347656 7.44226563 4.04445313 8.25953125 4.03515625 9.1015625 C4.02355469 9.72804688 4.01195312 10.35453125 4 11 C4.66 11.33 5.32 11.66 6 12 C5.34 12 4.68 12 4 12 C4 21.9 4 31.8 4 42 C3.67 42 3.34 42 3 42 C2.71272965 52.32577324 2.97093871 60.81649677 8 70 C8.33 70.99 8.66 71.98 9 73 C6.03 73 3.06 73 0 73 C0 48.91 0 24.82 0 0 Z " fill="#988281" transform="translate(0,105)"/>
<path d="M0 0 C26.73 0 53.46 0 81 0 C81 0.66 81 1.32 81 2 C80.34 2 79.68 2 79 2 C78.67 2.66 78.34 3.32 78 4 C77.505 3.505 77.505 3.505 77 3 C74.46950598 2.92686433 71.96695163 2.90752473 69.4375 2.9375 C68.72658203 2.94201172 68.01566406 2.94652344 67.28320312 2.95117188 C65.52209987 2.96299136 63.76103964 2.98092737 62 3 C62 3.66 62 4.32 62 5 C41.54 4.34 21.08 3.68 0 3 C0 2.01 0 1.02 0 0 Z " fill="#DB8F98" transform="translate(136,0)"/>
<path d="M0 0 C0.495 0.99 0.495 0.99 1 2 C2.010625 2.226875 3.02125 2.45375 4.0625 2.6875 C9.74549021 4.19594802 14.14271644 8.15654818 17.32421875 13.02734375 C18.33636449 14.98767062 19.19640871 16.9463778 20 19 C20.5878125 20.36125 20.5878125 20.36125 21.1875 21.75 C23.97062874 32.88251496 23.13189692 44.92799621 23.09765625 56.328125 C23.0957873 58.17185426 23.09436565 60.01558403 23.09336853 61.85931396 C23.08958087 66.6727642 23.07978335 71.48618345 23.06866455 76.29962158 C23.05836905 81.22708721 23.0538536 86.15455793 23.04882812 91.08203125 C23.0381571 100.72136765 23.02112667 110.36068123 23 120 C22.67 120 22.34 120 22 120 C21.99191315 119.05025299 21.98382629 118.10050598 21.97549438 117.12197876 C21.89739669 108.09176389 21.80950815 99.06168802 21.71247292 90.03165627 C21.66291069 85.39125066 21.61658371 80.75086353 21.578125 76.11035156 C21.54075769 71.61684993 21.49427284 67.12352022 21.44193649 62.63016891 C21.42366134 60.93135017 21.40845891 59.23249497 21.39665604 57.53361893 C21.33299585 48.6722952 21.04479946 39.88158325 20.16162109 31.06005859 C20.09311258 30.30839731 20.02460407 29.55673603 19.95401955 28.78229713 C19.49242469 24.66565876 18.80403837 22.07572839 16 19 C15.50317633 17.71502151 15.023882 16.42312562 14.5625 15.125 C11.61090287 9.23414338 5.97632924 7.10794488 0 5 C-4.60608371 4.36665931 -9.05134872 4.46598631 -13.6875 4.6875 C-16.00377327 4.75839317 -18.32018575 4.82489192 -20.63671875 4.88671875 C-22.2616626 4.93578369 -22.2616626 4.93578369 -23.91943359 4.98583984 C-28.0251403 5.00471217 -31.93798994 4.57534328 -36 4 C-36 3.67 -36 3.34 -36 3 C-29.07 3 -22.14 3 -15 3 C-15 2.34 -15 1.68 -15 1 C-10.05 0.67 -5.1 0.34 0 0 Z " fill="#CBA0AB" transform="translate(213,2)"/>
<path d="M0 0 C0.33 0 0.66 0 1 0 C1.09765625 6.15234375 1.09765625 6.15234375 1 8 C0.67 8.33 0.34 8.66 0 9 C0.66 9.33 1.32 9.66 2 10 C2 11.98 2 13.96 2 16 C3.65 16 5.3 16 7 16 C7 15.01 7 14.02 7 13 C7.66 13 8.32 13 9 13 C9 15.97 9 18.94 9 22 C-6.18 22 -21.36 22 -37 22 C-37 21.67 -37 21.34 -37 21 C-35.02 21 -33.04 21 -31 21 C-31 20.34 -31 19.68 -31 19 C-26.05561897 17.35187299 -20.81491007 17.57296234 -15.8125 18.75 C-12.82624326 19.32068381 -12.82624326 19.32068381 -10.25 17.0625 C-9.5075 16.381875 -8.765 15.70125 -8 15 C-7.34 15 -6.68 15 -6 15 C-5.88785156 14.28457031 -5.77570313 13.56914062 -5.66015625 12.83203125 C-4.95543995 9.80884002 -3.86712202 7.43677312 -2.4375 4.6875 C-1.98246094 3.80449219 -1.52742188 2.92148438 -1.05859375 2.01171875 C-0.53458984 1.01591797 -0.53458984 1.01591797 0 0 Z " fill="#211619" transform="translate(228,156)"/>
<path d="M0 0 C7.52125611 -0.21835905 14.53943882 0.09409163 21.93359375 1.4921875 C26.3654666 2.22612823 30.80419635 2.48776439 35.28515625 2.75390625 C38 3 38 3 41 4 C41.33 3.34 41.66 2.68 42 2 C42.495 2.495 42.495 2.495 43 3 C44.37851844 3.18025415 45.7653096 3.29801174 47.15258789 3.38891602 C48.47384422 3.4788961 48.47384422 3.4788961 49.8217926 3.57069397 C50.77907761 3.63115402 51.73636261 3.69161407 52.72265625 3.75390625 C53.69786728 3.81907944 54.67307831 3.88425262 55.67784119 3.95140076 C58.80579166 4.1594364 61.93412029 4.36103225 65.0625 4.5625 C67.1777623 4.70205136 69.29299713 4.84201977 71.40820312 4.98242188 C76.60515917 5.32646217 81.80244029 5.66521024 87 6 C87 6.33 87 6.66 87 7 C83.7 7 80.4 7 77 7 C77 20.53 77 34.06 77 48 C76.67 48 76.34 48 76 48 C76 34.8 76 21.6 76 8 C71.05 8 66.1 8 61 8 C61 10.31 61 12.62 61 15 C60.67 15 60.34 15 60 15 C60 12.03 60 9.06 60 6 C58.9584375 6.0721875 57.916875 6.144375 56.84375 6.21875 C46.87927549 6.87540103 36.98451481 7.12094298 27 7 C26.67 7.66 26.34 8.32 26 9 C26 7.68 26 6.36 26 5 C25.30132812 4.93941406 24.60265625 4.87882813 23.8828125 4.81640625 C22.97273438 4.73261719 22.06265625 4.64882812 21.125 4.5625 C20.22007813 4.48128906 19.31515625 4.40007813 18.3828125 4.31640625 C16 4 16 4 14 3 C11.62876754 2.76970044 9.25258057 2.58880058 6.875 2.4375 C5.59367187 2.35371094 4.31234375 2.26992187 2.9921875 2.18359375 C1.51105469 2.09271484 1.51105469 2.09271484 0 2 C0 1.34 0 0.68 0 0 Z " fill="#E7ABB3" transform="translate(25,2)"/>
<path d="M0 0 C0.33 0 0.66 0 1 0 C1 13.2 1 26.4 1 40 C0.34 40 -0.32 40 -1 40 C-1 40.99 -1 41.98 -1 43 C-2.65 43 -4.3 43 -6 43 C-6 41.02 -6 39.04 -6 37 C-6.99 36.67 -7.98 36.34 -9 36 C-8.505 35.505 -8.505 35.505 -8 35 C-7.66809461 32.79735514 -7.38606236 30.58716003 -7.125 28.375 C-6.42729663 22.84296962 -5.60811762 17.35250148 -4.5625 11.875 C-4.33691406 10.67617187 -4.11132812 9.47734375 -3.87890625 8.2421875 C-3.00669274 5.02468878 -1.9191246 2.71236277 0 0 Z " fill="#110A0B" transform="translate(236,129)"/>
<path d="M0 0 C0.33 0 0.66 0 1 0 C1.13255238 8.20807147 1.26305247 16.41617225 1.39115143 24.62431431 C1.45073579 28.43844223 1.51094643 32.2525578 1.57275391 36.06665039 C2.39308713 86.80084632 2.39308713 86.80084632 1 106.9375 C0.90296578 108.42248176 0.806612 109.90750814 0.7109375 111.39257812 C0.48169582 114.9289282 0.24361909 118.46460752 0 122 C-0.33 122 -0.66 122 -1 122 C-1.21738637 102.99076963 -0.56639412 83.99830501 0 65 C-0.66 65 -1.32 65 -2 65 C-4.21458096 57.27778091 -3.9311008 50.57752114 -3.1875 42.625 C-3.09146484 41.45066406 -2.99542969 40.27632812 -2.89648438 39.06640625 C-2.16276544 30.48829633 -2.16276544 30.48829633 -1 27 C-0.84970012 24.93637009 -0.75155552 22.86876085 -0.68359375 20.80078125 C-0.64169922 19.59228516 -0.59980469 18.38378906 -0.55664062 17.13867188 C-0.49766602 15.2447168 -0.49766602 15.2447168 -0.4375 13.3125 C-0.39431641 12.03826172 -0.35113281 10.76402344 -0.30664062 9.45117188 C-0.2004514 6.30089148 -0.09840467 3.15053161 0 0 Z " fill="#D09AA3" transform="translate(7,25)"/>
<path d="M0 0 C5.61 0 11.22 0 17 0 C17.495 4.455 17.495 4.455 18 9 C19.98 9.66 21.96 10.32 24 11 C24 11.33 24 11.66 24 12 C13.9151362 11.63893698 3.94589049 10.87982547 -6.0625 9.5625 C-7.03203613 9.44028076 -8.00157227 9.31806152 -9.00048828 9.19213867 C-10.34796143 9.00615112 -10.34796143 9.00615112 -11.72265625 8.81640625 C-12.52453369 8.70756104 -13.32641113 8.59871582 -14.15258789 8.48657227 C-14.76223389 8.32600342 -15.37187988 8.16543457 -16 8 C-16.33 7.34 -16.66 6.68 -17 6 C-11.39 6 -5.78 6 0 6 C0 4.02 0 2.04 0 0 Z " fill="#814F56" transform="translate(66,166)"/>
<path d="M0 0 C11.88 0 23.76 0 36 0 C36.495 1.485 36.495 1.485 37 3 C37.99 3.33 38.98 3.66 40 4 C36.37 4.33 32.74 4.66 29 5 C29 5.66 29 6.32 29 7 C7.99082569 7.19877676 7.99082569 7.19877676 -1 6 C-0.67 4.02 -0.34 2.04 0 0 Z " fill="#C87E80" transform="translate(168,170)"/>
<path d="M0 0 C13.86 0.495 13.86 0.495 28 1 C28 1.33 28 1.66 28 2 C25.03 2 22.06 2 19 2 C18.67 3.98 18.34 5.96 18 8 C18.55945313 7.98839844 19.11890625 7.97679687 19.6953125 7.96484375 C27.16623304 7.88076587 34.55609286 8.39933891 42 9 C42 9.33 42 9.66 42 10 C34.93419448 10.0506353 27.8684356 10.0857062 20.80249023 10.10986328 C18.39785005 10.11993201 15.99322214 10.13358785 13.58862305 10.15087891 C10.13587416 10.17508874 6.6832869 10.18647432 3.23046875 10.1953125 C1.61316109 10.21079636 1.61316109 10.21079636 -0.03681946 10.22659302 C-1.53803596 10.22681961 -1.53803596 10.22681961 -3.06958008 10.22705078 C-3.95116287 10.231492 -4.83274567 10.23593323 -5.74104309 10.24050903 C-8 10 -8 10 -11 8 C-5.06 7.505 -5.06 7.505 1 7 C1.33 5.02 1.66 3.04 2 1 C1.34 0.67 0.68 0.34 0 0 Z " fill="#BF8692" transform="translate(149,168)"/>
<path d="M0 0 C0 15.18 0 30.36 0 46 C0.33 46 0.66 46 1 46 C0.97679687 47.31355469 0.95359375 48.62710938 0.9296875 49.98046875 C0.91092349 51.71614013 0.89272396 53.45181768 0.875 55.1875 C0.85824219 56.05181641 0.84148438 56.91613281 0.82421875 57.80664062 C0.78961767 62.32208103 0.84432084 65.90081483 3 70 C1.125 69.875 1.125 69.875 -1 69 C-3.08725787 64.27677917 -3.25277485 59.85279468 -3.16015625 54.77734375 C-3.15495468 53.99541153 -3.14975311 53.21347931 -3.14439392 52.40785217 C-3.1266862 49.9175399 -3.09560536 47.42765136 -3.0625 44.9375 C-3.02554856 41.67581215 -2.99523754 38.41416305 -2.97265625 35.15234375 C-2.96706696 34.36507904 -2.96147766 33.57781433 -2.95571899 32.76669312 C-2.94078668 26.97060692 -3.24041124 21.2444963 -3.77905273 15.47094727 C-4.20788063 10.67518248 -4 5.81440327 -4 1 C-1 0 -1 0 0 0 Z " fill="#C58C94" transform="translate(7,90)"/>
<path d="M0 0 C0.33 0 0.66 0 1 0 C1.10957031 1.21816406 1.21914063 2.43632812 1.33203125 3.69140625 C1.49159115 5.31516288 1.65178093 6.9388577 1.8125 8.5625 C1.88275391 9.36236328 1.95300781 10.16222656 2.02539062 10.98632812 C2.8395519 18.96510866 4.76765123 24.54669482 11 30 C11.99 30.66 12.98 31.32 14 32 C14.29296875 34.6015625 14.29296875 34.6015625 14.1875 37.625 C14.16042969 38.62789062 14.13335937 39.63078125 14.10546875 40.6640625 C14.07066406 41.43492187 14.03585938 42.20578125 14 43 C11.69 43 9.38 43 7 43 C2.28231007 34.97992711 -0.14641931 28.40534626 -0.09765625 18.9453125 C-0.09443359 17.83671875 -0.09121094 16.728125 -0.08789062 15.5859375 C-0.07951172 14.44382813 -0.07113281 13.30171875 -0.0625 12.125 C-0.05798828 10.9596875 -0.05347656 9.794375 -0.04882812 8.59375 C-0.03708781 5.72911355 -0.0206657 2.86458367 0 0 Z " fill="#1E1516" transform="translate(2,135)"/>
<path d="M0 0 C0.33 0 0.66 0 1 0 C1.01030746 1.03015228 1.02061493 2.06030457 1.03123474 3.12167358 C1.12926676 12.86070093 1.23202698 22.59966862 1.33933926 32.33859825 C1.39435098 37.34468903 1.44773443 42.35078584 1.49731445 47.35693359 C1.54528104 52.19398325 1.59763223 57.03096791 1.65294075 61.867939 C1.67321901 63.70735669 1.69195458 65.54679211 1.70907402 67.38624191 C1.79307815 76.31176833 1.87642128 85.13132523 3 94 C3.66 90.7 4.32 87.4 5 84 C5.33 84 5.66 84 6 84 C4.67428571 105.98857143 4.67428571 105.98857143 0 113 C-0.14584146 105.62498253 -0.28776129 98.24989626 -0.42724609 90.87475586 C-0.47489482 88.37799463 -0.52336627 85.88124893 -0.57275391 83.38452148 C-1.0232919 60.55879534 -1.29919504 37.75746851 -0.5 14.9375 C-0.45144961 13.46160077 -0.40327326 11.9856892 -0.35546875 10.50976562 C-0.24122424 7.00635943 -0.12215347 3.50314051 0 0 Z " fill="#F4C8D0" transform="translate(229,39)"/>
<path d="M0 0 C7.59 0 15.18 0 23 0 C21.02 0.99 21.02 0.99 19 2 C9.64870325 7.05424339 4.8084154 13.12052241 1 23 C0.67 23 0.34 23 0 23 C0 15.41 0 7.82 0 0 Z " fill="#171010" transform="translate(1,0)"/>
<path d="M0 0 C0.33 0 0.66 0 1 0 C1.33 6.93 1.66 13.86 2 21 C2.66 21.33 3.32 21.66 4 22 C3.93148331 22.55066132 3.86296661 23.10132263 3.79237366 23.66867065 C2.92201913 31.36004209 2.78051097 39.02441475 2.68359375 46.7578125 C2.66297302 48.1560012 2.64197541 49.55418438 2.62062073 50.95236206 C2.56592772 54.59854615 2.51629014 58.24478144 2.46777344 61.89105225 C2.41716821 65.62533013 2.36168771 69.35953542 2.30664062 73.09375 C2.1997065 80.39577152 2.09812315 87.6978542 2 95 C1.34 95 0.68 95 0 95 C0 63.65 0 32.3 0 0 Z " fill="#9C797E" transform="translate(0,0)"/>
<path d="M0 0 C0.66 0 1.32 0 2 0 C2.07003679 16.76767807 2.12296195 33.5353088 2.15543652 50.30309772 C2.17091484 58.08842669 2.1920227 65.87366486 2.22631836 73.65893555 C2.25619129 80.44345207 2.27556798 87.22790284 2.28226548 94.0124833 C2.28618135 97.60591691 2.29540395 101.19916239 2.31719017 104.79253578 C2.34129651 108.80098492 2.34197136 112.80910561 2.34057617 116.81762695 C2.351362 118.0130864 2.36214783 119.20854584 2.3732605 120.44023132 C2.36913651 121.52978119 2.36501251 122.61933105 2.36076355 123.74189758 C2.36352893 124.69042256 2.36629431 125.63894754 2.36914349 126.61621571 C1.93781348 129.40157624 1.17347171 130.27680626 -1 132 C-0.83773926 130.73518799 -0.67547852 129.47037598 -0.50830078 128.16723633 C0.31146525 119.90748344 0.14373166 111.61533569 0.1328125 103.32421875 C0.13348761 101.50877367 0.13445935 99.69332868 0.13571167 97.87788391 C0.13718002 94.08467747 0.13506267 90.29149469 0.13037109 86.49829102 C0.12468663 81.67055968 0.1279502 76.84288411 0.13394356 72.01515484 C0.13758302 68.26847424 0.13639493 64.52180652 0.13381577 60.7751255 C0.13315519 58.99678351 0.13394401 57.21844028 0.13629532 55.44009972 C0.14569819 46.32852306 0.03203756 37.34436631 -0.88357544 28.27082825 C-0.9412056 27.14676826 -0.9412056 27.14676826 -1 26 C-0.67 25.67 -0.34 25.34 0 25 C0.08737645 23.14630389 0.10698153 21.28932459 0.09765625 19.43359375 C0.09443359 18.30888672 0.09121094 17.18417969 0.08789062 16.02539062 C0.07951172 14.84138672 0.07113281 13.65738281 0.0625 12.4375 C0.05798828 11.24962891 0.05347656 10.06175781 0.04882812 8.83789062 C0.03699675 5.89187774 0.02051287 2.94596319 0 0 Z " fill="#2B161C" transform="translate(235,0)"/>
<path d="M0 0 C5.61 0 11.22 0 17 0 C17 2.97 17 5.94 17 9 C14.91673869 9.02709444 12.83337559 9.04643873 10.75 9.0625 C9.00976562 9.07990234 9.00976562 9.07990234 7.234375 9.09765625 C4.59022872 9.01782092 2.50173909 8.78643778 0 8 C0 5.36 0 2.72 0 0 Z " fill="#8D2928" transform="translate(100,167)"/>
<path d="M0 0 C10.96622775 -0.319082 21.51186316 0.66341256 32.375 2 C33.99730681 2.19345635 35.61970248 2.38616903 37.2421875 2.578125 C41.16253208 3.0435461 45.08154869 3.51891014 49 4 C49 4.33 49 4.66 49 5 C33.82 5 18.64 5 3 5 C3.99 4.01 4.98 3.02 6 2 C3.03 1.505 3.03 1.505 0 1 C0 0.67 0 0.34 0 0 Z " fill="#130C0D" transform="translate(33,173)"/>
<path d="M0 0 C2.45840605 -0.02691685 4.91651882 -0.04679802 7.375 -0.0625 C8.07367188 -0.07087891 8.77234375 -0.07925781 9.4921875 -0.08789062 C14.7734375 -0.11328125 14.7734375 -0.11328125 17 1 C17.04254356 2.99954746 17.04080783 5.00041636 17 7 C16 8 16 8 12.40234375 8.09765625 C10.91403133 8.0909822 9.42573568 8.07902183 7.9375 8.0625 C6.79958008 8.05573242 6.79958008 8.05573242 5.63867188 8.04882812 C3.75908129 8.0370068 1.87953101 8.01907078 0 8 C0 5.36 0 2.72 0 0 Z " fill="#831B1D" transform="translate(134,168)"/>
<path d="M0 0 C0.71862717 0.16076523 1.43725433 0.32153046 2.17765808 0.48716736 C4.89557122 0.9810248 7.39906838 1.15643919 10.1574707 1.20532227 C11.65846062 1.2352401 11.65846062 1.2352401 13.18977356 1.26576233 C14.2576561 1.28247482 15.32553864 1.29918732 16.42578125 1.31640625 C17.52850876 1.33718735 18.63123627 1.35796844 19.76737976 1.37937927 C23.28235778 1.44464932 26.79740912 1.50365495 30.3125 1.5625 C32.69857523 1.60570665 35.08464309 1.64932163 37.47070312 1.69335938 C43.31372506 1.8003076 49.15681958 1.90211555 55 2 C55 2.33 55 2.66 55 3 C43.12 3.33 31.24 3.66 19 4 C18.67 5.98 18.34 7.96 18 10 C12.58609132 9.53328373 8.79482068 8.75702189 4 6 C4 5.01 4 4.02 4 3 C2.05990478 1.29467677 2.05990478 1.29467677 0 0 Z " fill="#E2B0BA" transform="translate(14,162)"/>
<path d="M0 0 C0.33 0 0.66 0 1 0 C1 15.84 1 31.68 1 48 C-8.57 48 -18.14 48 -28 48 C-28 47.67 -28 47.34 -28 47 C-24.37 47 -20.74 47 -17 47 C-17 37.43 -17 27.86 -17 18 C-16.67 18 -16.34 18 -16 18 C-16 26.58 -16 35.16 -16 44 C-13.916875 44.144375 -11.83375 44.28875 -9.6875 44.4375 C-6.20410111 44.67892369 -3.31544299 44.89485234 0 46 C0 30.82 0 15.64 0 0 Z " fill="#BA6C70" transform="translate(65,116)"/>
<path d="M0 0 C16.5 0 33 0 50 0 C50 0.99 50 1.98 50 3 C33.31750448 3.19126428 16.66870881 2.60142352 0 2 C0 1.34 0 0.68 0 0 Z " fill="#C2696D" transform="translate(69,0)"/>
<path d="M0 0 C7.26 0.33 14.52 0.66 22 1 C22 1.33 22 1.66 22 2 C19.69 2.33 17.38 2.66 15 3 C23.91 3 32.82 3 42 3 C42 3.33 42 3.66 42 4 C39.03 4 36.06 4 33 4 C32.67 5.32 32.34 6.64 32 8 C32 7.01 32 6.02 32 5 C27.05 5.33 22.1 5.66 17 6 C17 7.98 17 9.96 17 12 C16.67 12 16.34 12 16 12 C16 9.69 16 7.38 16 5 C8.41 5.33 0.82 5.66 -7 6 C-3 4 -3 4 0 4 C0 2.68 0 1.36 0 0 Z " fill="#E6A7AE" transform="translate(171,3)"/>
<path d="M0 0 C5.28 0 10.56 0 16 0 C16 2.31 16 4.62 16 7 C10.72 7 5.44 7 0 7 C0 4.69 0 2.38 0 0 Z " fill="#941C18" transform="translate(67,167)"/>
<path d="M0 0 C7.61326976 -0.22103041 14.76255116 0.08551755 22.25390625 1.48828125 C25.82347336 2.15344952 29.39396797 2.58391938 33 3 C33 3.66 33 4.32 33 5 C38.61 5 44.22 5 50 5 C50 5.33 50 5.66 50 6 C44.79826905 6.86809439 39.83021184 7.12515348 34.5625 7.0625 C33.46518555 7.05573242 33.46518555 7.05573242 32.34570312 7.04882812 C30.56376581 7.03718148 28.78187137 7.01925191 27 7 C26.67 7.66 26.34 8.32 26 9 C26 7.68 26 6.36 26 5 C25.30132812 4.93941406 24.60265625 4.87882813 23.8828125 4.81640625 C22.97273438 4.73261719 22.06265625 4.64882812 21.125 4.5625 C20.22007813 4.48128906 19.31515625 4.40007813 18.3828125 4.31640625 C16 4 16 4 14 3 C11.62876754 2.76970044 9.25258057 2.58880058 6.875 2.4375 C5.59367187 2.35371094 4.31234375 2.26992187 2.9921875 2.18359375 C1.51105469 2.09271484 1.51105469 2.09271484 0 2 C0 1.34 0 0.68 0 0 Z " fill="#E0A6AE" transform="translate(25,2)"/>
<path d="M0 0 C0.33 0 0.66 0 1 0 C1.33 21.45 1.66 42.9 2 65 C3.32 65.33 4.64 65.66 6 66 C5.505 67.051875 5.01 68.10375 4.5 69.1875 C3.17220212 72.25452609 2.69284994 74.62134936 3 78 C1.515 78.495 1.515 78.495 0 79 C0 52.93 0 26.86 0 0 Z " fill="#F8B3B4" transform="translate(220,89)"/>
<path d="M0 0 C5.61 0.33 11.22 0.66 17 1 C17 1.66 17 2.32 17 3 C17.763125 2.67 18.52625 2.34 19.3125 2 C22 1 22 1 25 1 C25 2.32 25 3.64 25 5 C23.93072266 4.98259766 23.93072266 4.98259766 22.83984375 4.96484375 C17.42859185 4.91386291 12.35883664 5.191119 7 6 C4.32642869 6.08058637 1.67570102 6.04694212 -1 6 C-0.67 4.02 -0.34 2.04 0 0 Z " fill="#EDBEC7" transform="translate(129,3)"/>
<path d="M0 0 C0.33 0 0.66 0 1 0 C1.33 10.56 1.66 21.12 2 32 C4.97 32.33 7.94 32.66 11 33 C11.66 31.68 12.32 30.36 13 29 C13.99 29.33 14.98 29.66 16 30 C16 26.37 16 22.74 16 19 C16.33 19 16.66 19 17 19 C17 24.28 17 29.56 17 35 C9.74 35 2.48 35 -5 35 C-5 34.67 -5 34.34 -5 34 C-3.35 34 -1.7 34 0 34 C0 22.78 0 11.56 0 0 Z " fill="#C67C84" transform="translate(117,131)"/>
<path d="M0 0 C5.61 0 11.22 0 17 0 C17 1.98 17 3.96 17 6 C11.39 6 5.78 6 0 6 C0 4.02 0 2.04 0 0 Z " fill="#A42C24" transform="translate(32,166)"/>
<path d="M0 0 C6.6 0 13.2 0 20 0 C20 0.33 20 0.66 20 1 C14.25 2.125 14.25 2.125 12 1 C12 1.99 12 2.98 12 4 C15.3 4.33 18.6 4.66 22 5 C22 5.33 22 5.66 22 6 C14.41 6 6.82 6 -1 6 C-0.67 4.02 -0.34 2.04 0 0 Z " fill="#AB4C47" transform="translate(168,170)"/>
<path d="M0 0 C0.33 0 0.66 0 1 0 C1.26876492 6.18811096 1.50129319 12.3761986 1.7019043 18.56689453 C1.77490077 20.66783936 1.85738832 22.7684786 1.94995117 24.86865234 C2.92450256 47.26735811 2.92450256 47.26735811 -3 57 C-3.99 57 -4.98 57 -6 57 C-5.1795386 53.48148284 -3.99279097 50.18089608 -2.71875 46.8046875 C-0.20462476 36.99413359 -0.69446866 26.4460739 -0.4375 16.375 C-0.39421085 14.78254306 -0.35059363 13.190095 -0.30664062 11.59765625 C-0.2006458 7.73186282 -0.09908675 3.86597641 0 0 Z " fill="#D9A1AA" transform="translate(228,108)"/>
<path d="M0 0 C11.52164009 -0.18451025 11.52164009 -0.18451025 17 1 C16.67 2.98 16.34 4.96 16 7 C9.80112515 7.37952295 5.5522888 6.8352113 0 4 C0 2.68 0 1.36 0 0 Z " fill="#C78E99" transform="translate(117,167)"/>
<path d="M0 0 C0.969375 0.309375 1.93875 0.61875 2.9375 0.9375 C7.23664491 2.17967097 11.55342634 2.61684853 16 3 C16.33 2.01 16.66 1.02 17 0 C17 1.65 17 3.3 17 5 C19.31 5.33 21.62 5.66 24 6 C24 6.33 24 6.66 24 7 C13.11 6.67 2.22 6.34 -9 6 C-9 5.67 -9 5.34 -9 5 C-6.03 5 -3.06 5 0 5 C0 3.35 0 1.7 0 0 Z " fill="#AB717E" transform="translate(117,171)"/>
<path d="M0 0 C0.33 0 0.66 0 1 0 C1.0247636 4.34163015 1.04289015 8.6832226 1.05493164 13.02490234 C1.05995288 14.50114661 1.06677116 15.97738592 1.07543945 17.45361328 C1.08760189 19.57846298 1.09325046 21.70324678 1.09765625 23.828125 C1.10551147 25.7447998 1.10551147 25.7447998 1.11352539 27.70019531 C1.02194632 30.3620936 0.80108514 32.48309582 0 35 C-2.27076842 35.02699725 -4.54162821 35.04639453 -6.8125 35.0625 C-8.70935547 35.07990234 -8.70935547 35.07990234 -10.64453125 35.09765625 C-14 35 -14 35 -17 34 C-17 31.36 -17 28.72 -17 26 C-16.67 26 -16.34 26 -16 26 C-16 27.98 -16 29.96 -16 32 C-14.80375 31.814375 -13.6075 31.62875 -12.375 31.4375 C-8.71716293 30.9688803 -5.62137834 31.18518987 -2 32 C-1.24229215 27.88518795 -0.82844645 23.90659766 -0.68359375 19.7265625 C-0.64169922 18.57285156 -0.59980469 17.41914063 -0.55664062 16.23046875 C-0.51732422 15.04066406 -0.47800781 13.85085937 -0.4375 12.625 C-0.39431641 11.41199219 -0.35113281 10.19898438 -0.30664062 8.94921875 C-0.20094487 5.96624968 -0.09884679 2.98320258 0 0 Z " fill="#D8959D" transform="translate(202,134)"/>
<path d="M0 0 C0.99 0 1.98 0 3 0 C4.20272819 2.40545638 4.10071472 3.94996953 4.0625 6.625 C4.05347656 7.44226563 4.04445313 8.25953125 4.03515625 9.1015625 C4.02355469 9.72804688 4.01195312 10.35453125 4 11 C4.66 11.33 5.32 11.66 6 12 C5.34 12 4.68 12 4 12 C3.67 15.63 3.34 19.26 3 23 C2.01 23.33 1.02 23.66 0 24 C0 16.08 0 8.16 0 0 Z " fill="#BAA1A5" transform="translate(0,105)"/>
<path d="M0 0 C2.32809986 3.49214979 2.09395509 4.09328087 1.5 8.0625 C0.84203084 13.73464796 1.55875466 18.50897435 3 24 C2.01 24 1.02 24 0 24 C0.14168137 25.43791516 0.28851043 26.8753237 0.4375 28.3125 C0.51871094 29.11300781 0.59992188 29.91351563 0.68359375 30.73828125 C0.95265693 33.16087179 0.95265693 33.16087179 2 36 C1.34 36 0.68 36 0 36 C0 36.66 0 37.32 0 38 C-0.99 38 -1.98 38 -3 38 C-3 34.7 -3 31.4 -3 28 C-2.34 28 -1.68 28 -1 28 C-1.00523682 27.18732666 -1.01047363 26.37465332 -1.01586914 25.53735352 C-1.03656994 21.87907678 -1.04963803 18.22081233 -1.0625 14.5625 C-1.07506836 12.6434082 -1.07506836 12.6434082 -1.08789062 10.68554688 C-1.09111328 9.47060547 -1.09433594 8.25566406 -1.09765625 7.00390625 C-1.10289307 5.87799072 -1.10812988 4.7520752 -1.11352539 3.59204102 C-1 1 -1 1 0 0 Z " fill="#B9868C" transform="translate(3,67)"/>
<path d="M0 0 C0.33 0 0.66 0 1 0 C1.33 3.63 1.66 7.26 2 11 C2.33 11 2.66 11 3 11 C2.97679687 12.31355469 2.95359375 13.62710938 2.9296875 14.98046875 C2.91092349 16.71614013 2.89272396 18.45181768 2.875 20.1875 C2.85824219 21.05181641 2.84148438 21.91613281 2.82421875 22.80664062 C2.78961767 27.32208103 2.84432084 30.90081483 5 35 C3.125 34.875 3.125 34.875 1 34 C-3.39477514 23.75573321 -1.02186575 10.82082844 0 0 Z " fill="#C4848B" transform="translate(5,125)"/>
<path d="M0 0 C1.99965715 0.03703069 4.00056665 0.04760556 6 0 C6.33 0.99 6.66 1.98 7 3 C-3.23 3 -13.46 3 -24 3 C-24 2.67 -24 2.34 -24 2 C-22.02 2 -20.04 2 -18 2 C-18 1.34 -18 0.68 -18 0 C-12.08994781 -1.9700174 -5.98522566 -1.04090881 0 0 Z " fill="#281B1B" transform="translate(215,175)"/>
<path d="M0 0 C0.33 0 0.66 0 1 0 C1.14271698 21.02550407 0.78867554 41.9889285 0 63 C-0.33 63 -0.66 63 -1 63 C-2.60666308 19.99159787 -2.60666308 19.99159787 0 0 Z " fill="#C45146" transform="translate(83,72)"/>
<path d="M0 0 C0.66 0 1.32 0 2 0 C1.67 13.2 1.34 26.4 1 40 C0.67 40 0.34 40 0 40 C0 29.11 0 18.22 0 7 C-0.66 7 -1.32 7 -2 7 C-2.12117187 7.77085938 -2.24234375 8.54171875 -2.3671875 9.3359375 C-2.53476563 10.33882812 -2.70234375 11.34171875 -2.875 12.375 C-3.03742187 13.37273438 -3.19984375 14.37046875 -3.3671875 15.3984375 C-4 18 -4 18 -6 20 C-6.50368582 13.20024147 -5.09684674 8.08066988 -2 2 C-1.34 1.34 -0.68 0.68 0 0 Z " fill="#C1483F" transform="translate(16,8)"/>
<path d="M0 0 C0.33 0 0.66 0 1 0 C2.25792211 5.85688537 2.18376571 11.66508076 2.1875 17.625 C2.19974609 18.66140625 2.21199219 19.6978125 2.22460938 20.765625 C2.22654297 21.76335938 2.22847656 22.76109375 2.23046875 23.7890625 C2.23457764 24.69350098 2.23868652 25.59793945 2.24291992 26.52978516 C1.98703045 29.13188538 1.3168975 30.76287266 0 33 C-0.33 33 -0.66 33 -1 33 C-1.02920143 28.81251481 -1.04686646 24.62505609 -1.0625 20.4375 C-1.07087891 19.25607422 -1.07925781 18.07464844 -1.08789062 16.85742188 C-1.10392999 11.13136928 -1.0510705 5.63605518 0 0 Z " fill="#F7DBE3" transform="translate(232,30)"/>
<path d="M0 0 C0 3.20768006 -0.59940687 4.21933525 -2 7 C-4.11783299 15.16680697 -4.53457678 23.61013411 -5 32 C-5.99 31.67 -6.98 31.34 -8 31 C-7.97694209 27.66519334 -7.89929215 24.33370869 -7.8125 21 C-7.80669922 20.06542969 -7.80089844 19.13085938 -7.79492188 18.16796875 C-7.55345163 10.49458105 -5.43965793 5.43965793 0 0 Z " fill="#BD8993" transform="translate(10,8)"/>
<path d="M0 0 C0.33 0 0.66 0 1 0 C1.33 5.94 1.66 11.88 2 18 C8.93 18.495 8.93 18.495 16 19 C16 13.06 16 7.12 16 1 C16.33 1 16.66 1 17 1 C17 7.6 17 14.2 17 21 C9.74 21 2.48 21 -5 21 C-5 20.67 -5 20.34 -5 20 C-3.35 20 -1.7 20 0 20 C0 13.4 0 6.8 0 0 Z " fill="#C2828C" transform="translate(83,144)"/>
<path d="M0 0 C2.11427387 2.11427387 2.88742318 3.71650462 4.0625 6.4375 C4.40410156 7.21996094 4.74570313 8.00242188 5.09765625 8.80859375 C5.7993755 10.51276906 6.41719442 12.25158327 7 14 C4.03 14 1.06 14 -2 14 C-2 9.71 -2 5.42 -2 1 C-1.34 0.67 -0.68 0.34 0 0 Z " fill="#E0DCDB" transform="translate(2,164)"/>
<path d="M0 0 C12.19584332 -0.22907956 23.95639339 -0.07201834 36 2 C36.33 1.34 36.66 0.68 37 0 C37.99 0.33 38.98 0.66 40 1 C40 1.99 40 2.98 40 4 C32.52143183 4.21711972 25.56098546 3.90093693 18.2109375 2.51171875 C12.18361318 1.55115977 6.0905152 1.31617429 0 1 C0 0.67 0 0.34 0 0 Z " fill="#F0C5CF" transform="translate(23,1)"/>
<path d="M0 0 C0.33 0 0.66 0 1 0 C0.98839844 0.62648437 0.97679687 1.25296875 0.96484375 1.8984375 C0.95582031 2.71570313 0.94679687 3.53296875 0.9375 4.375 C0.92589844 5.18710938 0.91429687 5.99921875 0.90234375 6.8359375 C0.85533666 9.04937142 0.85533666 9.04937142 2 11 C5.63 11 9.26 11 13 11 C13.33 7.7 13.66 4.4 14 1 C14.33 1 14.66 1 15 1 C15.08086147 2.79093191 15.13912702 4.58289628 15.1875 6.375 C15.23970703 7.87160156 15.23970703 7.87160156 15.29296875 9.3984375 C15.19628906 10.25695312 15.09960938 11.11546875 15 12 C11.2632157 14.49118953 9.25548181 14.2065226 4.8125 14.125 C3.54019531 14.10695312 2.26789063 14.08890625 0.95703125 14.0703125 C-0.50669922 14.03550781 -0.50669922 14.03550781 -2 14 C-1.85923685 12.0412957 -1.7122324 10.08303907 -1.5625 8.125 C-1.48128906 7.03445312 -1.40007812 5.94390625 -1.31640625 4.8203125 C-1 2 -1 2 0 0 Z " fill="#BB3F36" transform="translate(204,155)"/>
<path d="M0 0 C0.99 1.485 0.99 1.485 2 3 C4.33693128 3.326795 4.33693128 3.326795 6.9375 3.125 C10.10792988 2.9849221 11.94706727 2.98235576 15 4 C14.67 3.01 14.34 2.02 14 1 C14.99 1 15.98 1 17 1 C16.67 3.31 16.34 5.62 16 8 C13.70858714 8.05384521 11.41681812 8.09272087 9.125 8.125 C7.21074219 8.15980469 7.21074219 8.15980469 5.2578125 8.1953125 C2 8 2 8 0 6 C-0.125 2.875 -0.125 2.875 0 0 Z " fill="#BE868F" transform="translate(83,166)"/>
<path d="M0 0 C4.95 0.99 4.95 0.99 10 2 C10 2.99 10 3.98 10 5 C12.05270463 3.15811388 12.05270463 3.15811388 13 1 C13.99 1 14.98 1 16 1 C16 2.65 16 4.3 16 6 C10.72 6 5.44 6 0 6 C0 4.02 0 2.04 0 0 Z " fill="#790E0E" transform="translate(100,169)"/>
<path d="M0 0 C1.485 0.99 1.485 0.99 3 2 C2.67 2.33 2.34 2.66 2 3 C1.92680379 5.69654854 1.90757463 8.36691458 1.9375 11.0625 C1.94201172 11.82111328 1.94652344 12.57972656 1.95117188 13.36132812 C1.9629932 15.24091871 1.98092922 17.12046899 2 19 C3.79158489 19.02696365 5.58328473 19.04637917 7.375 19.0625 C8.87160156 19.07990234 8.87160156 19.07990234 10.3984375 19.09765625 C12.98432453 19.18006602 12.98432453 19.18006602 15 18 C15.33 12.39 15.66 6.78 16 1 C16.33 1 16.66 1 17 1 C17 7.6 17 14.2 17 21 C11.39 21 5.78 21 0 21 C0 14.07 0 7.14 0 0 Z " fill="#912423" transform="translate(100,144)"/>
<path d="M0 0 C14.85 0 29.7 0 45 0 C44.67 0.66 44.34 1.32 44 2 C41.03 1.67 38.06 1.34 35 1 C35 1.66 35 2.32 35 3 C31.18269966 3.06697018 27.65751071 3.09862661 23.875 2.53125 C19.10588715 1.87742001 14.36838584 1.64855762 9.5625 1.4375 C8.64017578 1.39431641 7.71785156 1.35113281 6.76757812 1.30664062 C4.51183837 1.20145069 2.25600501 1.09930893 0 1 C0 0.67 0 0.34 0 0 Z " fill="#E1A7B0" transform="translate(24,0)"/>
<path d="M0 0 C0.33 0 0.66 0 1 0 C-0.32571429 21.98857143 -0.32571429 21.98857143 -5 29 C-5 20.09 -5 11.18 -5 2 C-4.67 2 -4.34 2 -4 2 C-3.67 5.3 -3.34 8.6 -3 12 C-2.01 8.04 -1.02 4.08 0 0 Z " fill="#E6BAC3" transform="translate(234,123)"/>
<path d="M0 0 C13.86 0.495 13.86 0.495 28 1 C28 1.33 28 1.66 28 2 C25.03 2 22.06 2 19 2 C18.67 2.99 18.34 3.98 18 5 C16.06215735 4.85879286 14.12473045 4.71187127 12.1875 4.5625 C11.10855469 4.48128906 10.02960938 4.40007812 8.91796875 4.31640625 C6 4 6 4 3 3 C3 2.34 3 1.68 3 1 C2.01 0.67 1.02 0.34 0 0 Z " fill="#C38691" transform="translate(149,168)"/>
<path d="M0 0 C7.59 0 15.18 0 23 0 C23 0.33 23 0.66 23 1 C18.545 1.495 18.545 1.495 14 2 C14 2.66 14 3.32 14 4 C9.38 4 4.76 4 0 4 C0 2.68 0 1.36 0 0 Z " fill="#D098A3" transform="translate(84,166)"/>
<path d="M0 0 C3.63 0 7.26 0 11 0 C11 0.66 11 1.32 11 2 C12.32 1.67 13.64 1.34 15 1 C15.33 1.99 15.66 2.98 16 4 C10.72 4 5.44 4 0 4 C0 2.68 0 1.36 0 0 Z " fill="#781315" transform="translate(67,170)"/>
<path d="M0 0 C2.12472576 -0.05386629 4.24983652 -0.09273071 6.375 -0.125 C7.55835938 -0.14820313 8.74171875 -0.17140625 9.9609375 -0.1953125 C13 0 13 0 15 2 C13 4 13 4 9.9609375 4.1953125 C8.77757812 4.17210937 7.59421875 4.14890625 6.375 4.125 C5.18648437 4.10695312 3.99796875 4.08890625 2.7734375 4.0703125 C1.85820313 4.04710937 0.94296875 4.02390625 0 4 C0 2.68 0 1.36 0 0 Z " fill="#D39CA9" transform="translate(50,166)"/>
<path d="M0 0 C0.33 0 0.66 0 1 0 C1.20956539 13.01633924 0.57575125 25.99965929 0 39 C-0.33 39 -0.66 39 -1 39 C-1.19473863 35.05365635 -1.37301774 31.10691923 -1.53710938 27.15917969 C-1.62313173 25.16824011 -1.72158482 23.17784999 -1.8203125 21.1875 C-2.11839611 13.80993067 -1.94532026 7.14689164 0 0 Z " fill="#E3A1A7" transform="translate(169,118)"/>
<path d="M0 0 C3.63 0 7.26 0 11 0 C11.33 1.32 11.66 2.64 12 4 C6.39 4 0.78 4 -5 4 C-5.33 3.34 -5.66 2.68 -6 2 C-4.02 1.67 -2.04 1.34 0 1 C0 0.67 0 0.34 0 0 Z " fill="#F1C6CD" transform="translate(91,3)"/>
<path d="M0 0 C0.33 0 0.66 0 1 0 C1 5.28 1 10.56 1 16 C-4.28 16 -9.56 16 -15 16 C-15 15.67 -15 15.34 -15 15 C-14.09507813 14.96132812 -14.09507813 14.96132812 -13.171875 14.921875 C-7.89464661 14.59668017 -7.89464661 14.59668017 -3.4375 11.9375 C-2.963125 11.298125 -2.48875 10.65875 -2 10 C-1.34 10.33 -0.68 10.66 0 11 C0 7.37 0 3.74 0 0 Z " fill="#C88892" transform="translate(133,150)"/>
<path d="M0 0 C5.61 0 11.22 0 17 0 C17 0.99 17 1.98 17 3 C11.39 3 5.78 3 0 3 C0 2.01 0 1.02 0 0 Z " fill="#B62F27" transform="translate(136,0)"/>
<path d="M0 0 C5.61 0 11.22 0 17 0 C17 0.99 17 1.98 17 3 C11.39 3 5.78 3 0 3 C0 2.01 0 1.02 0 0 Z " fill="#D9939F" transform="translate(119,0)"/>
<path d="M0 0 C0.33 0 0.66 0 1 0 C1 2.97 1 5.94 1 9 C-6.59 9 -14.18 9 -22 9 C-22 8.67 -22 8.34 -22 8 C-19.69 8 -17.38 8 -15 8 C-15 7.34 -15 6.68 -15 6 C-10.38 6 -5.76 6 -1 6 C-0.67 4.02 -0.34 2.04 0 0 Z " fill="#D08E98" transform="translate(167,158)"/>
<path d="M0 0 C3.3 0 6.6 0 10 0 C10 0.99 10 1.98 10 3 C13.3 2.67 16.6 2.34 20 2 C20.33 2.66 20.66 3.32 21 4 C18.06243881 4.0269501 15.12512445 4.04681474 12.1875 4.0625 C11.35412109 4.07087891 10.52074219 4.07925781 9.66210938 4.08789062 C8.45844727 4.09272461 8.45844727 4.09272461 7.23046875 4.09765625 C6.12288208 4.10551147 6.12288208 4.10551147 4.99291992 4.11352539 C3 4 3 4 0 3 C0 2.01 0 1.02 0 0 Z " fill="#BA534A" transform="translate(170,0)"/>
<path d="M0 0 C5.28 0 10.56 0 16 0 C16 0.99 16 1.98 16 3 C10.72 3 5.44 3 0 3 C0 2.01 0 1.02 0 0 Z " fill="#912223" transform="translate(103,0)"/>
<path d="M0 0 C2.97 0 5.94 0 9 0 C9 1.65 9 3.3 9 5 C6.03 5 3.06 5 0 5 C0 3.35 0 1.7 0 0 Z " fill="#791918" transform="translate(168,170)"/>
<path d="M0 0 C1.65 0.33 3.3 0.66 5 1 C5 1.66 5 2.32 5 3 C9.62 3 14.24 3 19 3 C17.68 3.33 16.36 3.66 15 4 C14.67 5.32 14.34 6.64 14 8 C14 6.68 14 5.36 14 4 C11.91631462 4.31014392 9.83306332 4.6232052 7.75 4.9375 C6.00976562 5.19853516 6.00976562 5.19853516 4.234375 5.46484375 C1.76893039 5.8727736 -0.59424562 6.33901303 -3 7 C-2.505 6.401875 -2.01 5.80375 -1.5 5.1875 C0.28276418 3.02970006 0.28276418 3.02970006 0 0 Z " fill="#DDA0AB" transform="translate(20,1)"/>
<path d="M0 0 C1.32 0.33 2.64 0.66 4 1 C3.505 2.051875 3.01 3.10375 2.5 4.1875 C1.17220212 7.25452609 0.69284994 9.62134936 1 13 C0.01 13.33 -0.98 13.66 -2 14 C-2.05410687 12.22950311 -2.09284119 10.45853151 -2.125 8.6875 C-2.14820313 7.70136719 -2.17140625 6.71523437 -2.1953125 5.69921875 C-2 3 -2 3 0 0 Z " fill="#E2B0BA" transform="translate(222,154)"/>
<path d="M0 0 C0.33 0 0.66 0 1 0 C1.07420211 4.07502794 1.1286257 8.14979392 1.16479492 12.2253418 C1.17987397 13.61147919 1.2003405 14.99756894 1.22631836 16.38354492 C1.26273716 18.37658146 1.27813018 20.36996723 1.29296875 22.36328125 C1.3086792 23.56251221 1.32438965 24.76174316 1.34057617 25.99731445 C1 29 1 29 -0.51831055 30.91479492 C-1.00726807 31.2729126 -1.49622559 31.63103027 -2 32 C-1.93433838 31.41299316 -1.86867676 30.82598633 -1.80102539 30.22119141 C-1.09641946 23.60993024 -0.70796412 17.01688927 -0.4375 10.375 C-0.37272461 8.86873047 -0.37272461 8.86873047 -0.30664062 7.33203125 C-0.20190141 4.88811617 -0.09972744 2.44412383 0 0 Z " fill="#321D21" transform="translate(236,100)"/>
<path d="M0 0 C4.62 0 9.24 0 14 0 C14 0.99 14 1.98 14 3 C9.38 3 4.76 3 0 3 C0 2.01 0 1.02 0 0 Z " fill="#D4898A" transform="translate(180,0)"/>
<path d="M0 0 C0.33 0 0.66 0 1 0 C1 7.92 1 15.84 1 24 C0.67 24 0.34 24 0 24 C-0.33 19.38 -0.66 14.76 -1 10 C-1.66 10 -2.32 10 -3 10 C-2.67 8.35 -2.34 6.7 -2 5 C-1.34 5 -0.68 5 0 5 C0 3.35 0 1.7 0 0 Z " fill="#9C7176" transform="translate(3,123)"/>
<path d="M0 0 C0 0.66 0 1.32 0 2 C1.1446875 1.505 1.1446875 1.505 2.3125 1 C5 0 5 0 8 0 C8 1.32 8 2.64 8 4 C6.41705218 4.05437607 4.83355744 4.09296271 3.25 4.125 C2.36828125 4.14820313 1.4865625 4.17140625 0.578125 4.1953125 C-2.1135858 3.99139502 -3.69904974 3.36551721 -6 2 C-3 0 -3 0 0 0 Z " fill="#EFC5CE" transform="translate(146,4)"/>
<path d="M0 0 C3.63 0 7.26 0 11 0 C10.67 1.65 10.34 3.3 10 5 C6.42195344 5.19878036 4.00791911 5.04108797 1 3 C0.67 2.01 0.34 1.02 0 0 Z " fill="#CA969E" transform="translate(204,170)"/>
<path d="M0 0 C0.66 2.97 1.32 5.94 2 9 C1.34 9 0.68 9 0 9 C0 9.66 0 10.32 0 11 C-0.99 11 -1.98 11 -3 11 C-3 7.7 -3 4.4 -3 1 C-1 0 -1 0 0 0 Z " fill="#9D7E82" transform="translate(3,94)"/>
<path d="M0 0 C4.62 0 9.24 0 14 0 C14 0.99 14 1.98 14 3 C4.58997722 3.3690205 4.58997722 3.3690205 0 1 C0 0.67 0 0.34 0 0 Z " fill="#BA7F87" transform="translate(119,171)"/>
<path d="M0 0 C0.33 0 0.66 0 1 0 C1.33 4.62 1.66 9.24 2 14 C1.01 14.33 0.02 14.66 -1 15 C-1.02685412 12.68756208 -1.04632841 10.3750373 -1.0625 8.0625 C-1.07410156 6.77472656 -1.08570312 5.48695313 -1.09765625 4.16015625 C-1 1 -1 1 0 0 Z " fill="#8F7A78" transform="translate(1,150)"/>
<path d="M0 0 C0 0.66 0 1.32 0 2 C-5.61 2 -11.22 2 -17 2 C-11.35612606 -1.76258262 -6.43392672 -0.91112252 0 0 Z " fill="#AB6B76" transform="translate(167,174)"/>
<path d="M0 0 C2.1640625 -0.29296875 2.1640625 -0.29296875 4.625 -0.1875 C5.44226562 -0.16042969 6.25953125 -0.13335937 7.1015625 -0.10546875 C8.04128906 -0.05326172 8.04128906 -0.05326172 9 0 C9.33 0.99 9.66 1.98 10 3 C6.04 3 2.08 3 -2 3 C-1.34 2.01 -0.68 1.02 0 0 Z " fill="#931817" transform="translate(39,169)"/>
<path d="M0 0 C0 3 0 3 -0.625 6.5 C-1.38944551 10.10936483 -1.38944551 10.10936483 1 13 C0.01 13 -0.98 13 -2 13 C-2.33 12.34 -2.66 11.68 -3 11 C-5.01669827 9.86649466 -5.01669827 9.86649466 -7 9 C-5.625 7.5 -5.625 7.5 -4 6 C-3.34 6 -2.68 6 -2 6 C-1.855625 5.195625 -1.71125 4.39125 -1.5625 3.5625 C-1 1 -1 1 0 0 Z " fill="#3E2E31" transform="translate(224,165)"/>
<path d="M0 0 C1.65 0 3.3 0 5 0 C4.67 1.98 4.34 3.96 4 6 C2.02 6 0.04 6 -2 6 C-1.34 4.02 -0.68 2.04 0 0 Z " fill="#F0C5CC" transform="translate(124,3)"/>
<path d="M0 0 C1.75570312 0.01353516 1.75570312 0.01353516 3.546875 0.02734375 C4.43890625 0.03894531 5.3309375 0.05054687 6.25 0.0625 C6.25 0.3925 6.25 0.7225 6.25 1.0625 C3.94 1.3925 1.63 1.7225 -0.75 2.0625 C-0.75 2.3925 -0.75 2.7225 -0.75 3.0625 C-4.05 3.0625 -7.35 3.0625 -10.75 3.0625 C-10.75 2.4025 -10.75 1.7425 -10.75 1.0625 C-7.14006828 -0.07230527 -3.7657673 -0.03765767 0 0 Z " fill="#E9B0BB" transform="translate(93.75,1.9375)"/>
<path d="M0 0 C0 0.99 0 1.98 0 3 C-5.28 3 -10.56 3 -16 3 C-13.02048117 1.01365411 -11.96868376 0.68517525 -8.5625 0.375 C-7.80066406 0.30023437 -7.03882812 0.22546875 -6.25390625 0.1484375 C-4.17319114 0.011406 -2.08522253 0 0 0 Z " fill="#F1C8D2" transform="translate(121,4)"/>
<path d="M0 0 C1.98 0 3.96 0 6 0 C6 0.99 6 1.98 6 3 C7.32 3.33 8.64 3.66 10 4 C8.68 4 7.36 4 6 4 C6 4.66 6 5.32 6 6 C4.35 6 2.7 6 1 6 C1.66 5.67 2.32 5.34 3 5 C2.65213292 3.02463255 2.65213292 3.02463255 2 1 C1.34 0.67 0.68 0.34 0 0 Z " fill="#AC4135" transform="translate(191,171)"/>
<path d="M0 0 C0 3.48961209 -0.90379374 5.11480295 -2.5 8.1875 C-2.9640625 9.08855469 -3.428125 9.98960938 -3.90625 10.91796875 C-4.2671875 11.60503906 -4.628125 12.29210938 -5 13 C-5.66 12.67 -6.32 12.34 -7 12 C-5.63855967 6.80177328 -3.53269829 3.90456127 0 0 Z " fill="#A87580" transform="translate(10,8)"/>
<path d="M0 0 C1.96793869 3.67778706 2.70055944 6.80783221 3 11 C2.0625 13.4375 2.0625 13.4375 1 15 C-1.42945561 11.35581659 -1.0828781 10.07076636 -0.625 5.8125 C-0.51414063 4.72582031 -0.40328125 3.63914063 -0.2890625 2.51953125 C-0.19367188 1.68808594 -0.09828125 0.85664063 0 0 Z " fill="#E3AFB7" transform="translate(227,142)"/>
<path d="M0 0 C3.63 0 7.26 0 11 0 C11 0.66 11 1.32 11 2 C10.34 2 9.68 2 9 2 C8.67 2.66 8.34 3.32 8 4 C5.23723823 3.47731534 2.6739124 2.89130413 0 2 C0 1.34 0 0.68 0 0 Z " fill="#D09099" transform="translate(206,0)"/>
<path d="M0 0 C4.29 0.33 8.58 0.66 13 1 C13 1.99 13 2.98 13 4 C8.28596212 3.52060632 4.33420699 3.03165952 0 1 C0 0.67 0 0.34 0 0 Z " fill="#AD7E86" transform="translate(19,168)"/>
<path d="M0 0 C1.95582488 2.93373731 3.56224304 5.78216298 5 9 C4.67 9.66 4.34 10.32 4 11 C3.01 10.67 2.02 10.34 1 10 C0.234375 7.96875 0.234375 7.96875 -0.25 5.5 C-0.42015625 4.6853125 -0.5903125 3.870625 -0.765625 3.03125 C-0.84296875 2.3609375 -0.9203125 1.690625 -1 1 C-0.67 0.67 -0.34 0.34 0 0 Z " fill="#B67C83" transform="translate(5,149)"/>
<path d="M0 0 C0.99 0 1.98 0 3 0 C3 0.66 3 1.32 3 2 C5.64 1.34 8.28 0.68 11 0 C11 0.99 11 1.98 11 3 C6.71 3 2.42 3 -2 3 C-1.34 2.01 -0.68 1.02 0 0 Z " fill="#F3C5CE" transform="translate(160,4)"/>
<path d="M0 0 C2.31 0 4.62 0 7 0 C6.67 0.99 6.34 1.98 6 3 C2.04 3 -1.92 3 -6 3 C-6 2.67 -6 2.34 -6 2 C-4.02 2 -2.04 2 0 2 C0 1.34 0 0.68 0 0 Z " fill="#1F1310" transform="translate(197,175)"/>
<path d="M0 0 C0.66 0 1.32 0 2 0 C2.33 1.32 2.66 2.64 3 4 C-0.06533164 5.53266582 -3.26754272 5.10276471 -6.625 5.0625 C-7.33140625 5.05798828 -8.0378125 5.05347656 -8.765625 5.04882812 C-10.51045275 5.03703875 -12.255237 5.01910324 -14 5 C-14 4.67 -14 4.34 -14 4 C-7.565 3.505 -7.565 3.505 -1 3 C-0.67 2.01 -0.34 1.02 0 0 Z " fill="#C76D6B" transform="translate(191,172)"/>
<path d="M0 0 C5.61 0 11.22 0 17 0 C13 3 13 3 10 3 C10 2.34 10 1.68 10 1 C6.7 1 3.4 1 0 1 C0 0.67 0 0.34 0 0 Z " fill="#DC9EA8" transform="translate(136,3)"/>
<path d="M0 0 C0.33 0.99 0.66 1.98 1 3 C-5.0546875 3.1953125 -5.0546875 3.1953125 -7 3 C-7.66 2.34 -8.32 1.68 -9 1 C-5.8035914 -0.06546953 -3.34252724 -0.07427838 0 0 Z " fill="#2B2223" transform="translate(221,175)"/>
<path d="M0 0 C1.32 0 2.64 0 4 0 C4 1.65 4 3.3 4 5 C1.69 4.67 -0.62 4.34 -3 4 C-2.01 3.67 -1.02 3.34 0 3 C0 2.01 0 1.02 0 0 Z " fill="#CE5D50" transform="translate(194,0)"/>
<path d="M0 0 C2.64 0 5.28 0 8 0 C8 0.99 8 1.98 8 3 C5.36 3 2.72 3 0 3 C0 2.01 0 1.02 0 0 Z " fill="#9C1D1C" transform="translate(170,0)"/>
<path d="M0 0 C0 0.99 0 1.98 0 3 C-1.8125 4.75 -1.8125 4.75 -4 6 C-4.99 5.67 -5.98 5.34 -7 5 C-6.34 5 -5.68 5 -5 5 C-5.33 4.01 -5.66 3.02 -6 2 C-4.02 1.34 -2.04 0.68 0 0 Z " fill="#E8BEC7" transform="translate(219,170)"/>
<path d="M0 0 C0.33 0 0.66 0 1 0 C1.06058594 0.60328125 1.12117187 1.2065625 1.18359375 1.828125 C1.26738281 2.62734375 1.35117188 3.4265625 1.4375 4.25 C1.55931641 5.43335938 1.55931641 5.43335938 1.68359375 6.640625 C1.97634993 8.82364639 2.42064419 10.8773182 3 13 C-0.875 11.25 -0.875 11.25 -2 9 C-1.34 9 -0.68 9 0 9 C0 6.03 0 3.06 0 0 Z " fill="#D89CA3" transform="translate(219,158)"/>
<path d="M0 0 C4.05606165 0.46800711 7.46588679 0.87953208 11 3 C7.75 3.75 7.75 3.75 4 4 C1.5625 2.0625 1.5625 2.0625 0 0 Z " fill="#CF9FA7" transform="translate(11,163)"/>
<path d="M0 0 C2.48229236 2.48229236 2.6972296 3.51814041 3 7 C2.49716366 9.73766453 1.77266318 12.31840425 1 15 C0.67 15 0.34 15 0 15 C0 10.05 0 5.1 0 0 Z " fill="#251718" transform="translate(3,151)"/>
<path d="M0 0 C2.1875 0.3125 2.1875 0.3125 4 1 C4 1.66 4 2.32 4 3 C2.02 3.99 0.04 4.98 -2 6 C-2.33 5.01 -2.66 4.02 -3 3 C-1.75 1.4375 -1.75 1.4375 0 0 Z " fill="#E6B9C2" transform="translate(18,2)"/>
<path d="M0 0 C2.52282655 2.52282655 5 5.30389793 5 9 C3.68 8.67 2.36 8.34 1 8 C0.34 5.69 -0.32 3.38 -1 1 C-0.67 0.67 -0.34 0.34 0 0 Z " fill="#B5B1B1" transform="translate(4,169)"/>
<path d="M0 0 C1.09651823 3.41139003 0.94215473 6.20655581 0.5625 9.75 C0.40974609 11.22726563 0.40974609 11.22726563 0.25390625 12.734375 C0.12822266 13.85585938 0.12822266 13.85585938 0 15 C-0.33 15 -0.66 15 -1 15 C-1.66 12.36 -2.32 9.72 -3 7 C-2.34 7 -1.68 7 -1 7 C-0.67 4.69 -0.34 2.38 0 0 Z " fill="#EAAAB3" transform="translate(10,16)"/>
<path d="M0 0 C0.66 1.32 1.32 2.64 2 4 C0.68 5.32 -0.64 6.64 -2 8 C-2 5.69 -2 3.38 -2 1 C-1.34 0.67 -0.68 0.34 0 0 Z " fill="#D0C6C6" transform="translate(2,164)"/>
<path d="M0 0 C3.3 0 6.6 0 10 0 C9.34 0.66 8.68 1.32 8 2 C6.33333333 2 4.66666667 2 3 2 C2.01 2.66 1.02 3.32 0 4 C0 2.68 0 1.36 0 0 Z " fill="#C3372B" transform="translate(171,9)"/>
<path d="M0 0 C0.33 0 0.66 0 1 0 C1 2.31 1 4.62 1 7 C-0.65 7 -2.3 7 -4 7 C-2.68 4.69 -1.36 2.38 0 0 Z " fill="#A4979A" transform="translate(236,171)"/>
<path d="M0 0 C0.99 1.485 0.99 1.485 2 3 C4.05003955 4.19232613 4.05003955 4.19232613 6 5 C5.34 5 4.68 5 4 5 C4 5.66 4 6.32 4 7 C2.68 6.67 1.36 6.34 0 6 C0 4.02 0 2.04 0 0 Z " fill="#C1868C" transform="translate(83,166)"/>
<path d="M0 0 C2.97 0.33 5.94 0.66 9 1 C9 1.99 9 2.98 9 4 C6.03 3.505 6.03 3.505 3 3 C3 2.34 3 1.68 3 1 C2.01 0.67 1.02 0.34 0 0 Z " fill="#BC838A" transform="translate(149,168)"/>
<path d="M0 0 C1.65 0 3.3 0 5 0 C4.67 1.32 4.34 2.64 4 4 C3.01 4 2.02 4 1 4 C0.67 4.66 0.34 5.32 0 6 C0 4.02 0 2.04 0 0 Z " fill="#B8463F" transform="translate(32,166)"/>
<path d="M0 0 C0 0.66 0 1.32 0 2 C-4.455 2.495 -4.455 2.495 -9 3 C-9 2.34 -9 1.68 -9 1 C-5.92677456 0.08941469 -3.19902639 -0.08886184 0 0 Z " fill="#D9AAB0" transform="translate(27,165)"/>
<path d="M0 0 C2.31 0 4.62 0 7 0 C6.01 0.33 5.02 0.66 4 1 C4 1.66 4 2.32 4 3 C3.34 3 2.68 3 2 3 C2 3.66 2 4.32 2 5 C1.34 5 0.68 5 0 5 C0 3.35 0 1.7 0 0 Z " fill="#E7B4BC" transform="translate(129,3)"/>
<path d="M0 0 C1.65 0.33 3.3 0.66 5 1 C5 2.32 5 3.64 5 5 C2.69 4.34 0.38 3.68 -2 3 C-1.34 2.01 -0.68 1.02 0 0 Z " fill="#E2B4BA" transform="translate(215,4)"/>
<path d="M0 0 C1.32 0.33 2.64 0.66 4 1 C4 1.66 4 2.32 4 3 C4.99 3.33 5.98 3.66 7 4 C4.69 4 2.38 4 0 4 C0 2.68 0 1.36 0 0 Z " fill="#A65A5E" transform="translate(201,170)"/>
<path d="M0 0 C1.65 0 3.3 0 5 0 C5 0.66 5 1.32 5 2 C4.01 2.66 3.02 3.32 2 4 C1.67 4.66 1.34 5.32 1 6 C0.34 6 -0.32 6 -1 6 C-0.67 4.02 -0.34 2.04 0 0 Z " fill="#891411" transform="translate(111,168)"/>
<path d="M0 0 C0.66 1.32 1.32 2.64 2 4 C1.67 4.99 1.34 5.98 1 7 C1.99 7.66 2.98 8.32 4 9 C2.35 9 0.7 9 -1 9 C-0.67 6.03 -0.34 3.06 0 0 Z " fill="#94201A" transform="translate(135,156)"/>
<path d="M0 0 C1.32 0.33 2.64 0.66 4 1 C2.515 4.465 2.515 4.465 1 8 C0.67 8 0.34 8 0 8 C0 5.36 0 2.72 0 0 Z " fill="#EABDC7" transform="translate(222,154)"/>
<path d="M0 0 C2.01920337 1.30406884 4.01924973 2.63823419 6 4 C6 4.33 6 4.66 6 5 C3.69 5 1.38 5 -1 5 C-0.67 3.35 -0.34 1.7 0 0 Z " fill="#272426" transform="translate(18,173)"/>
</svg>
