<?xml version="1.0" encoding="UTF-8"?>
<svg version="1.1" xmlns="http://www.w3.org/2000/svg" width="230" height="127">
<path d="M0 0 C75.9 0 151.8 0 230 0 C230 41.91 230 83.82 230 127 C154.1 127 78.2 127 0 127 C0 85.09 0 43.18 0 0 Z " fill="#E3AAAF" transform="translate(0,0)"/>
<path d="M0 0 C2.77329699 -0.29427321 5.32343285 -0.39109697 8.09902954 -0.36076355 C9.36953582 -0.36460846 9.36953582 -0.36460846 10.6657089 -0.36853105 C13.52033071 -0.37349527 16.37443036 -0.35693279 19.22900391 -0.34057617 C21.26868172 -0.33973047 23.30836044 -0.34020393 25.34803772 -0.34190369 C30.89947447 -0.34276728 36.45071825 -0.32508269 42.00211 -0.30418181 C47.79838372 -0.28547556 53.59466145 -0.28366936 59.39096069 -0.28010559 C70.37342839 -0.27076729 81.3558069 -0.2461294 92.33823526 -0.21605712 C104.83863586 -0.18256857 117.33904065 -0.16604107 129.83947492 -0.15097082 C155.55969946 -0.11958138 181.27984474 -0.06678627 207 0 C207.04648034 12.57034864 207.0819487 25.1406766 207.10362434 37.7110939 C207.11403112 43.54896343 207.12813329 49.38677385 207.15087891 55.22460938 C207.17271841 60.86562424 207.18459195 66.50658251 207.18975449 72.14763641 C207.19343038 74.29244629 207.20060813 76.43725331 207.21146011 78.58203888 C207.34126976 105.31746047 207.34126976 105.31746047 204 112 C203.34 112 202.68 112 202 112 C202 106.72 202 101.44 202 96 C201.8453125 99.465 201.8453125 99.465 201.6875 103 C201.340146 108.83642819 200.76009508 113.78648707 198 119 C196.02 119.99 196.02 119.99 194 121 C193.67 83.71 193.34 46.42 193 8 C189.83754459 6.9458482 187.13051782 6.68724328 183.8125 6.4375 C182.72582031 6.35371094 181.63914063 6.26992187 180.51953125 6.18359375 C179.68808594 6.12300781 178.85664063 6.06242188 178 6 C178.00222061 7.08898087 178.00444122 8.17796173 178.00672913 9.29994202 C178.02718516 19.6676575 178.04207869 30.03536878 178.05181217 40.40310001 C178.05698478 45.73057472 178.06397743 51.05803287 178.07543945 56.38549805 C178.08647174 61.5467539 178.0923189 66.70799404 178.09487724 71.86926079 C178.0966955 73.81796961 178.10024367 75.76667777 178.10573006 77.71537971 C178.14382803 91.83591806 177.72319527 105.89793293 177 120 C174.2642373 120.9119209 172.34374032 121.22244822 169.5 121.3125 C168.33984375 121.36857422 168.33984375 121.36857422 167.15625 121.42578125 C165 121 165 121 163.39015484 119.26445389 C161.81077857 116.69177303 161.61834246 115.3335997 161.60127258 112.34295654 C161.58873444 111.41190094 161.57619629 110.48084534 161.5632782 109.52157593 C161.56471329 108.50737579 161.56614838 107.49317566 161.56762695 106.44824219 C161.55233948 104.83802689 161.55233948 104.83802689 161.53674316 103.19528198 C161.50654006 99.6457604 161.49733581 96.09650837 161.48828125 92.546875 C161.47144004 90.08635557 161.45329056 87.62584477 161.43388367 85.16534424 C161.38631726 78.6880971 161.35655069 72.21088496 161.33044434 65.73352051 C161.30067243 59.12436002 161.25413052 52.51532019 161.20898438 45.90625 C161.12287562 32.93756553 161.05499452 19.96885181 161 7 C159.16725525 7.00380676 159.16725525 7.00380676 157.29748535 7.00769043 C147.89341888 7.02136761 138.49605162 6.98526398 129.09375 6.78125 C127.99575073 6.75905396 126.89775146 6.73685791 125.76647949 6.71398926 C122.34427973 6.64446265 118.9221414 6.57233637 115.5 6.5 C112.02071979 6.42824737 108.541429 6.35703205 105.06213379 6.28601074 C102.91750984 6.24204424 100.77289661 6.19755151 98.6282959 6.15246582 C97.18903748 6.12243469 97.18903748 6.12243469 95.72070312 6.09179688 C94.45764343 6.06514954 94.45764343 6.06514954 93.16906738 6.03796387 C91.44626231 6.00781066 89.72306893 6 88 6 C84.35312315 5.87943248 80.70798966 5.71896881 77.0625 5.5625 C76.06025391 5.52318359 75.05800781 5.48386719 74.02539062 5.44335938 C73.05923828 5.40146484 72.09308594 5.35957031 71.09765625 5.31640625 C70.21601807 5.27974854 69.33437988 5.24309082 68.42602539 5.20532227 C66 5 66 5 63.74389648 4.41772461 C63.16841064 4.27987549 62.5929248 4.14202637 62 4 C61.67 4.33 61.34 4.66 61 5 C59.50522252 5.02937669 58.00896862 4.98580879 56.515625 4.9140625 C55.04391846 4.84916626 55.04391846 4.84916626 53.54248047 4.78295898 C52.45596191 4.73083252 51.36944336 4.67870605 50.25 4.625 C38.4602898 4.11082023 26.67164529 3.744731 14.875 3.4375 C14.03602173 3.41544495 13.19704346 3.39338989 12.3326416 3.3706665 C7.55514466 3.24510303 2.77760016 3.12157042 -2 3 C-1.34 2.01 -0.68 1.02 0 0 Z " fill="#EECAD2" transform="translate(23,0)"/>
<path d="M0 0 C7.59 0 15.18 0 23 0 C22.67 0.66 22.34 1.32 22 2 C35.365 2.495 35.365 2.495 49 3 C49 40.95 49 78.9 49 118 C43.39 118 37.78 118 32 118 C31.32828307 113.29798147 30.87410988 109.32999177 30.87060547 104.67382812 C30.86593765 102.84950508 30.86593765 102.84950508 30.86117554 100.98832703 C30.86315948 99.68249161 30.86514343 98.37665619 30.8671875 97.03125 C30.86617139 95.64374261 30.86483167 94.25623543 30.8631897 92.86872864 C30.8605031 89.17363021 30.86492923 85.4785741 30.87142944 81.7834816 C30.87499826 79.50111007 30.87661765 77.21874482 30.87768555 74.93637085 C30.89126793 51.61188705 31.17429228 28.3114984 32 5 C24.08 5.495 24.08 5.495 16 6 C16 42.96 16 79.92 16 118 C21.28 118.33 26.56 118.66 32 119 C32 121.64 32 124.28 32 127 C21.44 127 10.88 127 0 127 C0 85.09 0 43.18 0 0 Z " fill="#CF9CA4" transform="translate(0,0)"/>
<path d="M0 0 C1.91635217 -0.05423638 3.83314925 -0.09289963 5.75 -0.125 C7.35101563 -0.15980469 7.35101563 -0.15980469 8.984375 -0.1953125 C12 0 12 0 16 2 C16 39.29 16 76.58 16 115 C22.27937679 108.72062321 22.33545292 103.08218774 22.625 94.625 C22.66367188 93.69816406 22.70234375 92.77132812 22.7421875 91.81640625 C22.83587591 89.5444623 22.92159348 87.27251404 23 85 C23.33 85 23.66 85 24 85 C25.80991127 91.78716727 25.43609916 99.17852898 24 106 C24.66 106 25.32 106 26 106 C26.66 101.38 27.32 96.76 28 92 C28.33 92 28.66 92 29 92 C29 101.57 29 111.14 29 121 C7.88 121 -13.24 121 -35 121 C-35 120.34 -35 119.68 -35 119 C-23.78 119 -12.56 119 -1 119 C-1.00523682 116.60314941 -1.01047363 114.20629883 -1.01586914 111.73681641 C-1.03271812 103.66246312 -1.04359327 95.58810887 -1.05181217 87.51374245 C-1.05694915 82.63610501 -1.06387097 77.75848613 -1.07543945 72.88085938 C-1.13161609 48.56640259 -0.91443404 24.29896017 0 0 Z " fill="#DE553E" transform="translate(201,6)"/>
<path d="M0 0 C0.77214844 0.00902344 1.54429687 0.01804687 2.33984375 0.02734375 C2.90832031 0.03894531 3.47679687 0.05054688 4.0625 0.0625 C5.22506064 15.82857014 5.21747683 31.57297913 5.1875 47.375 C5.18641845 48.72822049 5.18552439 50.08144113 5.18481445 51.43466187 C5.17076513 72.98965539 4.85455262 94.52149741 4.0625 116.0625 C-1.5475 116.0625 -7.1575 116.0625 -12.9375 116.0625 C-13.00429726 90.82519735 -12.82886964 65.5988203 -12.47393799 40.36407471 C-12.41176203 35.90354868 -12.35251771 31.44298361 -12.29296875 26.98242188 C-12.17722053 18.34240902 -12.05843692 9.70244178 -11.9375 1.0625 C-7.92479487 0.438738 -4.06241866 -0.06249875 0 0 Z " fill="#D44B38" transform="translate(179.9375,6.9375)"/>
<path d="M0 0 C5.61 0.33 11.22 0.66 17 1 C17 38.29 17 75.58 17 114 C11.39 114 5.78 114 0 114 C-0.67099334 109.30304665 -1.12588424 105.34036909 -1.12939453 100.68969727 C-1.13250641 99.47666931 -1.13561829 98.26364136 -1.13882446 97.01385498 C-1.13684052 95.7111969 -1.13485657 94.40853882 -1.1328125 93.06640625 C-1.1338287 91.6816607 -1.13516848 90.29691536 -1.1368103 88.91217041 C-1.13949765 85.22256004 -1.13506906 81.53299204 -1.12857056 77.8433876 C-1.12500158 75.56350834 -1.12338226 73.28363537 -1.12231445 71.00375366 C-1.10851429 47.32381898 -0.80964083 23.66753635 0 0 Z " fill="#BF3B2E" transform="translate(32,4)"/>
<path d="M0 0 C5.28 0 10.56 0 16 0 C16 37.29 16 74.58 16 113 C10.39 113 4.78 113 -1 113 C-1.02290818 102.84392082 -1.04111637 92.68785975 -1.05181217 82.53176022 C-1.05695452 77.81209769 -1.06388724 73.09245427 -1.07543945 68.37280273 C-1.12984681 45.55732695 -0.93651898 22.79848301 0 0 Z " fill="#C8402F" transform="translate(100,8)"/>
<path d="M0 0 C5.28 0 10.56 0 16 0 C16 37.29 16 74.58 16 113 C10.39 113 4.78 113 -1 113 C-0.67 75.71 -0.34 38.42 0 0 Z " fill="#CC4230" transform="translate(134,9)"/>
<path d="M0 0 C5.28 0 10.56 0 16 0 C16 36.96 16 73.92 16 112 C10.72 112 5.44 112 0 112 C0 75.04 0 38.08 0 0 Z " fill="#C33A2C" transform="translate(66,7)"/>
<path d="M0 0 C5.28 0 10.56 0 16 0 C16 36.63 16 73.26 16 111 C10.72 111 5.44 111 0 111 C0 74.37 0 37.74 0 0 Z " fill="#E6BEC7" transform="translate(83,8)"/>
<path d="M0 0 C1.76923828 0.01353516 1.76923828 0.01353516 3.57421875 0.02734375 C4.47785156 0.03894531 5.38148437 0.05054688 6.3125 0.0625 C6.47002966 25.04670388 6.20167171 50.01938374 5.8125 75 C5.80054218 75.76778904 5.78858437 76.53557808 5.77626419 77.32663345 C5.62662425 86.90533761 5.47191072 96.48395332 5.3125 106.0625 C4.6525 106.0625 3.9925 106.0625 3.3125 106.0625 C3.02375 106.68125 2.735 107.3 2.4375 107.9375 C1.3125 110.0625 1.3125 110.0625 -0.6875 112.0625 C-4.125 112.5 -4.125 112.5 -7.6875 112.0625 C-10.9807941 108.10133238 -11.10798147 104.28988072 -11.04394531 99.34838867 C-11.04598969 98.58641678 -11.04803406 97.82444489 -11.05014038 97.03938293 C-11.05314683 94.51950023 -11.0346435 92.00027398 -11.015625 89.48046875 C-11.0125609 87.70665142 -11.01068973 85.93283166 -11.00994873 84.15901184 C-11.00534299 80.42907564 -10.99093004 76.69935495 -10.96875 72.96948242 C-10.94085449 68.26186404 -10.92965545 63.55441627 -10.92494965 58.84672356 C-10.9035511 39.56457911 -10.76089603 20.31997369 -9.6875 1.0625 C-6.26517028 -0.07827657 -3.60076783 -0.03565117 0 0 Z " fill="#E3B9C3" transform="translate(25.6875,4.9375)"/>
<path d="M0 0 C5.28 0 10.56 0 16 0 C16.02320341 13.14370823 16.04095584 26.28741156 16.05181217 39.43113613 C16.0570235 45.53474592 16.06408934 51.63834166 16.07543945 57.74194336 C16.08633056 63.63581034 16.09229002 69.52966384 16.09487724 75.42354012 C16.09672028 77.66851069 16.10031925 79.91348055 16.10573006 82.15844536 C16.1130231 85.31064302 16.11398746 88.46278545 16.11352539 91.61499023 C16.11712067 92.53640808 16.12071594 93.45782593 16.12442017 94.40716553 C16.09995759 109.90004241 16.09995759 109.90004241 14 112 C5.26126126 112.29129129 5.26126126 112.29129129 1 111 C-0.17870771 108.64258458 -0.12327537 107.24957602 -0.12025452 104.62142944 C-0.12162918 103.70153732 -0.12300385 102.7816452 -0.12442017 101.83387756 C-0.12082489 100.82183762 -0.11722961 99.80979767 -0.11352539 98.76708984 C-0.11367142 97.7036586 -0.11381744 96.64022736 -0.1139679 95.54457092 C-0.11326919 92.01667263 -0.10547871 88.48882661 -0.09765625 84.9609375 C-0.09579192 82.51998931 -0.09436809 80.07904074 -0.09336853 77.63809204 C-0.08954451 71.20352145 -0.0797152 64.76897332 -0.06866455 58.33441162 C-0.05844795 51.77242334 -0.05387038 45.21043144 -0.04882812 38.6484375 C-0.03809284 25.76561512 -0.02101779 12.88280942 0 0 Z " fill="#EAC6D0" transform="translate(151,9)"/>
<path d="M0 0 C0.97582031 0.00902344 1.95164063 0.01804687 2.95703125 0.02734375 C3.69308594 0.03894531 4.42914063 0.05054688 5.1875 0.0625 C5.21088771 11.39981171 5.22854755 22.73711748 5.23931217 34.07444859 C5.24448411 39.34138924 5.25147546 44.60831313 5.26293945 49.87524414 C5.27397423 54.97814531 5.2798194 60.08103059 5.28237724 65.18394279 C5.28419507 67.11032295 5.28774232 69.03670244 5.29323006 70.96307564 C5.33160884 85.02167679 4.90610666 99.02226801 4.1875 113.0625 C1.4517373 113.9744209 -0.46875968 114.28494822 -3.3125 114.375 C-4.47265625 114.43107422 -4.47265625 114.43107422 -5.65625 114.48828125 C-7.8125 114.0625 -7.8125 114.0625 -9.4247179 112.32458115 C-11.0015559 109.75433938 -11.1835826 108.42906639 -11.17326355 105.44342041 C-11.17738754 104.52077896 -11.18151154 103.59813751 -11.1857605 102.64753723 C-11.17497467 101.64268784 -11.16418884 100.63783844 -11.15307617 99.60253906 C-11.15351425 98.53881577 -11.15395233 97.47509247 -11.15440369 96.37913513 C-11.15231309 92.86194527 -11.12896861 89.34523163 -11.10546875 85.828125 C-11.09987378 83.39003764 -11.09560321 80.95194691 -11.09260559 78.51385498 C-11.08114913 72.0956695 -11.05167477 65.67768756 -11.01849365 59.25958252 C-10.9878102 52.71084344 -10.97410393 46.16207149 -10.95898438 39.61328125 C-10.92680608 26.76293397 -10.87617619 13.91272781 -10.8125 1.0625 C-7.13862505 0.20951624 -3.7677607 -0.04539471 0 0 Z " fill="#F1CFD8" transform="translate(195.8125,6.9375)"/>
<path d="M0 0 C2.47923801 -0.02685095 4.9581884 -0.04676547 7.4375 -0.0625 C8.14455078 -0.07087891 8.85160156 -0.07925781 9.58007812 -0.08789062 C11.38693559 -0.09653588 13.19387603 -0.05220011 15 0 C16.87692591 1.87692591 16.12663676 4.58901284 16.13552856 7.08659363 C16.13350433 7.96189224 16.1314801 8.83719086 16.12939453 9.73901367 C16.13114685 10.65611115 16.13289917 11.57320862 16.13470459 12.51809692 C16.13912694 15.56807312 16.13618257 18.6179919 16.1328125 21.66796875 C16.13348572 23.78208935 16.1344559 25.89620987 16.13571167 28.0103302 C16.1371894 32.4516371 16.13503277 36.89292394 16.13037109 41.33422852 C16.12469113 47.02271478 16.12794132 52.71115368 16.13394356 58.39963818 C16.13756199 62.7705572 16.13640437 67.14146505 16.13381577 71.51238441 C16.13314915 73.60911375 16.13396567 75.7058441 16.13629532 77.80257225 C16.13884091 80.73974655 16.13495354 83.676845 16.12939453 86.61401367 C16.13141876 87.47919113 16.13344299 88.34436859 16.13552856 89.23576355 C16.12021096 93.61484874 15.81079865 97.68089636 15 102 C15 103.093125 15 104.18625 15 105.3125 C15 106.199375 15 107.08625 15 108 C13.18884044 109.81115956 10.38721773 109.38199448 7.9375 109.5625 C6.83277344 109.64628906 5.72804688 109.73007813 4.58984375 109.81640625 C3.73519531 109.87699219 2.88054687 109.93757813 2 110 C-0.09637746 106.8554338 -0.24889851 106.15521392 -0.24050903 102.57710266 C-0.24325836 101.67266418 -0.24600769 100.76822571 -0.24884033 99.83638 C-0.24164978 98.84663681 -0.23445923 97.85689362 -0.22705078 96.8371582 C-0.22734283 95.79308807 -0.22763489 94.74901794 -0.22793579 93.67330933 C-0.22654033 90.21571598 -0.21096877 86.75833704 -0.1953125 83.30078125 C-0.19158314 80.9061037 -0.18873581 78.51142462 -0.18673706 76.116745 C-0.17909453 69.8087443 -0.15944064 63.50083546 -0.1373291 57.19287109 C-0.11688407 50.75815066 -0.10773821 44.32341541 -0.09765625 37.88867188 C-0.0761954 25.25907536 -0.04243544 12.62954256 0 0 Z " fill="#E9C4CD" transform="translate(117,9)"/>
<path d="M0 0 C4.62 0 9.24 0 14 0 C14 36.3 14 72.6 14 110 C12.68 109.67 11.36 109.34 10 109 C8.41788427 108.93451508 6.83329919 108.91421619 5.25 108.9375 C4.05117188 108.95103516 4.05117188 108.95103516 2.828125 108.96484375 C2.22484375 108.97644531 1.6215625 108.98804687 1 109 C-0.60423319 104.04780838 -1.24888408 99.89881588 -1.24291992 94.64135742 C-1.24481827 93.94082748 -1.24671661 93.24029755 -1.24867249 92.51853943 C-1.25235879 90.21406642 -1.24168571 87.90991362 -1.23046875 85.60546875 C-1.22927299 83.97382138 -1.22882462 82.3421733 -1.2290802 80.71052551 C-1.22751767 77.28345441 -1.21926112 73.85648806 -1.20581055 70.42944336 C-1.18907435 66.11882072 -1.18507226 61.80831463 -1.18563652 57.4976635 C-1.18495887 38.30712972 -0.94370801 19.17063009 0 0 Z " fill="#E4BEC7" transform="translate(50,7)"/>
<path d="M0 0 C3.96 0 7.92 0 12 0 C12 0.33 12 0.66 12 1 C8.37 1 4.74 1 1 1 C1 37.96 1 74.92 1 113 C6.28 113 11.56 113 17 113 C17 111.35 17 109.7 17 108 C17.33 108 17.66 108 18 108 C18 109.65 18 111.3 18 113 C23.28 113 28.56 113 34 113 C34 113.66 34 114.32 34 115 C39.61 115 45.22 115 51 115 C51 115.66 51 116.32 51 117 C59.91 116.67 68.82 116.34 78 116 C78 116.33 78 116.66 78 117 C80.97 117.495 80.97 117.495 84 118 C84 118.99 84 119.98 84 121 C45.39 121 6.78 121 -33 121 C-33 118.36 -33 115.72 -33 113 C-38.61 113 -44.22 113 -50 113 C-50 110.69 -50 108.38 -50 106 C-49.649375 106.66 -49.29875 107.32 -48.9375 108 C-47.05407132 110.34201822 -47.05407132 110.34201822 -43.5625 110.5625 C-39.84841057 110.35937081 -39.84841057 110.35937081 -37.75 107.5 C-36.88375 106.2625 -36.88375 106.2625 -36 105 C-35.01 105 -34.02 105 -33 105 C-33 107.31 -33 109.62 -33 112 C-27.39 112 -21.78 112 -16 112 C-15.67 111.34 -15.34 110.68 -15 110 C-15 110.66 -15 111.32 -15 112 C-10.05 112 -5.1 112 0 112 C0 75.04 0 38.08 0 0 Z " fill="#D5939B" transform="translate(65,6)"/>
<path d="M0 0 C2.16311438 1.72400465 2.93875073 2.57555794 3.34057617 5.36010742 C3.32486572 6.26607666 3.30915527 7.1720459 3.29296875 8.10546875 C3.28330078 9.08837891 3.27363281 10.07128906 3.26367188 11.08398438 C3.23853516 12.10814453 3.21339844 13.13230469 3.1875 14.1875 C3.17396484 15.22326172 3.16042969 16.25902344 3.14648438 17.32617188 C3.11111389 19.88463699 3.06175544 22.4420578 3 25 C3.06058594 24.37351562 3.12117187 23.74703125 3.18359375 23.1015625 C3.26738281 22.28429687 3.35117188 21.46703125 3.4375 20.625 C3.55931641 19.40683594 3.55931641 19.40683594 3.68359375 18.1640625 C4 16 4 16 5 14 C5.66 14 6.32 14 7 14 C7.33 13.34 7.66 12.68 8 12 C9.87175301 15.98013141 10.25268938 19.14618323 10.25878906 23.52758789 C10.26509338 24.82986832 10.27139771 26.13214874 10.27789307 27.47389221 C10.27431042 28.89014826 10.27020775 30.30640308 10.265625 31.72265625 C10.26697418 33.18891972 10.26891682 34.65518275 10.27142334 36.1214447 C10.2743692 39.19550839 10.27009867 42.26945573 10.26074219 45.34350586 C10.24941843 49.25121254 10.2558652 53.15864229 10.26788712 57.06633854 C10.27518084 60.0975699 10.2727825 63.12873776 10.26763153 66.15997124 C10.266312 67.59862744 10.2678821 69.0372897 10.27259064 70.4759388 C10.32586225 91.34827549 10.32586225 91.34827549 7 98 C6.34 98 5.68 98 5 98 C5 92.72 5 87.44 5 82 C4.896875 84.31 4.79375 86.62 4.6875 89 C4.34590087 94.82920355 3.71634863 99.77625263 1 105 C-0.485 105.495 -0.485 105.495 -2 106 C-2.02313912 96.51652748 -2.04092312 87.03306464 -2.05181217 77.54957008 C-2.05703755 73.14631785 -2.06412897 68.74308489 -2.07543945 64.33984375 C-2.08628054 60.09290756 -2.09227944 55.84598994 -2.09487724 51.59904099 C-2.09672928 49.97627851 -2.10034568 48.35351708 -2.10573006 46.73076248 C-2.11295668 44.46322661 -2.11399025 42.19576813 -2.11352539 39.92822266 C-2.115746 38.63582672 -2.11796661 37.34343079 -2.12025452 36.01187134 C-2 33 -2 33 -1 31 C-0.57032629 28.03937157 -0.19547425 25.09778293 0.125 22.125 C0.21700684 21.27252686 0.30901367 20.42005371 0.40380859 19.54174805 C1.05078188 12.91746743 0.97485636 6.600041 0 0 Z " fill="#E9CBD3" transform="translate(220,14)"/>
<path d="M0 0 C0.33 36.63 0.66 73.26 1 111 C-4 110 -4 110 -6.25 108 C-10.60637922 100.53192134 -8.79161019 91.12405277 -8.0625 82.875 C-6.72831383 65.97050665 -6.30068091 49.44811553 -8.27490234 32.59008789 C-10.70800018 11.64790662 -10.70800018 11.64790662 -5 3 C-2.39101124 0 -2.39101124 0 0 0 Z " fill="#C1463C" transform="translate(15,7)"/>
<path d="M0 0 C0.33 0 0.66 0 1 0 C1.00331015 0.5547595 1.00662029 1.109519 1.01003075 1.6810894 C1.09118363 15.16772687 1.18337687 28.65424974 1.28752708 42.1407299 C1.33755722 48.66264579 1.38388654 55.18454494 1.421875 61.70654297 C1.45864307 67.99597659 1.5049796 74.28527243 1.55806351 80.57458878 C1.57665267 82.9788281 1.59174373 85.38309701 1.60334396 87.78738022 C1.6201292 91.14469381 1.64914526 94.50168871 1.68115234 97.85888672 C1.68331253 98.86157593 1.68547272 99.86426514 1.68769836 100.89733887 C1.69886185 101.80881683 1.71002533 102.7202948 1.7215271 103.65939331 C1.72982324 104.85127164 1.72982324 104.85127164 1.73828697 106.06722832 C1.8333967 108.23728332 1.8333967 108.23728332 4 110 C6.67813399 110.02207488 6.67813399 110.02207488 9.625 109.625 C10.62789062 109.51414062 11.63078125 109.40328125 12.6640625 109.2890625 C13.43492187 109.19367188 14.20578125 109.09828125 15 109 C14.979375 107.948125 14.95875 106.89625 14.9375 105.8125 C15 102 15 102 15.49107361 99.85371399 C16.22353872 95.74654648 16.17836169 91.69267063 16.20532227 87.52807617 C16.22017166 86.10783646 16.22017166 86.10783646 16.23532104 84.65890503 C16.26684667 81.53695149 16.29165813 78.41498276 16.31640625 75.29296875 C16.33698349 73.12534698 16.35798017 70.95772916 16.37937927 68.79011536 C16.43452036 63.0904968 16.48396475 57.39084251 16.53222656 51.69116211 C16.58249975 45.87285184 16.63815544 40.05459333 16.69335938 34.23632812 C16.80084357 22.82426137 16.90181263 11.41215053 17 0 C22.94 0 28.88 0 35 0 C35.33 36.96 35.66 73.92 36 112 C37.98 111.505 37.98 111.505 40 111 C40.33 111.33 40.66 111.66 41 112 C43.67058851 112.14115161 46.32432238 112.04247107 49 112 C49.33 109.03 49.66 106.06 50 103 C50.33 103 50.66 103 51 103 C51 106.96 51 110.92 51 115 C56.61 115 62.22 115 68 115 C68 102.79 68 90.58 68 78 C68.33 78 68.66 78 69 78 C69.029729 79.33961792 69.029729 79.33961792 69.06005859 80.70629883 C69.13818698 84.02200708 69.22487971 87.33726162 69.31738281 90.65258789 C69.35564866 92.08707068 69.39050581 93.52164865 69.421875 94.95629883 C69.46757862 97.01938878 69.52556193 99.08182495 69.5859375 101.14453125 C69.63306885 103.00621948 69.63306885 103.00621948 69.68115234 104.90551758 C69.77399209 108.16636101 69.77399209 108.16636101 72 111 C72 111.66 72 112.32 72 113 C72.62648438 112.9278125 73.25296875 112.855625 73.8984375 112.78125 C74.71570313 112.6884375 75.53296875 112.595625 76.375 112.5 C77.18710938 112.4071875 77.99921875 112.314375 78.8359375 112.21875 C81 112 81 112 83 112 C83.33 104.41 83.66 96.82 84 89 C84.33 89 84.66 89 85 89 C85.02904864 92.91665108 85.04681517 96.8332744 85.0625 100.75 C85.07087891 101.86117187 85.07925781 102.97234375 85.08789062 104.1171875 C85.09111328 105.18710938 85.09433594 106.25703125 85.09765625 107.359375 C85.10289307 108.34389648 85.10812988 109.32841797 85.11352539 110.34277344 C85 113 85 113 84 117 C87.63 117 91.26 117 95 117 C95 117.33 95 117.66 95 118 C79.98015546 118.17670405 65.00541501 117.62814919 50 117 C50 117.66 50 118.32 50 119 C44.39 119 38.78 119 33 119 C33 118.01 33 117.02 33 116 C30.03 116 27.06 116 24 116 C27 114 27 114 34 114 C34 76.71 34 39.42 34 1 C28.72 1 23.44 1 18 1 C18.00222061 2.20919098 18.00444122 3.41838196 18.00672913 4.66421509 C18.02707877 16.10901361 18.04202881 27.55380842 18.05181217 38.99862099 C18.05701111 44.88124984 18.06405393 50.76386398 18.07543945 56.64648438 C18.08637523 62.33289101 18.09229931 68.01928357 18.09487724 73.70569992 C18.09671235 75.86559648 18.10029549 78.02549234 18.10573006 80.18538284 C18.13305694 91.50535144 18.07789882 102.72082889 17 114 C18.65 114 20.3 114 22 114 C22 114.33 22 114.66 22 115 C14.74 115 7.48 115 0 115 C0 77.05 0 39.1 0 0 Z " fill="#DD8B8A" transform="translate(116,8)"/>
<path d="M0 0 C6.93 0 13.86 0 21 0 C19.02 0.99 19.02 0.99 17 2 C15.62191415 2.90197173 14.26761764 3.84118096 12.9375 4.8125 C12.26589844 5.29332031 11.59429687 5.77414063 10.90234375 6.26953125 C6.45677356 10.31344828 5.38575973 14.798995 4.81640625 20.59375 C4.73620743 21.36424683 4.65600861 22.13474365 4.57337952 22.92858887 C3.49557109 34.74809282 3.82760701 46.6459957 3.9375 58.5 C3.96515891 62.13895078 3.98979094 65.77786303 4.00868225 69.41687012 C4.0209125 71.66275674 4.03848975 73.90862204 4.06199646 76.15441895 C4.06852737 77.15726929 4.07505829 78.16011963 4.08178711 79.19335938 C4.09004013 80.07616577 4.09829315 80.95897217 4.10679626 81.86853027 C4 84 4 84 3 86 C2.67609818 89.86796176 2.67538752 93.74516095 2.625 97.625 C2.58761719 98.69363281 2.55023438 99.76226562 2.51171875 100.86328125 C2.43401454 107.88256192 3.23368872 112.68033957 8 118 C10.50719177 120.26810728 10.50719177 120.26810728 13.1875 121.875 C17.93670886 124.93670886 17.93670886 124.93670886 20 127 C13.4 127 6.8 127 0 127 C0 85.09 0 43.18 0 0 Z " fill="#A77A7F" transform="translate(0,0)"/>
<path d="M0 0 C10.89 0 21.78 0 33 0 C33 10.23 33 20.46 33 31 C32.01 30.01 31.02 29.02 30 28 C29.34 28 28.68 28 28 28 C27.34 35.26 26.68 42.52 26 50 C25.67 50 25.34 50 25 50 C25.00523682 49.01080566 25.01047363 48.02161133 25.01586914 47.00244141 C25.03394523 43.33855084 25.04544158 39.67466423 25.05493164 36.01074219 C25.05996588 34.42382139 25.06679369 32.83690523 25.07543945 31.25 C25.08754482 28.97134251 25.09323733 26.69274624 25.09765625 24.4140625 C25.10281754 23.70255035 25.10797882 22.99103821 25.11329651 22.25796509 C25.17314758 18.50406444 25.17314758 18.50406444 24 15 C24.09539062 15.57363281 24.19078125 16.14726562 24.2890625 16.73828125 C25.14741314 23.31564257 24.83117248 29.49979551 24.125 36.0625 C24.03428223 36.9078833 23.94356445 37.7532666 23.85009766 38.62426758 C23.14349532 44.71300936 23.14349532 44.71300936 22 47 C21.9077935 49.33849534 21.88250798 51.67971042 21.88647461 54.02001953 C21.88632858 54.74207581 21.88618256 55.46413208 21.8860321 56.20806885 C21.88672993 58.59968041 21.89451625 60.99121451 21.90234375 63.3828125 C21.90420839 65.03905189 21.90563208 66.69529184 21.90663147 68.35153198 C21.91045301 72.71467608 21.92028022 77.077787 21.93133545 81.44091797 C21.94155736 85.89159699 21.94613076 90.34228137 21.95117188 94.79296875 C21.9619028 103.52866108 21.97897488 112.26432641 22 121 C21.34 121 20.68 121 20 121 C19.505 65.065 19.505 65.065 19 8 C9.76154427 4.92051476 -2.41340519 7.33885553 -12 8 C-12 13.61 -12 19.22 -12 25 C-12.33 25 -12.66 25 -13 25 C-13 19.06 -13 13.12 -13 7 C-13.66 6.67 -14.32 6.34 -15 6 C-4.99112106 5.37722531 4.96588331 4.82292735 15 5 C15 4.34 15 3.68 15 3 C14.16855469 2.95101563 13.33710938 2.90203125 12.48046875 2.8515625 C11.39378906 2.77679688 10.30710938 2.70203125 9.1875 2.625 C8.10855469 2.55539062 7.02960938 2.48578125 5.91796875 2.4140625 C3 2 3 2 0 0 Z " fill="#F0C8D1" transform="translate(197,0)"/>
<path d="M0 0 C3.96 0 7.92 0 12 0 C12 0.33 12 0.66 12 1 C8.37 1 4.74 1 1 1 C1.00222061 2.40012833 1.00444122 3.80025665 1.00672913 5.24281311 C1.02700536 18.44101435 1.04205387 31.63921288 1.05181217 44.83742619 C1.05696257 51.62266224 1.0639813 58.40788665 1.07543945 65.19311523 C1.08649293 71.74184055 1.09228544 78.29055832 1.09487724 84.83929253 C1.09672418 87.33711373 1.10033076 89.83493427 1.10573006 92.33275032 C1.11299414 95.83260654 1.11398867 99.33241284 1.11352539 102.83227539 C1.11712067 103.86374191 1.12071594 104.89520844 1.12442017 105.95793152 C1.1230455 106.91835358 1.12167084 107.87877563 1.12025452 108.86830139 C1.12117631 109.6951497 1.1220981 110.521998 1.12304783 111.37390232 C0.97184791 114.60082449 0.45685639 117.80200526 0 121 C-10.89 121 -21.78 121 -33 121 C-33 118.36 -33 115.72 -33 113 C-38.61 113 -44.22 113 -50 113 C-50 110.69 -50 108.38 -50 106 C-49.649375 106.66 -49.29875 107.32 -48.9375 108 C-47.05407132 110.34201822 -47.05407132 110.34201822 -43.5625 110.5625 C-39.84841057 110.35937081 -39.84841057 110.35937081 -37.75 107.5 C-36.88375 106.2625 -36.88375 106.2625 -36 105 C-35.01 105 -34.02 105 -33 105 C-33 107.31 -33 109.62 -33 112 C-27.39 112 -21.78 112 -16 112 C-15.67 111.34 -15.34 110.68 -15 110 C-15 110.66 -15 111.32 -15 112 C-10.05 112 -5.1 112 0 112 C0 75.04 0 38.08 0 0 Z " fill="#D17879" transform="translate(65,6)"/>
<path d="M0 0 C0.33 0 0.66 0 1 0 C1 33.33 1 66.66 1 101 C7.27937679 94.72062321 7.33545292 89.08218774 7.625 80.625 C7.66367188 79.69816406 7.70234375 78.77132812 7.7421875 77.81640625 C7.83587591 75.5444623 7.92159348 73.27251404 8 71 C8.33 71 8.66 71 9 71 C10.80991127 77.78716727 10.43609916 85.17852898 9 92 C9.66 92 10.32 92 11 92 C11.66 87.38 12.32 82.76 13 78 C13.33 78 13.66 78 14 78 C14 87.57 14 97.14 14 107 C-7.12 107 -28.24 107 -50 107 C-50 106.34 -50 105.68 -50 105 C-38.78 105 -27.56 105 -16 105 C-16 104.67 -16 104.34 -16 104 C-11.05 103.67 -6.1 103.34 -1 103 C-0.67 69.01 -0.34 35.02 0 0 Z " fill="#D58483" transform="translate(216,20)"/>
<path d="M0 0 C0.66 0 1.32 0 2 0 C2.66 0.66 3.32 1.32 4 2 C4.33 2 4.66 2 5 2 C5 22.79 5 43.58 5 65 C1 64 1 64 -0.6875 62.5 C-4.52750022 55.18571386 -2.79982563 45.78321511 -2.125 37.875 C-1.12944818 25.25575325 -0.45573326 12.6493767 0 0 Z " fill="#A62E26" transform="translate(9,52)"/>
<path d="M0 0 C1.917995 1.60054467 2.90751491 2.48468066 3.35644531 4.98608398 C3.34709961 5.73188721 3.33775391 6.47769043 3.328125 7.24609375 C3.32296875 8.08462891 3.3178125 8.92316406 3.3125 9.78710938 C3.291875 10.66173828 3.27125 11.53636719 3.25 12.4375 C3.24484375 13.27732422 3.2396875 14.11714844 3.234375 14.98242188 C3.17776321 19.64935616 2.91545259 24.26197832 2.49609375 28.91015625 C1.96227029 34.94836802 1.80864752 40.94004772 1.8125 47 C1.81185547 48.08087891 1.81121094 49.16175781 1.81054688 50.27539062 C1.85993348 57.90337623 2.41531635 65.36343062 3.27734375 72.93652344 C5.8757748 96.33195592 5.8757748 96.33195592 1 105 C-0.485 105.495 -0.485 105.495 -2 106 C-2.02313912 96.51652748 -2.04092312 87.03306464 -2.05181217 77.54957008 C-2.05703755 73.14631785 -2.06412897 68.74308489 -2.07543945 64.33984375 C-2.08628054 60.09290756 -2.09227944 55.84598994 -2.09487724 51.59904099 C-2.09672928 49.97627851 -2.10034568 48.35351708 -2.10573006 46.73076248 C-2.11295668 44.46322661 -2.11399025 42.19576813 -2.11352539 39.92822266 C-2.115746 38.63582672 -2.11796661 37.34343079 -2.12025452 36.01187134 C-2 33 -2 33 -1 31 C-0.57032629 28.03937157 -0.19547425 25.09778293 0.125 22.125 C0.21700684 21.27252686 0.30901367 20.42005371 0.40380859 19.54174805 C1.05078188 12.91746743 0.97485636 6.600041 0 0 Z " fill="#F4D4DB" transform="translate(220,14)"/>
<path d="M0 0 C0.33 0 0.66 0 1 0 C1.029729 1.33961792 1.029729 1.33961792 1.06005859 2.70629883 C1.13818698 6.02200708 1.22487971 9.33726162 1.31738281 12.65258789 C1.35564866 14.08707068 1.39050581 15.52164865 1.421875 16.95629883 C1.46757862 19.01938878 1.52556193 21.08182495 1.5859375 23.14453125 C1.6173584 24.38565674 1.6487793 25.62678223 1.68115234 26.90551758 C1.77399209 30.16636101 1.77399209 30.16636101 4 33 C4 33.66 4 34.32 4 35 C4.93972656 34.89171875 4.93972656 34.89171875 5.8984375 34.78125 C6.71570313 34.6884375 7.53296875 34.595625 8.375 34.5 C9.18710938 34.4071875 9.99921875 34.314375 10.8359375 34.21875 C13 34 13 34 15 34 C15.33 26.41 15.66 18.82 16 11 C16.33 11 16.66 11 17 11 C17.02904864 14.91665108 17.04681517 18.8332744 17.0625 22.75 C17.07087891 23.86117187 17.07925781 24.97234375 17.08789062 26.1171875 C17.09111328 27.18710938 17.09433594 28.25703125 17.09765625 29.359375 C17.10289307 30.34389648 17.10812988 31.32841797 17.11352539 32.34277344 C17 35 17 35 16 39 C19.63 39 23.26 39 27 39 C27 39.33 27 39.66 27 40 C11.98015546 40.17670405 -2.99458499 39.62814919 -18 39 C-18 39.66 -18 40.32 -18 41 C-23.61 41 -29.22 41 -35 41 C-35 40.01 -35 39.02 -35 38 C-37.97 38 -40.94 38 -44 38 C-41 36 -41 36 -34 36 C-34 27.09 -34 18.18 -34 9 C-33.67 9 -33.34 9 -33 9 C-32.67 17.25 -32.34 25.5 -32 34 C-30.02 33.505 -30.02 33.505 -28 33 C-27.505 33.495 -27.505 33.495 -27 34 C-24.32941149 34.14115161 -21.67567762 34.04247107 -19 34 C-18.67 31.03 -18.34 28.06 -18 25 C-17.67 25 -17.34 25 -17 25 C-17 28.96 -17 32.92 -17 37 C-11.39 37 -5.78 37 0 37 C0 24.79 0 12.58 0 0 Z " fill="#CD858F" transform="translate(184,86)"/>
<path d="M0 0 C10.89 0 21.78 0 33 0 C33 10.23 33 20.46 33 31 C30.33654056 28.33654056 30.57933208 26.58664012 30.1875 22.875 C29.17943795 15.75556178 27.35919805 10.5839985 21.5625 6.125 C16.49645318 3.90088189 11.59776298 2.65682328 6.125 1.875 C4.97257813 1.70742188 3.82015625 1.53984375 2.6328125 1.3671875 C1.76398438 1.24601563 0.89515625 1.12484375 0 1 C0 0.67 0 0.34 0 0 Z " fill="#2F1E22" transform="translate(197,0)"/>
<path d="M0 0 C6.93 0 13.86 0 21 0 C19.02 0.99 19.02 0.99 17 2 C10.16496202 6.02220923 6.79640714 10.62085416 4 18 C3.08163666 22.02003054 2.59696481 26.02513578 2.1875 30.125 C2.00670898 31.7028125 2.00670898 31.7028125 1.82226562 33.3125 C1.53122805 35.87363066 1.25749432 38.43531811 1 41 C0.67 41 0.34 41 0 41 C0 27.47 0 13.94 0 0 Z " fill="#181010" transform="translate(0,0)"/>
<path d="M0 0 C6.15105137 1.87659194 9.28921838 3.48683874 13 9 C15.56706141 13.86856474 16.43106727 17.5038923 16 23 C15.67 23.66 15.34 24.32 15 25 C14.34 25 13.68 25 13 25 C12.34 32.26 11.68 39.52 11 47 C10.67 47 10.34 47 10 47 C10.02356567 45.54762939 10.02356567 45.54762939 10.04760742 44.06591797 C10.10213985 40.45418706 10.13643419 36.84249215 10.16479492 33.23046875 C10.17982869 31.67083606 10.20026135 30.11124528 10.22631836 28.55175781 C10.26294211 26.30262884 10.27978021 24.05406153 10.29296875 21.8046875 C10.30845261 21.1138205 10.32393646 20.42295349 10.33988953 19.71115112 C10.34148234 15.07011719 9.34874566 11.98230233 7 8 C6.67 10.97 6.34 13.94 6 17 C5.67 17 5.34 17 5 17 C4.505 11.06 4.505 11.06 4 5 C-5.23845573 1.92051476 -17.41340519 4.33885553 -27 5 C-27 10.61 -27 16.22 -27 22 C-27.33 22 -27.66 22 -28 22 C-28 16.06 -28 10.12 -28 4 C-28.66 3.67 -29.32 3.34 -30 3 C-19.99112106 2.37722531 -10.03411669 1.82292735 0 2 C0 1.34 0 0.68 0 0 Z " fill="#E3A9B0" transform="translate(212,3)"/>
<path d="M0 0 C0.66 0 1.32 0 2 0 C2.07014532 4.41915515 2.05503319 8.55798736 1.5078125 12.953125 C0.77842495 19.22923532 0.81587317 25.50130192 0.8125 31.8125 C0.80025391 33.00681641 0.78800781 34.20113281 0.77539062 35.43164062 C0.76437707 42.17560452 1.27979094 48.4704659 2.5168457 55.09545898 C3.31895441 59.91743333 3.50346917 64.74651012 3.6875 69.625 C3.73455078 70.60339844 3.78160156 71.58179687 3.83007812 72.58984375 C4.13157685 79.7368463 4.13157685 79.7368463 3 82 C2.34 82 1.68 82 1 82 C1.02320313 80.86820312 1.04640625 79.73640625 1.0703125 78.5703125 C1.08906901 77.08854825 1.10726934 75.60677688 1.125 74.125 C1.14175781 73.37863281 1.15851563 72.63226563 1.17578125 71.86328125 C1.1933959 69.90805539 1.10320189 67.95257979 1 66 C0.34 65.34 -0.32 64.68 -1 64 C-1.49307848 61.12370884 -1.85376267 58.33701036 -2.125 55.4375 C-2.20991699 54.57157227 -2.29483398 53.70564453 -2.38232422 52.81347656 C-3.36772064 41.56369927 -3.18105358 30.28103081 -3 19 C-2.67 19 -2.34 19 -2 19 C-1.34 12.73 -0.68 6.46 0 0 Z " fill="#F1C6CD" transform="translate(224,30)"/>
<path d="M0 0 C0.33 0 0.66 0 1 0 C1.03440186 0.65484375 1.06880371 1.3096875 1.10424805 1.984375 C1.27546462 4.99141592 1.48121453 7.99516923 1.6875 11 C1.74099609 12.02996094 1.79449219 13.05992188 1.84960938 14.12109375 C2.34460431 20.87885068 3.49459092 25.80989509 8 31 C10.50719177 33.26810728 10.50719177 33.26810728 13.1875 34.875 C17.93670886 37.93670886 17.93670886 37.93670886 20 40 C13.4 40 6.8 40 0 40 C0 26.8 0 13.6 0 0 Z " fill="#120A0B" transform="translate(0,87)"/>
<path d="M0 0 C4 2 4 2 5.59375 3.03125 C9.23366699 4.49667113 12.85905278 4.47013643 16.75 4.625 C17.54277344 4.66367188 18.33554687 4.70234375 19.15234375 4.7421875 C21.10119416 4.836108 23.05056451 4.91912822 25 5 C25 7.64 25 10.28 25 13 C12.47630445 13.72953566 12.47630445 13.72953566 7 9 C5.54729018 7.90913731 4.08868632 6.82608994 2.625 5.75 C1.41546424 4.83492051 0.20670415 3.91881027 -1 3 C-0.67 2.01 -0.34 1.02 0 0 Z " fill="#E9B7C0" transform="translate(7,114)"/>
<path d="M0 0 C0.33 0 0.66 0 1 0 C1 9.24 1 18.48 1 28 C1.33 28 1.66 28 2 28 C1.99214478 29.0058313 1.99214478 29.0058313 1.98413086 30.03198242 C1.96328395 33.083812 1.95031531 36.13562656 1.9375 39.1875 C1.92912109 40.24259766 1.92074219 41.29769531 1.91210938 42.38476562 C1.90727539 43.91713867 1.90727539 43.91713867 1.90234375 45.48046875 C1.89710693 46.41785889 1.89187012 47.35524902 1.88647461 48.32104492 C1.99917343 50.98049477 2.40623351 53.40920573 3 56 C2.01 56.66 1.02 57.32 0 58 C-3.84566962 52.2112552 -3.37864422 46.5199022 -3.25 39.75 C-3.24484375 38.64914063 -3.2396875 37.54828125 -3.234375 36.4140625 C-3.15472274 28.30944549 -3.15472274 28.30944549 -2 26 C-1.77760311 24.04356527 -1.60784146 22.08102275 -1.46484375 20.1171875 C-1.37783203 18.95058594 -1.29082031 17.78398438 -1.20117188 16.58203125 C-1.11416016 15.35871094 -1.02714844 14.13539062 -0.9375 12.875 C-0.84662109 11.64394531 -0.75574219 10.41289063 -0.66210938 9.14453125 C-0.43764997 6.09660885 -0.21711458 3.04845297 0 0 Z " fill="#DAA5AE" transform="translate(5,58)"/>
<path d="M0 0 C0.71478516 0.09152344 1.42957031 0.18304688 2.16601562 0.27734375 C7.39068533 0.97659266 7.39068533 0.97659266 9.6875 2.125 C9.6875 2.785 9.6875 3.445 9.6875 4.125 C-22.62039898 6.51276806 -22.62039898 6.51276806 -37.3125 6.125 C-36.67828125 5.83882813 -36.0440625 5.55265625 -35.390625 5.2578125 C-32.89688799 3.89844458 -32.34817876 2.71419691 -31.3125 0.125 C-30.6525 0.125 -29.9925 0.125 -29.3125 0.125 C-29.3125 1.115 -29.3125 2.105 -29.3125 3.125 C-28.3225 3.455 -27.3325 3.785 -26.3125 4.125 C-25.6525 2.805 -24.9925 1.485 -24.3125 0.125 C-22.0025 0.125 -19.6925 0.125 -17.3125 0.125 C-19.2925 1.115 -19.2925 1.115 -21.3125 2.125 C-17.3525 2.125 -13.3925 2.125 -9.3125 2.125 C-12.2825 1.63 -12.2825 1.63 -15.3125 1.125 C-15.3125 0.795 -15.3125 0.465 -15.3125 0.125 C-9.94450652 -0.87402369 -5.38811478 -0.76901731 0 0 Z " fill="#E9C2CA" transform="translate(202.3125,0.875)"/>
<path d="M0 0 C14.65547337 -0.12590613 29.28870294 0.01576 43.9375 0.4375 C44.65766296 0.45714813 45.37782593 0.47679626 46.11981201 0.49703979 C54.44302886 0.72795665 62.71790431 1.10514278 71 2 C71 2.33 71 2.66 71 3 C55.98015546 3.17670405 41.00541501 2.62814919 26 2 C26 2.66 26 3.32 26 4 C20.39 4 14.78 4 9 4 C9 3.01 9 2.02 9 1 C6.03 1 3.06 1 0 1 C0 0.67 0 0.34 0 0 Z " fill="#E7ADB7" transform="translate(140,123)"/>
<path d="M0 0 C0.33 0 0.66 0 1 0 C1 9.57 1 19.14 1 29 C-4.28 29 -9.56 29 -15 29 C-13.0283713 27.68558087 -11.02817985 26.41285866 -9 25.1875 C-3.77646592 21.37867307 -2.63907263 17.30006417 -1.66992188 11.16210938 C-1.55197266 10.34548828 -1.43402344 9.52886719 -1.3125 8.6875 C-1.18294922 7.85154297 -1.05339844 7.01558594 -0.91992188 6.15429688 C-0.60364108 4.10432873 -0.30049853 2.05234099 0 0 Z " fill="#140A0A" transform="translate(229,98)"/>
<path d="M0 0 C0.33 0 0.66 0 1 0 C1.00808685 0.82605743 1.01617371 1.65211487 1.02450562 2.50320435 C1.10255684 10.30102378 1.18987916 18.09867303 1.28752708 25.89627266 C1.33740014 29.9047718 1.38373069 33.91324573 1.421875 37.921875 C1.45884176 41.79289761 1.50523206 45.66370463 1.55806351 49.53454208 C1.5765471 51.00882039 1.59167718 52.48314481 1.60334396 53.95749283 C1.62031042 56.02803717 1.64936875 58.09809423 1.68115234 60.16845703 C1.69447601 61.34538116 1.70779968 62.5223053 1.7215271 63.7348938 C2.00887361 67.10404346 2.80009724 69.8498396 4 73 C5.8253125 72.9690625 5.8253125 72.9690625 7.6875 72.9375 C10.91977322 72.93175884 13.84934741 73.21233685 17 74 C17 74.66 17 75.32 17 76 C12.05 76 7.1 76 2 76 C0.42520377 70.48821319 -0.24710994 67.33745859 -0.22705078 61.87133789 C-0.22734283 61.19731934 -0.22763489 60.52330078 -0.22793579 59.82885742 C-0.22655533 57.62665405 -0.21105568 55.42479967 -0.1953125 53.22265625 C-0.19157779 51.68566574 -0.18873298 50.14867283 -0.18673706 48.61167908 C-0.17913665 44.58557448 -0.15951944 40.55961643 -0.1373291 36.53356934 C-0.11679288 32.41758201 -0.10771878 28.30157078 -0.09765625 24.18554688 C-0.0762698 16.12363101 -0.04217776 8.06183379 0 0 Z " fill="#EAA8AC" transform="translate(48,42)"/>
<path d="M0 0 C-0.33 0.33 -0.66 0.66 -1 1 C12.365 1.495 12.365 1.495 26 2 C26 2.66 26 3.32 26 4 C24.9584375 3.98839844 23.916875 3.97679687 22.84375 3.96484375 C12.84032192 3.88963884 2.97904347 4.28078966 -7 5 C-7 12.92 -7 20.84 -7 29 C-7.33 29 -7.66 29 -8 29 C-8 21.41 -8 13.82 -8 6 C-11.61334205 8.87336689 -11.61334205 8.87336689 -15 12 C-14.10596097 7.22477979 -11.52167673 4.23701464 -8 1 C-2.8 -1.4 -2.8 -1.4 0 0 Z " fill="#DB999D" transform="translate(23,1)"/>
<path d="M0 0 C5.28 0 10.56 0 16 0 C16 2.31 16 4.62 16 7 C10.72 7 5.44 7 0 7 C0 4.69 0 2.38 0 0 Z " fill="#CB3B2A" transform="translate(33,120)"/>
<path d="M0 0 C0.33 0 0.66 0 1 0 C1.66 3.3 2.32 6.6 3 10 C3.33 10 3.66 10 4 10 C4.02953103 13.60414885 4.04697407 17.20826576 4.0625 20.8125 C4.07087891 21.81732422 4.07925781 22.82214844 4.08789062 23.85742188 C4.10966319 30.62868824 3.7369831 37.26910926 3 44 C2.34 44 1.68 44 1 44 C1 45.65 1 47.3 1 49 C0.67 49 0.34 49 0 49 C0 32.83 0 16.66 0 0 Z " fill="#BF868D" transform="translate(5,42)"/>
<path d="M0 0 C0.33 0 0.66 0 1 0 C1.01981934 0.89307861 1.03963867 1.78615723 1.06005859 2.70629883 C1.13818698 6.02200708 1.22487971 9.33726162 1.31738281 12.65258789 C1.35564866 14.08707068 1.39050581 15.52164865 1.421875 16.95629883 C1.46757862 19.01938878 1.52556193 21.08182495 1.5859375 23.14453125 C1.6173584 24.38565674 1.6487793 25.62678223 1.68115234 26.90551758 C1.77399209 30.16636101 1.77399209 30.16636101 4 33 C4 33.66 4 34.32 4 35 C4.93972656 34.89171875 4.93972656 34.89171875 5.8984375 34.78125 C6.71570313 34.6884375 7.53296875 34.595625 8.375 34.5 C9.18710938 34.4071875 9.99921875 34.314375 10.8359375 34.21875 C13 34 13 34 15 34 C15.33 26.41 15.66 18.82 16 11 C16.33 11 16.66 11 17 11 C17.02892857 14.95831809 17.04677427 18.91660917 17.0625 22.875 C17.07087891 24.00292969 17.07925781 25.13085938 17.08789062 26.29296875 C17.09272461 27.90751953 17.09272461 27.90751953 17.09765625 29.5546875 C17.10551147 31.04718018 17.10551147 31.04718018 17.11352539 32.56982422 C17 35 17 35 16 37 C10.72 37 5.44 37 0 37 C0 24.79 0 12.58 0 0 Z " fill="#E6A0A6" transform="translate(184,86)"/>
<path d="M0 0 C1.98 0.99 1.98 0.99 4 2 C4 12.56 4 23.12 4 34 C2.515 34.495 2.515 34.495 1 35 C1.00580078 34.35313232 1.01160156 33.70626465 1.01757812 33.03979492 C1.0536929 25.78394962 0.82843035 18.56015901 0.5 11.3125 C0.45230469 10.21744141 0.40460937 9.12238281 0.35546875 7.99414062 C0.2391013 5.32932605 0.12058005 2.66462671 0 0 Z " fill="#BC382C" transform="translate(10,52)"/>
<path d="M0 0 C2.29160319 -0.02692484 4.58329546 -0.04636124 6.875 -0.0625 C8.15117188 -0.07410156 9.42734375 -0.08570312 10.7421875 -0.09765625 C14 0 14 0 16 1 C16 2.65 16 4.3 16 6 C10.72 6 5.44 6 0 6 C0 4.02 0 2.04 0 0 Z " fill="#C23E35" transform="translate(66,121)"/>
<path d="M0 0 C0.33 0 0.66 0 1 0 C1 1.65 1 3.3 1 5 C6.28 5 11.56 5 17 5 C17 5.66 17 6.32 17 7 C9.08 7.495 9.08 7.495 1 8 C1 9.65 1 11.3 1 13 C0.67 13 0.34 13 0 13 C0 11.35 0 9.7 0 8 C-5.28 7.67 -10.56 7.34 -16 7 C-16 8.98 -16 10.96 -16 13 C-16.33 13 -16.66 13 -17 13 C-17.04241723 10.66705225 -17.04092937 8.33297433 -17 6 C-16 5 -16 5 -12.40234375 4.90234375 C-10.91403133 4.9090178 -9.42573568 4.92097817 -7.9375 4.9375 C-7.17888672 4.94201172 -6.42027344 4.94652344 -5.63867188 4.95117188 C-3.75908129 4.9629932 -1.87953101 4.98092922 0 5 C0 3.35 0 1.7 0 0 Z " fill="#CD838C" transform="translate(82,114)"/>
<path d="M0 0 C-0.46019531 1.23621094 -0.92039062 2.47242188 -1.39453125 3.74609375 C-3.28949434 9.43098301 -4.00240894 15.12878777 -4.6875 21.0625 C-4.81705078 22.11888672 -4.94660156 23.17527344 -5.08007812 24.26367188 C-5.39502445 26.84156588 -5.70147722 29.42016162 -6 32 C-6.33 32 -6.66 32 -7 32 C-7.0989211 27.78253675 -7.17149012 23.56568879 -7.21972656 19.34741211 C-7.23983525 17.91272214 -7.26712673 16.47811407 -7.30175781 15.04370117 C-7.3503146 12.98075161 -7.37297406 10.91888569 -7.390625 8.85546875 C-7.41157227 7.61434326 -7.43251953 6.37321777 -7.45410156 5.09448242 C-7 2 -7 2 -5.16308594 0.0090332 C-3 -1 -3 -1 0 0 Z " fill="#130A0B" transform="translate(7,9)"/>
<path d="M0 0 C5.28 0 10.56 0 16 0 C16 1.65 16 3.3 16 5 C10.72 5 5.44 5 0 5 C0 3.35 0 1.7 0 0 Z " fill="#EBBDC6" transform="translate(49,122)"/>
<path d="M0 0 C0.33 0 0.66 0 1 0 C1.33 2.31 1.66 4.62 2 7 C2.33 7 2.66 7 3 7 C3.07347656 8.68029297 3.07347656 8.68029297 3.1484375 10.39453125 C3.22347856 11.86721203 3.29902582 13.33986707 3.375 14.8125 C3.4059375 15.55048828 3.436875 16.28847656 3.46875 17.04882812 C3.67346148 20.81893115 3.86433827 22.79650741 6 26 C5.34 27.32 4.68 28.64 4 30 C0.8291792 25.86414678 -0.12525957 23.79931825 -0.09765625 18.5546875 C-0.09443359 17.47832031 -0.09121094 16.40195313 -0.08789062 15.29296875 C-0.07951172 14.16503906 -0.07113281 13.03710938 -0.0625 11.875 C-0.05798828 10.73933594 -0.05347656 9.60367188 -0.04882812 8.43359375 C-0.03701615 5.62234362 -0.02054507 2.8111977 0 0 Z " fill="#C49298" transform="translate(2,86)"/>
<path d="M0 0 C5.28 0 10.56 0 16 0 C16 1.32 16 2.64 16 4 C10.72 4 5.44 4 0 4 C0 2.68 0 1.36 0 0 Z " fill="#B93328" transform="translate(99,123)"/>
<path d="M0 0 C2.05040258 3.07560387 2.25571077 3.66485372 2.1875 7.125 C2.17332031 7.91261719 2.15914062 8.70023438 2.14453125 9.51171875 C1.95612236 12.75540698 1.53263901 15.94437423 1.0234375 19.15234375 C1.01570312 19.76207031 1.00796875 20.37179688 1 21 C2.83737827 23.27216848 2.83737827 23.27216848 5.6015625 23.1953125 C6.59929687 23.17210938 7.59703125 23.14890625 8.625 23.125 C9.62789062 23.10695313 10.63078125 23.08890625 11.6640625 23.0703125 C12.43492187 23.04710938 13.20578125 23.02390625 14 23 C14.33 22.34 14.66 21.68 15 21 C15 22.32 15 23.64 15 25 C9.72 25 4.44 25 -1 25 C-1.07664437 16.56911952 -1.10319185 8.37243814 0 0 Z " fill="#BE3E30" transform="translate(168,98)"/>
<path d="M0 0 C4.95 0 9.9 0 15 0 C15 1.32 15 2.64 15 4 C10.05 4 5.1 4 0 4 C0 2.68 0 1.36 0 0 Z " fill="#E7B5C0" transform="translate(83,123)"/>
<path d="M0 0 C8.91 0 17.82 0 27 0 C26.67 0.99 26.34 1.98 26 3 C20.72 3 15.44 3 10 3 C10 2.34 10 1.68 10 1 C6.7 1 3.4 1 0 1 C0 0.67 0 0.34 0 0 Z " fill="#E0A4AE" transform="translate(39,119)"/>
<path d="M0 0 C0.33 0 0.66 0 1 0 C1.12375 1.03125 1.2475 2.0625 1.375 3.125 C1.93889814 6.62116846 2.78682059 9.68397627 4 13 C5.216875 12.979375 6.43375 12.95875 7.6875 12.9375 C10.91977322 12.93175884 13.84934741 13.21233685 17 14 C17 14.66 17 15.32 17 16 C12.05 16 7.1 16 2 16 C-0.25 8.125 -0.25 8.125 -0.125 4.0625 C-0.10695312 3.29035156 -0.08890625 2.51820312 -0.0703125 1.72265625 C-0.04710937 1.15417969 -0.02390625 0.58570312 0 0 Z " fill="#D68A95" transform="translate(48,102)"/>
<path d="M0 0 C0.33 0 0.66 0 1 0 C1 7.59 1 15.18 1 23 C-4.61 23 -10.22 23 -16 23 C-16 18.38 -16 13.76 -16 9 C-15.67 9 -15.34 9 -15 9 C-15 13.29 -15 17.58 -15 22 C-10.71 22 -6.42 22 -2 22 C-1.09166031 19.27498092 -0.81640015 17.37766029 -0.68359375 14.55078125 C-0.64169922 13.70322266 -0.59980469 12.85566406 -0.55664062 11.98242188 C-0.49766602 10.66081055 -0.49766602 10.66081055 -0.4375 9.3125 C-0.39431641 8.41982422 -0.35113281 7.52714844 -0.30664062 6.60742188 C-0.20064647 4.40509892 -0.09857949 2.20266527 0 0 Z " fill="#B2403D" transform="translate(149,99)"/>
<path d="M0 0 C3.45831586 -0.02894547 6.91660072 -0.04678 10.375 -0.0625 C11.35984375 -0.07087891 12.3446875 -0.07925781 13.359375 -0.08789062 C14.77089844 -0.09272461 14.77089844 -0.09272461 16.2109375 -0.09765625 C17.51490479 -0.10551147 17.51490479 -0.10551147 18.84521484 -0.11352539 C21 -0 21 -0 23 1 C22.67 1.99 22.34 2.98 22 4 C14.62346781 3.24984418 7.32168224 2.16558465 0 1 C0 0.67 0 0.34 0 0 Z " fill="#362728" transform="translate(197,0)"/>
<path d="M0 0 C5.28 0 10.56 0 16 0 C16 0.33 16 0.66 16 1 C12.04 1 8.08 1 4 1 C4 2.65 4 4.3 4 6 C7.63 6 11.26 6 15 6 C15.33 4.68 15.66 3.36 16 2 C16 3.65 16 5.3 16 7 C10.72 7 5.44 7 0 7 C0 4.69 0 2.38 0 0 Z " fill="#CB5248" transform="translate(33,120)"/>
<path d="M0 0 C1.93742341 -0.02703381 3.87495479 -0.04641125 5.8125 -0.0625 C6.89144531 -0.07410156 7.97039062 -0.08570313 9.08203125 -0.09765625 C12 0 12 0 15 1 C15 1.66 15 2.32 15 3 C13.35 3.66 11.7 4.32 10 5 C10 3.68 10 2.36 10 1 C9.01 1 8.02 1 7 1 C7 1.66 7 2.32 7 3 C6.34 3 5.68 3 5 3 C4.71125 3.639375 4.4225 4.27875 4.125 4.9375 C3 7 3 7 1 8 C0.67 5.36 0.34 2.72 0 0 Z " fill="#D64430" transform="translate(201,6)"/>
<path d="M0 0 C0.33 0 0.66 0 1 0 C1.33 8.25 1.66 16.5 2 25 C3.32 24.67 4.64 24.34 6 24 C6.33 24.33 6.66 24.66 7 25 C8.51928038 25.07179964 10.04167482 25.08392007 11.5625 25.0625 C12.38878906 25.05347656 13.21507812 25.04445313 14.06640625 25.03515625 C14.70449219 25.02355469 15.34257812 25.01195313 16 25 C16 25.66 16 26.32 16 27 C10.72 27 5.44 27 0 27 C0 18.09 0 9.18 0 0 Z " fill="#E39EA7" transform="translate(150,95)"/>
<path d="M0 0 C0.33 0 0.66 0 1 0 C1.02892857 3.95831809 1.04677427 7.91660917 1.0625 11.875 C1.07087891 13.00292969 1.07925781 14.13085938 1.08789062 15.29296875 C1.09272461 16.90751953 1.09272461 16.90751953 1.09765625 18.5546875 C1.10551147 20.04718018 1.10551147 20.04718018 1.11352539 21.56982422 C1 24 1 24 0 26 C-4.29 25.67 -8.58 25.34 -13 25 C-13.66 23.35 -14.32 21.7 -15 20 C-14.34 19.67 -13.68 19.34 -13 19 C-12.67 20.65 -12.34 22.3 -12 24 C-11.37351563 23.9278125 -10.74703125 23.855625 -10.1015625 23.78125 C-9.28429687 23.6884375 -8.46703125 23.595625 -7.625 23.5 C-6.81289062 23.4071875 -6.00078125 23.314375 -5.1640625 23.21875 C-3 23 -3 23 -1 23 C-0.67 15.41 -0.34 7.82 0 0 Z " fill="#E9B1B8" transform="translate(200,97)"/>
<path d="M0 0 C5.61 0 11.22 0 17 0 C17 0.99 17 1.98 17 3 C11.39 3 5.78 3 0 3 C0 2.01 0 1.02 0 0 Z " fill="#BC3F38" transform="translate(132,124)"/>
<path d="M0 0 C5.28 0 10.56 0 16 0 C16 0.99 16 1.98 16 3 C10.72 3 5.44 3 0 3 C0 2.01 0 1.02 0 0 Z " fill="#E6B2BC" transform="translate(116,124)"/>
<path d="M0 0 C1.29585916 0.42492126 2.5866044 0.86545882 3.875 1.3125 C4.59429687 1.55613281 5.31359375 1.79976563 6.0546875 2.05078125 C8 3 8 3 10 6 C9.67 6.66 9.34 7.32 9 8 C8.34 8 7.68 8 7 8 C6.67 10.97 6.34 13.94 6 17 C5.67 17 5.34 17 5 17 C4.67 13.04 4.34 9.08 4 5 C1.69 4.34 -0.62 3.68 -3 3 C-2.01 2.67 -1.02 2.34 0 2 C0 1.34 0 0.68 0 0 Z " fill="#E8AFB1" transform="translate(212,3)"/>
<path d="M0 0 C5.28 0 10.56 0 16 0 C16 1.32 16 2.64 16 4 C14.08268082 3.88544319 12.1661325 3.75793742 10.25 3.625 C9.18265625 3.55539063 8.1153125 3.48578125 7.015625 3.4140625 C4.19793568 3.0271777 2.4169634 2.44313834 0 1 C0 0.67 0 0.34 0 0 Z " fill="#EAC0CB" transform="translate(14,120)"/>
<path d="M0 0 C2.64 0 5.28 0 8 0 C8 3.96 8 7.92 8 12 C5.94767344 9.26356459 4.09658533 6.64311135 2.3125 3.75 C1.87550781 3.04359375 1.43851563 2.3371875 0.98828125 1.609375 C0.49908203 0.81273437 0.49908203 0.81273437 0 0 Z " fill="#C9B8BD" transform="translate(222,0)"/>
<path d="M0 0 C0.33 0 0.66 0 1 0 C1.02505615 0.6705542 1.0501123 1.3411084 1.07592773 2.03198242 C1.19230801 5.0839959 1.31484348 8.13573258 1.4375 11.1875 C1.47681641 12.24259766 1.51613281 13.29769531 1.55664062 14.38476562 C1.59853516 15.40634766 1.64042969 16.42792969 1.68359375 17.48046875 C1.72025146 18.41785889 1.75690918 19.35524902 1.79467773 20.32104492 C1.99628616 22.95154346 2.47156191 25.41895117 3 28 C2.87890625 30.45703125 2.87890625 30.45703125 2.5625 32.8125 C2.46066406 33.60269531 2.35882813 34.39289063 2.25390625 35.20703125 C2.17011719 35.79871094 2.08632813 36.39039063 2 37 C1.67 37 1.34 37 1 37 C-0.24063784 29.34125934 -0.11179358 21.74288354 -0.0625 14 C-0.05747487 12.63932456 -0.05291376 11.27864733 -0.04882812 9.91796875 C-0.03710459 6.61193275 -0.02069427 3.30598999 0 0 Z " fill="#705557" transform="translate(0,58)"/>
<path d="M0 0 C3 1 3 1 4.125 2.5625 C5.36492259 6.01657007 5.63491457 9.34914566 6 13 C5.01 13.495 5.01 13.495 4 14 C3.67 12.02 3.34 10.04 3 8 C2.34 8 1.68 8 1 8 C0.26919734 6.02253397 -0.39421747 4.01927511 -1 2 C-0.67 1.34 -0.34 0.68 0 0 Z " fill="#E4BDC3" transform="translate(221,9)"/>
<path d="M0 0 C5.61 0.33 11.22 0.66 17 1 C17 1.66 17 2.32 17 3 C11.39 3 5.78 3 0 3 C0 2.01 0 1.02 0 0 Z " fill="#DFA3AD" transform="translate(149,124)"/>
<path d="M0 0 C2.70507892 -0.08406461 5.13672289 -0.00256667 7.8125 0.25 C8.88081055 0.32927734 8.88081055 0.32927734 9.97070312 0.41015625 C13.70859562 0.7075279 17.34365291 1.1667264 21 2 C21 2.33 21 2.66 21 3 C13.41 3 5.82 3 -2 3 C-1.34 2.01 -0.68 1.02 0 0 Z " fill="#E5B6C1" transform="translate(23,0)"/>
<path d="M0 0 C2.64 0 5.28 0 8 0 C7.38511719 0.68835937 7.38511719 0.68835937 6.7578125 1.390625 C6.21898437 2.00421875 5.68015625 2.6178125 5.125 3.25 C4.59132813 3.85328125 4.05765625 4.4565625 3.5078125 5.078125 C1.72199721 7.22227187 1.72199721 7.22227187 0 11 C0 7.37 0 3.74 0 0 Z " fill="#AC9FA2" transform="translate(0,0)"/>
<path d="M0 0 C0.33 0 0.66 0 1 0 C1.33 4.29 1.66 8.58 2 13 C1.01 13.495 1.01 13.495 0 14 C-1.79885972 10.17742309 -2.36703674 7.2209225 -2 3 C-1.34 2.01 -0.68 1.02 0 0 Z " fill="#B33631" transform="translate(8,100)"/>
<path d="M0 0 C0.33 0 0.66 0 1 0 C1 4.95 1 9.9 1 15 C1.66 15 2.32 15 3 15 C3.22036864 18.85645121 2.60355101 21.49223216 1 25 C0.67 25 0.34 25 0 25 C0 16.75 0 8.5 0 0 Z " fill="#EFC3CA" transform="translate(217,20)"/>
<path d="M0 0 C0.33 0 0.66 0 1 0 C1.75166913 7.69118596 2.13690844 15.27227893 2 23 C-0.07168402 21.32607931 -0.94044082 20.52106974 -1.2487793 17.82348633 C-1.19117432 17.00130615 -1.13356934 16.17912598 -1.07421875 15.33203125 C-1.01943359 14.43935547 -0.96464844 13.54667969 -0.90820312 12.62695312 C-0.83537109 11.69818359 -0.76253906 10.76941406 -0.6875 9.8125 C-0.62626953 8.87212891 -0.56503906 7.93175781 -0.50195312 6.96289062 C-0.34870489 4.64059043 -0.1808714 2.32028542 0 0 Z " fill="#C38F96" transform="translate(2,61)"/>
<path d="M0 0 C3.67420866 0.30618405 4.78135513 0.75771784 7.3125 3.5625 C8.1478125 4.7690625 8.1478125 4.7690625 9 6 C8.67 6.66 8.34 7.32 8 8 C7.34 6.68 6.68 5.36 6 4 C5.34 4 4.68 4 4 4 C3.67 5.32 3.34 6.64 3 8 C1.35 6.68 -0.3 5.36 -2 4 C-1.01 3.67 -0.02 3.34 1 3 C1.33 2.34 1.66 1.68 2 1 C1.34 0.67 0.68 0.34 0 0 Z " fill="#4E3A40" transform="translate(218,0)"/>
<path d="M0 0 C2.45862401 -0.05383848 4.9160755 -0.09359038 7.375 -0.125 C8.42300781 -0.15013672 8.42300781 -0.15013672 9.4921875 -0.17578125 C11.32897486 -0.19344267 13.16601963 -0.10303261 15 0 C15.66 0.66 16.32 1.32 17 2 C13.95059327 3.01646891 11.69630097 3.19844676 8.5 3.25 C7.5409375 3.27578125 6.581875 3.3015625 5.59375 3.328125 C2.63556747 2.95389709 1.79886927 2.30935919 0 0 Z " fill="#D99CA5" transform="translate(200,124)"/>
<path d="M0 0 C0.54140625 0.32742187 1.0828125 0.65484375 1.640625 0.9921875 C4.50719067 2.21664767 6.6452987 2.19892146 9.75 2.125 C10.73484375 2.10695313 11.7196875 2.08890625 12.734375 2.0703125 C13.48203125 2.04710938 14.2296875 2.02390625 15 2 C15.33 1.34 15.66 0.68 16 0 C16 1.32 16 2.64 16 4 C10.72 4 5.44 4 0 4 C0 2.68 0 1.36 0 0 Z " fill="#A72924" transform="translate(167,119)"/>
<path d="M0 0 C5.94 1.485 5.94 1.485 12 3 C11.67 3.99 11.34 4.98 11 6 C5.64951939 5.62671065 3.49087093 4.0042343 0 0 Z " fill="#B57F8B" transform="translate(13,121)"/>
<path d="M0 0 C-1 2 -1 2 -2.51953125 3.30078125 C-4.5008596 5.57486524 -4.49420019 7.21068292 -4.6875 10.1875 C-4.75324219 11.08855469 -4.81898437 11.98960938 -4.88671875 12.91796875 C-4.94279297 13.94857422 -4.94279297 13.94857422 -5 15 C-5.33 15 -5.66 15 -6 15 C-6 10.38 -6 5.76 -6 1 C-3 0 -3 0 0 0 Z " fill="#EFC6CC" transform="translate(22,5)"/>
<path d="M0 0 C2.31 0.33 4.62 0.66 7 1 C6.67 1.99 6.34 2.98 6 4 C4.02 4 2.04 4 0 4 C0 2.68 0 1.36 0 0 Z " fill="#1D1014" transform="translate(213,0)"/>
<path d="M0 0 C3.63 0 7.26 0 11 0 C10.67 0.99 10.34 1.98 10 3 C6.37 2.67 2.74 2.34 -1 2 C-0.67 1.34 -0.34 0.68 0 0 Z " fill="#DA9DA6" transform="translate(55,119)"/>
<path d="M0 0 C0.33 0 0.66 0 1 0 C1.0810206 2.10353495 1.13919907 4.20795952 1.1875 6.3125 C1.22230469 7.48425781 1.25710937 8.65601562 1.29296875 9.86328125 C1 13 1 13 -2 16 C-1.34 10.72 -0.68 5.44 0 0 Z " fill="#352127" transform="translate(229,98)"/>
<path d="M0 0 C1.93742341 -0.02703381 3.87495479 -0.04641125 5.8125 -0.0625 C6.89144531 -0.07410156 7.97039062 -0.08570313 9.08203125 -0.09765625 C12 0 12 0 15 1 C15 1.66 15 2.32 15 3 C13.35 3.66 11.7 4.32 10 5 C10 3.68 10 2.36 10 1 C6.7 1 3.4 1 0 1 C0 0.67 0 0.34 0 0 Z " fill="#BF4136" transform="translate(201,6)"/>
<path d="M0 0 C2 1 4 2 6 3 C6 3.66 6 4.32 6 5 C4.1875 5.6875 4.1875 5.6875 2 6 C0.25 4.5625 0.25 4.5625 -1 3 C-0.67 2.01 -0.34 1.02 0 0 Z " fill="#DDAAB2" transform="translate(7,114)"/>
<path d="M0 0 C0.66 0.33 1.32 0.66 2 1 C-0.64960955 4.63094642 -3.01824456 6.89851796 -7 9 C-5.44499019 5.18315774 -2.96404505 2.80804268 0 0 Z " fill="#433235" transform="translate(8,0)"/>
<path d="M0 0 C0.66 0 1.32 0 2 0 C2 1.98 2 3.96 2 6 C0.02 6 -1.96 6 -4 6 C-2.7260411 3.96166576 -1.38938077 1.96147874 0 0 Z " fill="#D597A3" transform="translate(29,111)"/>
<path d="M0 0 C2.44576827 3.66865241 2.23607254 5.67200343 2 10 C1.67 10.66 1.34 11.32 1 12 C0.34 12 -0.32 12 -1 12 C-1.08226668 8.95613276 -0.97608217 6.92824652 0 4 C0 2.68 0 1.36 0 0 Z " fill="#D4B4BC" transform="translate(226,16)"/>
<path d="M0 0 C2 2 2 2 2.1953125 4.8203125 C2.16050781 6.45613281 2.16050781 6.45613281 2.125 8.125 C2.10695312 9.22070312 2.08890625 10.31640625 2.0703125 11.4453125 C2.04710937 12.28835937 2.02390625 13.13140625 2 14 C0.23934164 11.35901246 -0.52722899 10.0257345 -1 7 C-0.67 6.01 -0.34 5.02 0 4 C0 2.68 0 1.36 0 0 Z " fill="#2C1B20" transform="translate(227,8)"/>
<path d="M0 0 C0 3 0 3 -1.4609375 4.53515625 C-2.40839844 5.29119141 -2.40839844 5.29119141 -3.375 6.0625 C-5.35131693 7.66063282 -7.19993981 9.19993981 -9 11 C-8.40300869 7.66864109 -7.27987719 5.78724333 -5.0625 3.25 C-4.53785156 2.63640625 -4.01320313 2.0228125 -3.47265625 1.390625 C-2 0 -2 0 0 0 Z " fill="#DFABB4" transform="translate(17,2)"/>
<path d="M0 0 C-0.33 1.32 -0.66 2.64 -1 4 C-2.98 4 -4.96 4 -7 4 C-6.67 3.01 -6.34 2.02 -6 1 C-3 0 -3 0 0 0 Z " fill="#F6D5DB" transform="translate(155,2)"/>
<path d="M0 0 C2.97 0 5.94 0 9 0 C9 0.99 9 1.98 9 3 C2.84765625 2.4140625 2.84765625 2.4140625 1 2 C0.67 1.34 0.34 0.68 0 0 Z " fill="#F3D0D9" transform="translate(21,121)"/>
<path d="M0 0 C3.96 1.98 3.96 1.98 8 4 C8 4.33 8 4.66 8 5 C5.36 5 2.72 5 0 5 C0 3.35 0 1.7 0 0 Z " fill="#D1402C" transform="translate(201,118)"/>
<path d="M0 0 C1.32 0 2.64 0 4 0 C4 0.66 4 1.32 4 2 C5.65 2.33 7.3 2.66 9 3 C9 3.33 9 3.66 9 4 C5.625 4.125 5.625 4.125 2 4 C1.34 3.34 0.68 2.68 0 2 C0 1.34 0 0.68 0 0 Z " fill="#E4B1B9" transform="translate(22,123)"/>
<path d="M0 0 C0.99 0 1.98 0 3 0 C3 1.32 3 2.64 3 4 C1.02 4 -0.96 4 -3 4 C-1.6875 2 -1.6875 2 0 0 Z " fill="#CB3D29" transform="translate(213,119)"/>
<path d="M0 0 C0.66 0 1.32 0 2 0 C1.67 2.31 1.34 4.62 1 7 C0.34 7 -0.32 7 -1 7 C-1.04254356 5.00045254 -1.04080783 2.99958364 -1 1 C-0.67 0.67 -0.34 0.34 0 0 Z " fill="#ECC0C8" transform="translate(226,105)"/>
<path d="M0 0 C0.99 0 1.98 0 3 0 C3 1.32 3 2.64 3 4 C1.02 4 -0.96 4 -3 4 C-1.6875 2 -1.6875 2 0 0 Z " fill="#F7D5DE" transform="translate(140,2)"/>
<path d="M0 0 C2.64 0 5.28 0 8 0 C5.06279492 1.52299523 2.0831351 2.80100302 -1 4 C-0.67 2.68 -0.34 1.36 0 0 Z " fill="#221315" transform="translate(13,0)"/>
<path d="M0 0 C2.31 0.66 4.62 1.32 7 2 C4.24075815 3.80411967 3.11027897 4.0127245 -0.25 3.625 C-1.1575 3.41875 -2.065 3.2125 -3 3 C-2.01 2.67 -1.02 2.34 0 2 C0 1.34 0 0.68 0 0 Z " fill="#DDB0B9" transform="translate(212,3)"/>
<path d="M0 0 C0.33 1.32 0.66 2.64 1 4 C-0.98 4 -2.96 4 -5 4 C-5 3.34 -5 2.68 -5 2 C-3.35 1.34 -1.7 0.68 0 0 Z " fill="#F6D4DD" transform="translate(124,2)"/>
</svg>
