<?xml version="1.0" encoding="UTF-8"?>
<svg version="1.1" xmlns="http://www.w3.org/2000/svg" width="115" height="153">
<path d="M0 0 C37.95 0 75.9 0 115 0 C115 50.49 115 100.98 115 153 C77.05 153 39.1 153 0 153 C0 102.51 0 52.02 0 0 Z " fill="#CF96A4" transform="translate(0,0)"/>
<path d="M0 0 C3.63 0 7.26 0 11 0 C11 50.49 11 100.98 11 153 C6.05 153 1.1 153 -4 153 C-2.50260417 151.40494792 -1.00520833 149.80989583 0.4921875 148.21484375 C4.0031975 143.05747932 4.30251136 137.13603606 4.625 131.0625 C4.66367188 130.37865234 4.70234375 129.69480469 4.7421875 128.99023438 C4.83522412 127.32720487 4.91863787 125.66364153 5 124 C4.34 124 3.68 124 3 124 C3.020625 124.804375 3.04125 125.60875 3.0625 126.4375 C3 129 3 129 2 130 C-1.13086656 130.25009881 -4.23827319 130.43155607 -7.375 130.5625 C-8.36322754 130.6042334 -9.35145508 130.6459668 -10.36962891 130.68896484 C-28.5923236 131.38535545 -46.82200493 131.07057706 -65.04840088 130.68060303 C-66.77910383 130.64413895 -68.50985947 130.61007875 -70.24066162 130.57867432 C-81.28563689 130.37139741 -92.06813308 129.61021527 -103 128 C-103 125.03 -103 122.06 -103 119 C-101.58203125 119.144375 -100.1640625 119.28875 -98.703125 119.4375 C-82.04792682 120.9512413 -65.46744795 121.19826423 -48.75 121.1875 C-47.11254822 121.18858765 -47.11254822 121.18858765 -45.4420166 121.18969727 C-29.93910293 121.18853535 -14.48373249 120.76639236 1 120 C1 118.02 1 116.04 1 114 C0.21470917 113.98969254 -0.57058167 113.97938507 -1.37966919 113.96876526 C-8.93446682 113.86905993 -16.48921613 113.76636864 -24.04393196 113.66066074 C-27.92396325 113.60646644 -31.80400178 113.55326348 -35.68408203 113.50268555 C-51.74697402 113.29239307 -67.80901609 113.04013675 -83.8671875 112.58984375 C-85.10920929 112.56112686 -86.35123108 112.53240997 -87.63088989 112.50282288 C-88.77991791 112.46700607 -89.92894592 112.43118927 -91.11279297 112.39428711 C-92.10987274 112.36644638 -93.10695251 112.33860565 -94.13424683 112.30992126 C-97.30590374 111.96691757 -100.01585317 111.10583353 -103 110 C-103 107.36 -103 104.72 -103 102 C-102.40541992 102.03029297 -101.81083984 102.06058594 -101.19824219 102.09179688 C-82.10651139 103.00594973 -63.01594439 103.11335907 -43.90614319 103.12338257 C-41.88497424 103.12499206 -39.86381683 103.12854834 -37.84265137 103.13256836 C-33.97580432 103.13851534 -30.10903564 103.13694163 -26.2421875 103.1328125 C-24.50897751 103.13578842 -24.50897751 103.13578842 -22.74075317 103.13882446 C-15.44715812 103.1182735 -8.25799232 102.71953217 -1 102 C-0.34 100.02 0.32 98.04 1 96 C0.17268372 95.98969254 -0.65463257 95.97938507 -1.50701904 95.96876526 C-9.4450602 95.86928331 -17.38305299 95.76660734 -25.32101059 95.66066074 C-29.39839554 95.60634473 -33.47578759 95.55311043 -37.55322266 95.50268555 C-53.70933915 95.30196825 -69.86520943 95.07676987 -86.015625 94.58984375 C-87.74060211 94.54676842 -87.74060211 94.54676842 -89.50042725 94.50282288 C-90.55506165 94.46700607 -91.60969604 94.43118927 -92.69628906 94.39428711 C-93.60606506 94.36644638 -94.51584106 94.33860565 -95.45318604 94.30992126 C-98.24047976 93.97073607 -100.44811061 93.14778999 -103 92 C-103 89.36 -103 86.72 -103 84 C-101.95004349 84.0449485 -101.95004349 84.0449485 -100.87887573 84.09080505 C-79.14947675 84.98976979 -57.45462258 85.12628511 -35.70935059 85.06866455 C-31.32316595 85.05820202 -26.93697492 85.05381928 -22.55078125 85.04882812 C-14.03383751 85.03828896 -5.51692348 85.02135793 3 85 C2.97679688 84.19175781 2.95359375 83.38351563 2.9296875 82.55078125 C2.91164063 81.48214844 2.89359375 80.41351563 2.875 79.3125 C2.85179688 78.25675781 2.82859375 77.20101562 2.8046875 76.11328125 C3.00344918 72.94502007 3.76809141 70.89152096 5 68 C5.28859867 65.92783025 5.28859867 65.92783025 5.24291992 63.85571289 C5.24599655 63.07462662 5.24907318 62.29354034 5.25224304 61.48878479 C5.24505753 60.65846237 5.23787201 59.82813995 5.23046875 58.97265625 C5.23001053 58.10611923 5.22955231 57.23958221 5.2290802 56.3467865 C5.22606655 54.5186933 5.21820686 52.69060248 5.20581055 50.86254883 C5.1875856 48.07559021 5.18530087 45.28896508 5.18554688 42.50195312 C5.18062972 40.72135132 5.17480054 38.94075174 5.16796875 37.16015625 C5.16685593 36.33185806 5.1657431 35.50355988 5.16459656 34.65016174 C5.12934011 30.31629029 4.80464838 26.27335117 4 22 C3.8171042 18.64013639 3.65882515 15.28535572 3.5703125 11.921875 C3.35699249 7.26438818 2.34700359 4.01626283 0 0 Z " fill="#C88D9B" transform="translate(104,0)"/>
<path d="M0 0 C0.66 0 1.32 0 2 0 C2.66442953 18.89932886 2.66442953 18.89932886 -3.625 25.9375 C-4.40875 26.618125 -5.1925 27.29875 -6 28 C-6.495 28.495 -6.495 28.495 -7 29 C-10.1050725 29.09533653 -13.18786458 29.12551126 -16.29321289 29.11352539 C-17.26871597 29.11367142 -18.24421906 29.11381744 -19.24928284 29.1139679 C-22.49042953 29.11326833 -25.73151954 29.10547391 -28.97265625 29.09765625 C-31.21325143 29.09579222 -33.45384702 29.09436825 -35.69444275 29.09336853 C-41.6045951 29.08954213 -47.51472305 29.0797108 -53.42486572 29.06866455 C-59.45055817 29.05845306 -65.47625453 29.05387147 -71.50195312 29.04882812 C-83.33464616 29.03808864 -95.16732106 29.02101076 -107 29 C-107 25.04 -107 21.08 -107 17 C-106.67 17.99 -106.34 18.98 -106 20 C-99.04433018 20.86070484 -92.13954355 21.30500373 -85.13671875 21.55859375 C-83.39680916 21.62197182 -83.39680916 21.62197182 -81.62174988 21.68663025 C-66.77957904 22.17207423 -51.93559008 22.1133686 -37.08740234 22.06866455 C-33.22428971 22.05819625 -29.36116978 22.05381812 -25.49804688 22.04882812 C-17.99867908 22.03829341 -10.49934563 22.02136593 -3 22 C-2.01 19.36 -1.02 16.72 0 14 C-1.38614502 14.16226074 -2.77229004 14.32452148 -4.20043945 14.49169922 C-10.40376664 15.10854306 -16.56352346 15.14359189 -22.79296875 15.1328125 C-24.00602692 15.13422241 -25.21908508 15.13563232 -26.46890259 15.13708496 C-30.37513213 15.13920623 -34.2812788 15.13296314 -38.1875 15.125 C-39.52485135 15.12332464 -40.86220284 15.12175833 -42.19955444 15.12030029 C-57.40584318 15.10118908 -72.61172941 15.06560205 -87.8125 14.625 C-89.61013794 14.57883545 -89.61013794 14.57883545 -91.4440918 14.53173828 C-96.63876889 14.34439564 -101.15014575 14.08213638 -106 12 C-106 9.69 -106 7.38 -106 5 C-95.07026635 4.93189608 -84.1653106 5.11400202 -73.24066162 5.42779541 C-49.12009007 6.10993631 -25.10481967 6.36488362 -1 5 C-0.67 3.35 -0.34 1.7 0 0 Z " fill="#EEB6C4" transform="translate(107,124)"/>
<path d="M0 0 C1.05388412 0.0449485 1.05388412 0.0449485 2.12905884 0.09080505 C23.70163251 0.98045916 45.23881559 1.12669332 66.8270874 1.06866455 C71.15294888 1.05819834 75.47881686 1.05381854 79.8046875 1.04882812 C88.20314191 1.0382918 96.60156616 1.02136303 105 1 C105 3.97 105 6.94 105 10 C100.84788275 10.78359904 96.92761852 11.12626827 92.70458984 11.12939453 C90.85877823 11.13412277 90.85877823 11.13412277 88.97567749 11.13894653 C87.63743047 11.13715205 86.29918377 11.13509995 84.9609375 11.1328125 C83.55685408 11.13348847 82.15277077 11.13446091 80.74868774 11.13571167 C77.79484959 11.13718553 74.84104166 11.1350512 71.88720703 11.13037109 C68.19205595 11.12478809 64.4969786 11.12799055 60.80183029 11.13379288 C46.25145604 11.15338516 31.70844629 11.06213015 17.1640625 10.6171875 C16.0031308 10.58682404 14.8421991 10.55646057 13.64608765 10.525177 C12.04164291 10.46800003 12.04164291 10.46800003 10.40478516 10.40966797 C9.47671051 10.37904266 8.54863586 10.34841736 7.59243774 10.31686401 C4.78586429 9.97382699 2.56887515 9.15766347 0 8 C0 5.36 0 2.72 0 0 Z " fill="#C6382E" transform="translate(1,84)"/>
<path d="M0 0 C33.66 0 67.32 0 102 0 C102 3.3 102 6.6 102 10 C91.52356315 10.02337118 81.0471327 10.04103945 70.5706749 10.05181217 C65.70384538 10.05698759 60.83703395 10.06398569 55.97021484 10.07543945 C51.25635862 10.08646133 46.54251957 10.09231681 41.82865143 10.09487724 C40.04771912 10.09669729 38.26678754 10.1002493 36.48586273 10.10573006 C23.95904258 10.14267884 11.50543376 9.73408064 -1 9 C-0.67 6.03 -0.34 3.06 0 0 Z " fill="#C93D33" transform="translate(3,49)"/>
<path d="M0 0 C0.98459702 0.07105453 1.96919403 0.14210907 2.98362732 0.21531677 C14.63550826 1.0060946 26.23509471 1.13113594 37.91015625 1.09765625 C39.85884057 1.0957855 41.80752537 1.09436471 43.75621033 1.09336853 C48.82440547 1.08959503 53.89257082 1.07981048 58.96075439 1.06866455 C64.15677488 1.05833774 69.35280029 1.05384705 74.54882812 1.04882812 C84.69923166 1.03818225 94.84961333 1.02116994 105 1 C105 3.97 105 6.94 105 10 C97.24992779 11.25249923 89.50700186 11.14529931 81.6796875 11.1328125 C80.1744078 11.13348826 78.66912821 11.13446055 77.16384888 11.13571167 C74.00847332 11.13718216 70.85312615 11.13505923 67.69775391 11.13037109 C63.72207203 11.12474209 59.74645806 11.12800986 55.77077866 11.13380814 C27.83704286 11.16847953 27.83704286 11.16847953 14.0703125 10.5546875 C13.20066864 10.51594513 12.33102478 10.47720276 11.43502808 10.43728638 C7.53363491 10.23325785 3.81324237 9.91791361 0 9 C0 6.03 0 3.06 0 0 Z " fill="#C03129" transform="translate(1,66)"/>
<path d="M0 0 C1.05388412 0.0449485 1.05388412 0.0449485 2.12905884 0.09080505 C23.70163251 0.98045916 45.23881559 1.12669332 66.8270874 1.06866455 C71.15294888 1.05819834 75.47881686 1.05381854 79.8046875 1.04882812 C88.20314191 1.0382918 96.60156616 1.02136303 105 1 C105 3.97 105 6.94 105 10 C91.52711034 11.35531589 78.02437878 11.1551138 64.5 11.125 C63.27910675 11.1234491 62.0582135 11.12189819 60.80032349 11.12030029 C46.51030023 11.09894195 32.22197193 11.05022075 17.9375 10.625 C16.77089844 10.59422363 15.60429687 10.56344727 14.40234375 10.53173828 C9.25624218 10.34175506 4.80848233 10.05006353 0 8 C0 5.36 0 2.72 0 0 Z " fill="#C1362E" transform="translate(1,102)"/>
<path d="M0 0 C0.33 0.66 0.66 1.32 1 2 C34.66 2.33 68.32 2.66 103 3 C103 3.66 103 4.32 103 5 C103.66 5 104.32 5 105 5 C105 6.65 105 8.3 105 10 C99.55703386 11.53277198 94.62430302 12.28851097 88.9543457 12.24291992 C88.19377365 12.24481827 87.4332016 12.24671661 86.64958191 12.24867249 C84.15820694 12.2523487 81.66712993 12.24171523 79.17578125 12.23046875 C77.42473891 12.22927428 75.67369592 12.22882435 73.9226532 12.2290802 C70.25869715 12.22752037 66.59483949 12.21927332 62.9309082 12.20581055 C58.26901998 12.18888476 53.60724025 12.18499488 48.9453249 12.18575573 C45.32902519 12.18548167 41.7127485 12.17996188 38.09645653 12.17275429 C36.37952028 12.16960402 34.66258145 12.16760888 32.94564247 12.16686058 C7.43072343 12.14357448 7.43072343 12.14357448 1 10 C0.67 6.7 0.34 3.4 0 0 Z " fill="#F0B8C6" transform="translate(1,56)"/>
<path d="M0 0 C0.63742126 0.05993134 1.27484253 0.11986267 1.93157959 0.18161011 C23.1805843 2.10504158 44.29720651 2.24815328 65.61688232 2.1373291 C70.07659942 2.11644728 74.53634132 2.10764728 78.99609375 2.09765625 C87.66412761 2.07654434 96.33204542 2.04265592 105 2 C105 4.97 105 7.94 105 11 C82.63671481 12.26627297 60.33614906 12.1595454 37.95159912 11.68060303 C36.22089617 11.64413895 34.49014053 11.61007875 32.75933838 11.57867432 C21.71436311 11.37139741 10.93186692 10.61021527 0 9 C0 6.03 0 3.06 0 0 Z " fill="#BF332B" transform="translate(1,119)"/>
<path d="M0 0 C0.80885147 0.02767456 1.61770294 0.05534912 2.45106506 0.0838623 C18.71478066 0.63105619 34.97422269 1.07725963 51.24609375 1.28125 C51.99520649 1.29079712 52.74431923 1.30034424 53.51613235 1.31018066 C60.40464501 1.39720783 67.29323956 1.47650595 74.18188477 1.55224609 C78.01953292 1.59473017 81.85710121 1.64186851 85.69465828 1.69187927 C87.13597521 1.70967407 88.57731626 1.72561935 90.01867485 1.73963928 C92.00004592 1.75891791 93.981352 1.78456381 95.96264648 1.81054688 C97.08444809 1.82307495 98.20624969 1.83560303 99.36204529 1.84851074 C102 2 102 2 104 3 C103.49396008 5.16874252 103.00016187 6.99967627 102 9 C93.71168938 11.30155271 85.07941065 11.28263908 76.546875 11.23046875 C74.66008026 11.22978142 74.66008026 11.22978142 72.73516846 11.2290802 C70.08274391 11.22607508 67.43067669 11.21935181 64.77832031 11.20581055 C60.8027166 11.1857208 56.82721897 11.18530018 52.8515625 11.18554688 C40.71114376 11.16899571 28.58461167 11.037825 16.453125 10.55078125 C15.47720398 10.51228561 14.50128296 10.47378998 13.49578857 10.43412781 C8.92232238 10.22669896 4.50286114 9.89335791 0 9 C0 6.03 0 3.06 0 0 Z " fill="#F0B8C6" transform="translate(1,93)"/>
<path d="M0 0 C1.11737549 0.03758423 1.11737549 0.03758423 2.25732422 0.07592773 C6.12971088 0.2023695 10.00228044 0.32179319 13.875 0.4375 C14.62166931 0.45989746 15.36833862 0.48229492 16.13763428 0.50537109 C28.42875375 0.86543817 40.72063559 1.0844878 53.015625 1.25390625 C54.12773787 1.26944959 54.12773787 1.26944959 55.26231766 1.28530693 C62.82408549 1.39093382 70.38586819 1.49230707 77.94786072 1.58051205 C80.82594425 1.614967 83.70396917 1.6532303 86.5819931 1.69231987 C88.59817879 1.71830365 90.61442934 1.73908773 92.63067627 1.75978088 C93.8368158 1.77653366 95.04295532 1.79328644 96.28564453 1.81054688 C97.874832 1.82933899 97.874832 1.82933899 99.49612427 1.84851074 C102 2 102 2 104 3 C104 4.98 104 6.96 104 9 C100.0096922 10.3301026 96.08225118 10.36798693 91.9140625 10.55078125 C90.52521347 10.61353996 90.52521347 10.61353996 89.10830688 10.67756653 C77.53351276 11.15700049 65.9581132 11.19698977 54.375 11.1875 C52.67167007 11.18759064 52.67167007 11.18759064 50.93392944 11.18768311 C37.70539984 11.17766176 24.5102919 11.09556246 11.3125 10.125 C10.23468262 10.04660889 9.15686523 9.96821777 8.04638672 9.88745117 C2.82586677 9.42436201 2.82586677 9.42436201 1 9 C-0.4783226 6.04335481 -0.06032783 3.25770263 0 0 Z " fill="#EFB6C4" transform="translate(1,111)"/>
<path d="M0 0 C1.48282471 0.06566162 2.96564941 0.13132324 4.4934082 0.19897461 C24.5081755 1.03633618 44.518959 1.30582268 64.54821777 1.53222656 C69.01459716 1.58345741 73.48092835 1.63859999 77.94726562 1.69335938 C86.63146908 1.79928229 95.31571421 1.90105843 104 2 C103.38722388 4.96175123 102.74627478 6.38058783 101 9 C88.05186793 12.84020687 72.10702717 11.15651594 58.74902344 11.13037109 C55.53315414 11.12505481 52.31742734 11.1303244 49.1015625 11.13671875 C38.29833993 11.14063894 27.51401135 10.98420582 16.71875 10.5546875 C15.71453003 10.51594513 14.71031006 10.47720276 13.67565918 10.43728638 C12.74048462 10.39594574 11.80531006 10.3546051 10.84179688 10.31201172 C10.02481323 10.2761496 9.20782959 10.24028748 8.36608887 10.20333862 C5.85473748 9.98751633 3.46076597 9.53809178 1 9 C0.67 6.03 0.34 3.06 0 0 Z " fill="#F1BAC8" transform="translate(1,75)"/>
<path d="M0 0 C33.66 0 67.32 0 102 0 C102 2.97 102 5.94 102 9 C91.37501042 9.03038861 80.75002594 9.05089936 70.125 9.0625 C69.34645157 9.06335602 68.56790314 9.06421204 67.76576233 9.06509399 C45.16424763 9.08707406 22.58349317 9.01523116 0 8 C0 5.36 0 2.72 0 0 Z " fill="#CA3C31" transform="translate(3,32)"/>
<path d="M0 0 C0.78979248 0.03029297 1.57958496 0.06058594 2.39331055 0.09179688 C26.55398204 0.96981415 50.70158962 1.08879331 74.875 1.0625 C75.66756069 1.06164398 76.46012138 1.06078796 77.27669907 1.05990601 C87.18448911 1.0484188 97.09224303 1.02820482 107 1 C106.5020163 4.73487777 106.12508244 6.81237635 104 10 C101.39759827 10.36749268 101.39759827 10.36749268 98.05102539 10.35644531 C96.79693375 10.35944641 95.5428421 10.36244751 94.25074768 10.36553955 C92.86638004 10.35350098 91.48201621 10.34101653 90.09765625 10.328125 C88.66304219 10.32506051 87.22842513 10.32318964 85.79380798 10.32244873 C82.76468721 10.31782999 79.73582989 10.30338156 76.70678711 10.28125 C72.91054171 10.25359246 69.11450636 10.24220252 65.31817055 10.23741913 C50.83218989 10.2176124 36.35033788 10.07258213 21.87109375 9.609375 C20.25534203 9.56457001 20.25534203 9.56457001 18.60694885 9.51885986 C12.49378292 9.29152901 6.92934731 8.51767871 1 7 C0.67 4.69 0.34 2.38 0 0 Z " fill="#BE332B" transform="translate(0,137)"/>
<path d="M0 0 C34.65 0 69.3 0 105 0 C104.67 2.64 104.34 5.28 104 8 C70.01 8 36.02 8 1 8 C0.67 5.36 0.34 2.72 0 0 Z " fill="#CF3E31" transform="translate(1,14)"/>
<path d="M0 0 C20.16251926 -0.1290433 40.31542933 0.00616383 60.47521973 0.37332153 C62.82472019 0.41610075 65.17424919 0.45734065 67.52380371 0.49703979 C70.84932032 0.55416059 74.17464514 0.61779051 77.5 0.68359375 C79.0040036 0.70867004 79.0040036 0.70867004 80.53839111 0.73425293 C81.92704376 0.76416321 81.92704376 0.76416321 83.34375 0.79467773 C84.15005859 0.81022202 84.95636719 0.8257663 85.78710938 0.84178162 C87.96650293 0.99760501 89.90261559 1.40211436 92 2 C92.495 5.465 92.495 5.465 93 9 C81.02196441 9.0231219 69.04393409 9.0409143 57.06588078 9.05181217 C51.50460589 9.05704134 45.94334621 9.06413958 40.38208008 9.07543945 C35.01992581 9.08626715 29.65778622 9.09227658 24.29562187 9.09487724 C22.24499722 9.09673171 20.1943734 9.10035272 18.14375496 9.10573006 C15.28209797 9.11293893 12.42050243 9.11399101 9.55883789 9.11352539 C8.70216522 9.11712067 7.84549255 9.12071594 6.96286011 9.12442017 C1.11405216 9.11405216 1.11405216 9.11405216 0 8 C-0.14115161 5.32941149 -0.04247107 2.67567762 0 0 Z " fill="#F5C2D1" transform="translate(1,40)"/>
<path d="M0 0 C0.66 0 1.32 0 2 0 C2.66442953 18.89932886 2.66442953 18.89932886 -3.625 25.9375 C-4.40875 26.618125 -5.1925 27.29875 -6 28 C-6.495 28.495 -6.495 28.495 -7 29 C-10.1050725 29.09533653 -13.18786458 29.12551126 -16.29321289 29.11352539 C-17.26871597 29.11367142 -18.24421906 29.11381744 -19.24928284 29.1139679 C-22.49042953 29.11326833 -25.73151954 29.10547391 -28.97265625 29.09765625 C-31.21325143 29.09579222 -33.45384702 29.09436825 -35.69444275 29.09336853 C-41.6045951 29.08954213 -47.51472305 29.0797108 -53.42486572 29.06866455 C-59.45055817 29.05845306 -65.47625453 29.05387147 -71.50195312 29.04882812 C-83.33464616 29.03808864 -95.16732106 29.02101076 -107 29 C-107 25.04 -107 21.08 -107 17 C-106.67 17.99 -106.34 18.98 -106 20 C-99.04433018 20.86070484 -92.13954355 21.30500373 -85.13671875 21.55859375 C-83.39680916 21.62197182 -83.39680916 21.62197182 -81.62174988 21.68663025 C-66.77957904 22.17207423 -51.93559008 22.1133686 -37.08740234 22.06866455 C-33.22428971 22.05819625 -29.36116978 22.05381812 -25.49804688 22.04882812 C-17.99867908 22.03829341 -10.49934563 22.02136593 -3 22 C-2.01 19.36 -1.02 16.72 0 14 C-1.381875 14.165 -2.76375 14.33 -4.1875 14.5 C-10.46011295 15.13896057 -16.70177863 15.08884638 -23 15 C-19.29178372 12.64891442 -15.51394762 12.56844942 -11.25 12.375 C-10.20392578 12.31699219 -10.20392578 12.31699219 -9.13671875 12.2578125 C-7.42489182 12.16401376 -5.71248318 12.08093826 -4 12 C-4 11.34 -4 10.68 -4 10 C-3.34 9.67 -2.68 9.34 -2 9 C-1.31270746 6.88153715 -1.31270746 6.88153715 -0.875 4.4375 C-0.70742187 3.61121094 -0.53984375 2.78492187 -0.3671875 1.93359375 C-0.18542969 0.97646484 -0.18542969 0.97646484 0 0 Z " fill="#D194A3" transform="translate(107,124)"/>
<path d="M0 0 C0.85150635 0.02505615 1.7030127 0.0501123 2.58032227 0.07592773 C26.0300244 0.75169841 49.48117513 1.20087727 72.9375 1.5625 C74.01743666 1.5791527 74.01743666 1.5791527 75.11919022 1.59614182 C84.07941191 1.73400927 93.03968159 1.86856016 102 2 C102 2.99 102 3.98 102 5 C101.34 5.33 100.68 5.66 100 6 C99.67 6.99 99.34 7.98 99 9 C66.33 9 33.66 9 0 9 C0 6.03 0 3.06 0 0 Z " fill="#F6C6D4" transform="translate(1,4)"/>
<path d="M0 0 C9.38940362 0.10828414 18.77874001 0.22106291 28.16802311 0.33933926 C32.52939219 0.39414311 36.89076826 0.4474872 41.25219727 0.49731445 C45.47330561 0.54559534 49.69434682 0.59794664 53.91537285 0.65294075 C55.51341482 0.67308017 57.11147498 0.69183388 58.70955086 0.70907402 C68.84182061 0.81951868 78.89589605 1.21151958 89 2 C89.1875 4.375 89.1875 4.375 89 7 C85.19715 9.53523334 82.16808773 9.26695788 77.76489258 9.22705078 C76.50602486 9.22748886 76.50602486 9.22748886 75.22172546 9.22793579 C72.44588913 9.22654171 69.67032073 9.21097683 66.89453125 9.1953125 C64.97067919 9.19158265 63.04682522 9.18873555 61.12297058 9.18673706 C56.05781821 9.17909842 50.99278042 9.15944791 45.92767334 9.1373291 C40.7597407 9.11687568 35.59178956 9.10773642 30.42382812 9.09765625 C20.28250172 9.07620226 10.14126039 9.04206349 0 9 C0 6.03 0 3.06 0 0 Z " fill="#F7C6D5" transform="translate(1,22)"/>
<path d="M0 0 C3.63 0 7.26 0 11 0 C11 50.49 11 100.98 11 153 C6.05 153 1.1 153 -4 153 C-2.50260417 151.40494792 -1.00520833 149.80989583 0.4921875 148.21484375 C5.24360876 141.23542444 4.64816064 132.00563452 5.12304688 123.89257812 C5.19458984 122.86712891 5.26613281 121.84167969 5.33984375 120.78515625 C5.39519287 119.86613525 5.45054199 118.94711426 5.50756836 118.00024414 C6 115 6 115 7.52075195 111.39404297 C9.6402944 105.98990839 9.39211596 100.64398187 9.328125 94.91015625 C9.32679565 93.74435532 9.32546631 92.57855438 9.32409668 91.37742615 C9.31520892 87.60552685 9.28381719 83.83425195 9.25 80.0625 C9.23541095 77.4739616 9.22141533 74.88541979 9.20800781 72.296875 C9.16959046 65.99121675 9.10878665 59.68603699 9.03710938 53.38067627 C9.00367029 50.33436418 8.97686861 47.28809933 8.953125 44.24169922 C8.92043083 40.33697896 8.86701862 36.43333354 8.78845215 32.52926636 C8.75121335 30.56403299 8.72935139 28.59852691 8.70800781 26.63305664 C8.50978887 19.52023489 7.45001809 14.23245267 4 8 C3.58234375 7.13246094 3.1646875 6.26492187 2.734375 5.37109375 C2.40953125 4.73300781 2.0846875 4.09492187 1.75 3.4375 C1.1725 2.303125 0.595 1.16875 0 0 Z " fill="#8E717C" transform="translate(104,0)"/>
<path d="M0 0 C13.11691838 -0.06942445 26.23379325 -0.12277285 39.35085773 -0.15543652 C45.44124643 -0.1711112 51.53150968 -0.19238249 57.62182617 -0.22631836 C63.49622523 -0.25884731 69.37050343 -0.27683942 75.24498558 -0.28463173 C77.48935029 -0.29018686 79.73370818 -0.30103426 81.97802162 -0.31719017 C85.11480782 -0.3388783 88.25109069 -0.34197051 91.38793945 -0.34057617 C92.32157822 -0.351362 93.25521698 -0.36214783 94.21714783 -0.3732605 C95.07110138 -0.36913651 95.92505493 -0.36501251 96.80488586 -0.36076355 C97.54692922 -0.36352893 98.28897257 -0.36629431 99.05350208 -0.36914349 C101.55458217 0.1051737 102.46162904 1.00843806 104 3 C104 3.66 104 4.32 104 5 C90.73539664 5.023131 77.47079805 5.04091897 64.20617867 5.05181217 C58.04743871 5.05703933 51.88871251 5.06413398 45.72998047 5.07543945 C39.79075866 5.08627422 33.85155011 5.0922781 27.91231918 5.09487724 C25.64202541 5.09673042 23.3717324 5.100349 21.10144424 5.10573006 C17.93105732 5.11294828 14.7607258 5.11399061 11.59033203 5.11352539 C10.64374725 5.11712067 9.69716248 5.12071594 8.72189331 5.12442017 C7.86090027 5.1230455 6.99990723 5.12167084 6.11282349 5.12025452 C4.98731425 5.12163721 4.98731425 5.12163721 3.83906746 5.12304783 C2 5 2 5 0 4 C0 2.68 0 1.36 0 0 Z " fill="#D1534B" transform="translate(0,0)"/>
<path d="M0 0 C0.33 0.99 0.66 1.98 1 3 C9.87513606 4.18484184 18.78491115 4.42434359 27.72265625 4.75390625 C29.43616304 4.81945331 31.1496588 4.88528942 32.86314392 4.95140076 C37.34607554 5.12359576 41.82914507 5.29189415 46.31225586 5.45935059 C50.89771439 5.63133072 55.48302998 5.80703835 60.06835938 5.98242188 C69.04543774 6.32523981 78.0226664 6.66393677 87 7 C82.57531526 9.94978983 79.54058527 10.12794349 74.3203125 10.1328125 C73.34564529 10.13424759 73.34564529 10.13424759 72.35128784 10.13571167 C70.97784325 10.1363914 69.60439543 10.13455154 68.23095703 10.13037109 C66.13957402 10.12503717 64.04840745 10.13031406 61.95703125 10.13671875 C60.6197912 10.13605759 59.28255128 10.13477565 57.9453125 10.1328125 C56.73375488 10.13168457 55.52219727 10.13055664 54.27392578 10.12939453 C51.38545975 10.01523443 48.82023099 9.56870453 46 9 C45.67 9.33 45.34 9.66 45 10 C39.23263883 10.91165687 33.58280048 11.19284302 27.75 11.1875 C26.92169678 11.18741943 26.09339355 11.18733887 25.23999023 11.18725586 C18.68335507 11.12665849 12.40349996 10.45969966 6 9 C5.27683594 8.85433594 4.55367188 8.70867187 3.80859375 8.55859375 C2 8 2 8 0 6 C-0.125 2.875 -0.125 2.875 0 0 Z " fill="#EEB4C1" transform="translate(0,141)"/>
<path d="M0 0 C2.73751967 0.28319169 3.78923877 0.75818457 5.6171875 2.85546875 C7.68997294 7.56900627 7.39500356 12.03618063 7.3125 17.125 C7.31572266 18.12660156 7.31894531 19.12820312 7.32226562 20.16015625 C7.26734815 27.59897777 7.26734815 27.59897777 5 31 C3.86229429 25.31147144 3.13871796 19.58384613 5 14 C-29.98 14.33 -64.96 14.66 -101 15 C-101 11.37 -101 7.74 -101 4 C-99 8 -99 8 -100 13 C-67.33 13 -34.66 13 -1 13 C-0.67 11.68 -0.34 10.36 0 9 C0.66 9 1.32 9 2 9 C2 8.01 2 7.02 2 6 C-18.79 6 -39.58 6 -61 6 C-61 5.67 -61 5.34 -61 5 C-39.88 5 -18.76 5 3 5 C2.01 3.35 1.02 1.7 0 0 Z " fill="#E39DA7" transform="translate(101,0)"/>
<path d="M0 0 C2.85486314 1.42743157 3.34119026 3.53499384 4.35791016 6.43798828 C5.674067 11.6896042 5.59385117 17.04948071 5.6875 22.4375 C5.71950912 23.81974979 5.75182909 25.20199241 5.78442383 26.58422852 C5.89316918 31.72247259 5.95028266 36.86088443 6 42 C6.01095703 43.13083008 6.02191406 44.26166016 6.03320312 45.42675781 C6.1029654 53.12317844 6.14902511 60.81944922 6.17422485 68.5161438 C6.18308518 71.13340276 6.19462701 73.75065399 6.20883179 76.3678894 C6.22658213 80.07735953 6.230596 83.78658633 6.23046875 87.49609375 C6.23759888 88.62797119 6.244729 89.75984863 6.2520752 90.92602539 C6.24905396 91.96162598 6.24603271 92.99722656 6.24291992 94.06420898 C6.24434494 94.97283188 6.24576996 95.88145477 6.24723816 96.81761169 C6 99 6 99 4 101 C3.23102184 92.43148741 2.86086836 83.95657547 2.90234375 75.35546875 C2.90446617 73.65176872 2.90446617 73.65176872 2.90663147 71.91365051 C2.91216323 68.33823852 2.92470228 64.7628926 2.9375 61.1875 C2.94252384 58.74153737 2.94708519 56.29557375 2.95117188 53.84960938 C2.96211017 47.8997176 2.9787785 41.94986352 3 36 C2.67 36 2.34 36 2 36 C1.93941406 34.91460937 1.87882812 33.82921875 1.81640625 32.7109375 C1.73193936 31.26561514 1.64729449 29.82030318 1.5625 28.375 C1.52318359 27.66214844 1.48386719 26.94929688 1.44335938 26.21484375 C1.255864 23.0706905 1.00785364 20.0452739 0.46875 16.9375 C-0.0859081 13.4616426 -0.09568706 10.14282874 -0.0625 6.625 C-0.05347656 5.37976563 -0.04445313 4.13453125 -0.03515625 2.8515625 C-0.02355469 1.91054687 -0.01195313 0.96953125 0 0 Z " fill="#AF7B88" transform="translate(108,8)"/>
<path d="M0 0 C0.33 0 0.66 0 1 0 C1 13.86 1 27.72 1 42 C-3.95 42 -8.9 42 -14 42 C-13.05125 40.989375 -12.1025 39.97875 -11.125 38.9375 C-7.12431141 34.23080754 -6.10303392 29.75429529 -5.6875 23.6875 C-5.03194361 15.58129312 -2.29218972 7.76468694 0 0 Z " fill="#0D090A" transform="translate(114,111)"/>
<path d="M0 0 C1.12067871 0.0028299 2.24135742 0.00565979 3.39599609 0.00857544 C6.95160911 0.01970999 10.50696398 0.04480236 14.0625 0.0703125 C16.48306926 0.08035098 18.9036425 0.08947531 21.32421875 0.09765625 C27.23706624 0.11962729 33.14976467 0.15303759 39.0625 0.1953125 C39.7225 1.5153125 40.3825 2.8353125 41.0625 4.1953125 C20.9325 4.1953125 0.8025 4.1953125 -19.9375 4.1953125 C-19.9375 3.5353125 -19.9375 2.8753125 -19.9375 2.1953125 C-13.19278984 0.1478112 -7.0209159 -0.06746324 0 0 Z " fill="#C5352A" transform="translate(61.9375,-0.1953125)"/>
<path d="M0 0 C2.8558224 5.7116448 1.68535982 9.6946897 1 16 C6.94 16 12.88 16 19 16 C19 16.33 19 16.66 19 17 C13.72 17 8.44 17 3 17 C3 19.64 3 22.28 3 25 C2.34 25 1.68 25 1 25 C1.144375 26.299375 1.28875 27.59875 1.4375 28.9375 C1.51871094 29.66839844 1.59992187 30.39929688 1.68359375 31.15234375 C1.81886614 33.01140229 1.81886614 33.01140229 3 34 C2.90798837 35.91113058 2.75058316 37.81917355 2.56640625 39.72363281 C1.97937532 46.6429183 1.88748407 53.48167849 1.9375 60.421875 C1.94128662 61.64731018 1.94507324 62.87274536 1.94897461 64.13531494 C1.96106892 68.0069146 1.97969713 71.87843525 2 75.75 C2.026702 80.86978977 2.04663004 85.98954146 2.0625 91.109375 C2.07079834 92.26894714 2.07909668 93.42851929 2.08764648 94.62322998 C2.10634132 100.84051724 1.82767303 106.83644274 1 113 C2.32 113.33 3.64 113.66 5 114 C3.68 114 2.36 114 1 114 C1 116.31 1 118.62 1 121 C1.99 121.33 2.98 121.66 4 122 C2.68 122 1.36 122 0 122 C0 81.74 0 41.48 0 0 Z " fill="#D08190" transform="translate(0,15)"/>
<path d="M0 0 C8.58 0 17.16 0 26 0 C26 2.64 26 5.28 26 8 C21.41776242 8.89577723 16.99527163 9.1378022 12.34228516 9.11352539 C11.60013763 9.11367142 10.85799011 9.11381744 10.09335327 9.1139679 C7.65855917 9.11327539 5.22384311 9.10551419 2.7890625 9.09765625 C1.09369956 9.09578972 -0.60166392 9.09436692 -2.29702759 9.09336853 C-6.74560044 9.08956189 -11.19414032 9.07974751 -15.6427002 9.06866455 C-20.18757684 9.05841051 -24.73245885 9.05386237 -29.27734375 9.04882812 C-38.18491027 9.0381235 -47.09245239 9.02106944 -56 9 C-56 8.67 -56 8.34 -56 8 C-54.72879807 7.9845388 -54.72879807 7.9845388 -53.43191528 7.96876526 C-45.4563182 7.8709021 -37.4807972 7.76840373 -29.50532722 7.66066074 C-25.4047835 7.60542983 -21.30423265 7.55200956 -17.20361328 7.50268555 C-13.24838828 7.45504447 -9.2932512 7.40270176 -5.33813095 7.34705925 C-3.82703711 7.32663453 -2.31591916 7.30792164 -0.80478287 7.29092598 C1.30715424 7.26688449 3.41892468 7.23682978 5.53076172 7.20532227 C6.73433319 7.18977798 7.93790466 7.1742337 9.177948 7.15821838 C11.95074633 7.18981223 11.95074633 7.18981223 14 6 C14.33 4.35 14.66 2.7 15 1 C10.05 1 5.1 1 0 1 C0 0.67 0 0.34 0 0 Z " fill="#EFA5AE" transform="translate(75,23)"/>
<path d="M0 0 C33.99 0 67.98 0 103 0 C103 3.3 103 6.6 103 10 C99.7 10 96.4 10 93 10 C93 9.67 93 9.34 93 9 C94.98 9 96.96 9 99 9 C99 6.36 99 3.72 99 1 C66.33 1 33.66 1 0 1 C0 0.67 0 0.34 0 0 Z " fill="#D27477" transform="translate(2,22)"/>
<path d="M0 0 C0 2.97 0 5.94 0 9 C-4.29 9 -8.58 9 -13 9 C-12 5 -12 5 -11 3 C-11.97582031 3.02320312 -12.95164062 3.04640625 -13.95703125 3.0703125 C-15.22933594 3.08835937 -16.50164062 3.10640625 -17.8125 3.125 C-19.70935547 3.15980469 -19.70935547 3.15980469 -21.64453125 3.1953125 C-25 3 -25 3 -28 1 C-24.64596947 0.83051801 -21.29175736 0.66492694 -17.9375 0.5 C-16.99455078 0.45230469 -16.05160156 0.40460938 -15.08007812 0.35546875 C-10.04601557 0.10990472 -5.03997893 -0.0559221 0 0 Z " fill="#A72322" transform="translate(106,85)"/>
<path d="M0 0 C3.63 0 7.26 0 11 0 C10.125 7.875 10.125 7.875 9 9 C6.91380978 9.09417773 4.82439523 9.11742878 2.73608398 9.11352539 C1.7556311 9.11374443 1.7556311 9.11374443 0.75537109 9.1139679 C-1.41442128 9.11326883 -3.58412879 9.10547678 -5.75390625 9.09765625 C-7.25463311 9.09579205 -8.75536057 9.09436816 -10.25608826 9.09336853 C-14.21318226 9.08954352 -18.17023978 9.0797134 -22.12731934 9.06866455 C-26.16234849 9.05845006 -30.19738353 9.05387083 -34.23242188 9.04882812 C-42.15496469 9.03809111 -50.07747781 9.0210149 -58 9 C-58 8.67 -58 8.34 -58 8 C-37.21 8 -16.42 8 5 8 C4.505 4.535 4.505 4.535 4 1 C2.68 0.67 1.36 0.34 0 0 Z " fill="#E09DA9" transform="translate(89,41)"/>
<path d="M0 0 C0.33 0 0.66 0 1 0 C1.02690104 2.79173055 1.04679053 5.58320348 1.0625 8.375 C1.07087891 9.1690625 1.07925781 9.963125 1.08789062 10.78125 C1.11328125 16.7734375 1.11328125 16.7734375 0 19 C-0.23029956 21.37123246 -0.41119942 23.74741943 -0.5625 26.125 C-0.64628906 27.40632813 -0.73007813 28.68765625 -0.81640625 30.0078125 C-0.87699219 30.99523437 -0.93757813 31.98265625 -1 33 C-1.33 33 -1.66 33 -2 33 C-2 31.35 -2 29.7 -2 28 C-2.66 28 -3.32 28 -4 28 C-4 29.65 -4 31.3 -4 33 C-4.33 33 -4.66 33 -5 33 C-5 30.36 -5 27.72 -5 25 C-6.32 24.67 -7.64 24.34 -9 24 C-8.01 24 -7.02 24 -6 24 C-6 22.02 -6 20.04 -6 18 C-10.29 17.67 -14.58 17.34 -19 17 C-19 16.67 -19 16.34 -19 16 C-17.41058594 16.03480469 -17.41058594 16.03480469 -15.7890625 16.0703125 C-14.4010487 16.08906944 -13.0130273 16.10726972 -11.625 16.125 C-10.92632812 16.14175781 -10.22765625 16.15851563 -9.5078125 16.17578125 C-7.67102514 16.19344267 -5.83398037 16.10303261 -4 16 C-3.34 15.34 -2.68 14.68 -2 14 C-1.67 14.33 -1.34 14.66 -1 15 C-0.67 10.05 -0.34 5.1 0 0 Z " fill="#C8808D" transform="translate(111,96)"/>
<path d="M0 0 C4.95 0 9.9 0 15 0 C15 2.64 15 5.28 15 8 C9.72 8 4.44 8 -1 8 C0.32 7.34 1.64 6.68 3 6 C4.26804566 3.9664052 4.26804566 3.9664052 5 2 C3.35 1.67 1.7 1.34 0 1 C0 0.67 0 0.34 0 0 Z " fill="#940907" transform="translate(89,32)"/>
<path d="M0 0 C3.3 0 6.6 0 10 0 C10 7.26 10 14.52 10 22 C9.67 22 9.34 22 9 22 C8.76925781 21.16597656 8.53851563 20.33195312 8.30078125 19.47265625 C6.24196793 12.36852964 3.85283442 6.31436752 0 0 Z " fill="#0C0809" transform="translate(104,0)"/>
<path d="M0 0 C2.8558224 5.7116448 1.68535982 9.6946897 1 16 C6.94 16 12.88 16 19 16 C19 16.33 19 16.66 19 17 C13.72 17 8.44 17 3 17 C3 19.64 3 22.28 3 25 C2.34 25 1.68 25 1 25 C1.144375 26.299375 1.28875 27.59875 1.4375 28.9375 C1.51871094 29.66839844 1.59992187 30.39929688 1.68359375 31.15234375 C1.81886614 33.01140229 1.81886614 33.01140229 3 34 C2.6875 37.5 2.6875 37.5 2 41 C1.01 41.495 1.01 41.495 0 42 C0 28.14 0 14.28 0 0 Z " fill="#B85E68" transform="translate(0,15)"/>
<path d="M0 0 C22.44 0.66 44.88 1.32 68 2 C68 2.33 68 2.66 68 3 C62.89546991 3.14401616 57.79089701 3.28636957 52.6862793 3.42724609 C50.95319394 3.47530224 49.22012067 3.52379648 47.48706055 3.57275391 C44.98229039 3.64343271 42.47747962 3.7124858 39.97265625 3.78125 C39.20977798 3.80312378 38.44689972 3.82499756 37.66090393 3.84753418 C29.07358693 4.07983701 20.67397398 4.02844047 12.125 3.125 C11.28453125 3.04636719 10.4440625 2.96773438 9.578125 2.88671875 C8.36769531 2.76103516 8.36769531 2.76103516 7.1328125 2.6328125 C6.04830811 2.52283936 6.04830811 2.52283936 4.94189453 2.41064453 C3 2 3 2 0 0 Z " fill="#D2554D" transform="translate(3,84)"/>
<path d="M0 0 C0 2.64 0 5.28 0 8 C-1.95803507 8.05389087 -3.91648909 8.09274217 -5.875 8.125 C-6.96554688 8.14820313 -8.05609375 8.17140625 -9.1796875 8.1953125 C-12 8 -12 8 -14 6 C-10.5955335 1.25806452 -10.5955335 1.25806452 -8.125 0.1875 C-5.40700579 -0.05232302 -2.72672474 -0.06197102 0 0 Z " fill="#930505" transform="translate(105,50)"/>
<path d="M0 0 C0.66 0 1.32 0 2 0 C2.05383848 2.45862401 2.09359038 4.9160755 2.125 7.375 C2.14175781 8.07367188 2.15851563 8.77234375 2.17578125 9.4921875 C2.19344267 11.32897486 2.10303261 13.16601963 2 15 C1.34 15.66 0.68 16.32 0 17 C0 16.01 0 15.02 0 14 C-0.85658203 14.10828125 -0.85658203 14.10828125 -1.73046875 14.21875 C-8.83666412 15.03217777 -15.85302234 15.10081943 -23 15 C-19.29178372 12.64891442 -15.51394762 12.56844942 -11.25 12.375 C-10.20392578 12.31699219 -10.20392578 12.31699219 -9.13671875 12.2578125 C-7.42489182 12.16401376 -5.71248318 12.08093826 -4 12 C-4 11.34 -4 10.68 -4 10 C-3.34 9.67 -2.68 9.34 -2 9 C-1.31270746 6.88153715 -1.31270746 6.88153715 -0.875 4.4375 C-0.70742187 3.61121094 -0.53984375 2.78492187 -0.3671875 1.93359375 C-0.24601562 1.29550781 -0.12484375 0.65742187 0 0 Z " fill="#DC98A8" transform="translate(107,124)"/>
<path d="M0 0 C0.66 0.33 1.32 0.66 2 1 C2.04934926 6.65998046 2.08569529 12.31983636 2.10986328 17.97998047 C2.11993582 19.90643494 2.13359443 21.83287408 2.15087891 23.75927734 C2.17507241 26.52445252 2.18647036 29.289426 2.1953125 32.0546875 C2.20563507 32.9193161 2.21595764 33.7839447 2.22659302 34.67477417 C2.22699106 36.78453521 2.12265243 38.89380718 2 41 C1.34 41.66 0.68 42.32 0 43 C-0.91706394 33.12172004 -1.00162444 23.53810813 -0.5625 13.625 C-0.50905734 12.29169487 -0.45632014 10.95836127 -0.40429688 9.625 C-0.27641466 6.41631899 -0.14156221 3.2081015 0 0 Z " fill="#A2707D" transform="translate(112,66)"/>
<path d="M0 0 C0.66 0 1.32 0 2 0 C0.80425671 4.38439205 -0.27220641 7.27971819 -4 10 C-7.75 10.75 -7.75 10.75 -11 11 C-10.01 10.01 -9.02 9.02 -8 8 C-21.86 7.67 -35.72 7.34 -50 7 C-50 6.67 -50 6.34 -50 6 C-34.16 5.67 -18.32 5.34 -2 5 C-1.34 3.35 -0.68 1.7 0 0 Z " fill="#C36E78" transform="translate(106,141)"/>
<path d="M0 0 C1.485 0.99 1.485 0.99 3 2 C5.07623745 2.41949667 5.07623745 2.41949667 7.3125 2.5625 C9.83447466 2.77816625 12.27509059 3.04888775 14.76953125 3.4921875 C18.63687759 4.10011377 22.46937443 4.34709027 26.375 4.5625 C27.11105469 4.60568359 27.84710937 4.64886719 28.60546875 4.69335938 C30.40348068 4.79843799 32.20171958 4.89962093 34 5 C34 5.33 34 5.66 34 6 C22.78 6 11.56 6 0 6 C0 4.02 0 2.04 0 0 Z " fill="#EDA8B9" transform="translate(0,147)"/>
<path d="M0 0 C0.33 0 0.66 0 1 0 C1.09437162 10.04533503 1.11513141 20.08648144 0.6875 30.125 C0.66502197 30.88796387 0.64254395 31.65092773 0.61938477 32.43701172 C0.51171875 34.5703125 0.51171875 34.5703125 0 38 C-0.99 38.66 -1.98 39.32 -3 40 C-2.79375 39.21625 -2.5875 38.4325 -2.375 37.625 C-2.25125 36.75875 -2.1275 35.8925 -2 35 C-2.66 34.34 -3.32 33.68 -4 33 C-3.67781494 32.29045166 -3.35562988 31.58090332 -3.02368164 30.84985352 C-1.95057688 27.86240973 -1.70414592 25.56393407 -1.62109375 22.40234375 C-1.58693359 21.35369141 -1.55277344 20.30503906 -1.51757812 19.22460938 C-1.49115234 18.13986328 -1.46472656 17.05511719 -1.4375 15.9375 C-1.37745854 13.77983999 -1.31380395 11.62227672 -1.24609375 9.46484375 C-1.22216553 8.512146 -1.1982373 7.55944824 -1.17358398 6.57788086 C-1.0169509 4.25173641 -0.65200651 2.23127466 0 0 Z " fill="#B9808E" transform="translate(111,40)"/>
<path d="M0 0 C0.33 0 0.66 0 1 0 C1 9 1 18 1 27 C0.34 27 -0.32 27 -1 27 C-1 24.36 -1 21.72 -1 19 C-1.66 19 -2.32 19 -3 19 C-3.10251672 13.87416389 -3.03590199 9.05002222 -2 4 C-1.34 4 -0.68 4 0 4 C0 2.68 0 1.36 0 0 Z " fill="#C88997" transform="translate(108,39)"/>
<path d="M0 0 C11.88 0 23.76 0 36 0 C36 0.33 36 0.66 36 1 C25.11 1 14.22 1 3 1 C3 3.31 3 5.62 3 8 C4.65 8 6.3 8 8 8 C8 8.33 8 8.66 8 9 C5.66705225 9.04241723 3.33297433 9.04092937 1 9 C0.67 8.67 0.34 8.34 0 8 C0 5.36 0 2.72 0 0 Z " fill="#EC969E" transform="translate(1,40)"/>
<path d="M0 0 C16.83 0 33.66 0 51 0 C51 0.33 51 0.66 51 1 C45.92799335 1.14294839 40.85597177 1.2853507 35.78393555 1.42724609 C34.05834539 1.47559831 32.33275941 1.52409998 30.60717773 1.57275391 C28.12745225 1.64264551 25.64771224 1.71200036 23.16796875 1.78125 C22.39599655 1.80312378 21.62402435 1.82499756 20.82865906 1.84753418 C17.88459636 1.92933942 14.94536935 2 12 2 C11.20464844 2.02320312 10.40929687 2.04640625 9.58984375 2.0703125 C8.27693359 2.09738281 8.27693359 2.09738281 6.9375 2.125 C6.05964844 2.14820312 5.18179688 2.17140625 4.27734375 2.1953125 C2 2 2 2 0 0 Z " fill="#BF4947" transform="translate(36,68)"/>
<path d="M0 0 C0.99 0 1.98 0 3 0 C3 2.64 3 5.28 3 8 C0.36 8 -2.28 8 -5 8 C-5.66 6.68 -6.32 5.36 -7 4 C-5 2 -5 2 -2.375 1.875 C-1.59125 1.91625 -0.8075 1.9575 0 2 C0 1.34 0 0.68 0 0 Z " fill="#950405" transform="translate(103,85)"/>
<path d="M0 0 C1.875 0.3125 1.875 0.3125 4 1 C6.13586678 4.20380017 6.23132175 5.01939967 6.125 8.6875 C6.10695313 9.49574219 6.08890625 10.30398438 6.0703125 11.13671875 C6.03550781 12.05904297 6.03550781 12.05904297 6 13 C3.69 13 1.38 13 -1 13 C-0.67 11.68 -0.34 10.36 0 9 C0.66 9 1.32 9 2 9 C2.23428313 4.2102679 2.23428313 4.2102679 0 0 Z " fill="#E1A5B5" transform="translate(101,0)"/>
<path d="M0 0 C-0.33 0.66 -0.66 1.32 -1 2 C-2.99609375 2.37890625 -2.99609375 2.37890625 -5.4375 2.5625 C-8.84628205 2.8061175 -8.84628205 2.8061175 -12 4 C-13.87379605 4.07033769 -15.75001102 4.0843022 -17.625 4.0625 C-18.62789062 4.05347656 -19.63078125 4.04445313 -20.6640625 4.03515625 C-21.43492188 4.02355469 -22.20578125 4.01195312 -23 4 C-23 3.34 -23 2.68 -23 2 C-15.39701733 -0.48260659 -7.89688807 -0.18508331 0 0 Z " fill="#9B1E17" transform="translate(65,0)"/>
<path d="M0 0 C2.64 0 5.28 0 8 0 C8 2.97 8 5.94 8 9 C2.47291389 9.94220126 -2.83758352 10.12116149 -8.4375 10.0625 C-9.26443359 10.05798828 -10.09136719 10.05347656 -10.94335938 10.04882812 C-12.96227146 10.03715811 -14.98114574 10.01922718 -17 10 C-17 9.67 -17 9.34 -17 9 C-6.605 8.505 -6.605 8.505 4 8 C4.66 6.02 5.32 4.04 6 2 C3.03 1.505 3.03 1.505 0 1 C0 0.67 0 0.34 0 0 Z " fill="#CE8491" transform="translate(98,76)"/>
<path d="M0 0 C1.67654729 0.27942455 3.34259285 0.62331656 5 1 C5.928125 1.185625 6.85625 1.37125 7.8125 1.5625 C8.534375 1.706875 9.25625 1.85125 10 2 C9.67 2.66 9.34 3.32 9 4 C2.07 4 -4.86 4 -12 4 C-9.08493545 2.05662363 -8.17028308 1.72325333 -4.875 1.4375 C-1.22536034 1.43313101 -1.22536034 1.43313101 0 0 Z " fill="#DC9AAA" transform="translate(46,149)"/>
<path d="M0 0 C1.51400391 0.01740234 1.51400391 0.01740234 3.05859375 0.03515625 C4.07050781 0.04417969 5.08242187 0.05320313 6.125 0.0625 C7.29869141 0.07990234 7.29869141 0.07990234 8.49609375 0.09765625 C8.49609375 0.42765625 8.49609375 0.75765625 8.49609375 1.09765625 C6.84609375 1.42765625 5.19609375 1.75765625 3.49609375 2.09765625 C3.49609375 2.75765625 3.49609375 3.41765625 3.49609375 4.09765625 C-2.44390625 4.09765625 -8.38390625 4.09765625 -14.50390625 4.09765625 C-12.10565678 1.69940678 -11.23055407 1.78329421 -7.94140625 1.53515625 C-4.84289157 1.2922327 -2.88503409 0.11252083 0 0 Z " fill="#CD3D32" transform="translate(67.50390625,-0.09765625)"/>
<path d="M0 0 C9.24 0 18.48 0 28 0 C24.77208445 2.1519437 23.71599191 2.20086443 20 2 C20 2.66 20 3.32 20 4 C18.35 4 16.7 4 15 4 C14.67 3.34 14.34 2.68 14 2 C10.72444392 1.52998967 10.72444392 1.52998967 6.9375 1.375 C5.00197266 1.26285156 5.00197266 1.26285156 3.02734375 1.1484375 C1.52880859 1.07496094 1.52880859 1.07496094 0 1 C0 0.67 0 0.34 0 0 Z " fill="#CC4235" transform="translate(22,0)"/>
<path d="M0 0 C0 0.33 0 0.66 0 1 C-0.69867188 1.02578125 -1.39734375 1.0515625 -2.1171875 1.078125 C-3.02726562 1.13484375 -3.93734375 1.1915625 -4.875 1.25 C-5.77992187 1.29640625 -6.68484375 1.3428125 -7.6171875 1.390625 C-10.16254757 1.74452661 -10.16254757 1.74452661 -11.1953125 3.984375 C-11.59363281 4.98210938 -11.59363281 4.98210938 -12 6 C-12.99 6.495 -12.99 6.495 -14 7 C-13.67 5.35 -13.34 3.7 -13 2 C-14.65 2.33 -16.3 2.66 -18 3 C-18 2.34 -18 1.68 -18 1 C-11.97968656 0.39034801 -6.05329744 -0.13451772 0 0 Z M-12 9 C-16.95 9 -21.9 9 -27 9 C-27 8.67 -27 8.34 -27 8 C-25.06403108 7.77788884 -23.12610672 7.57277008 -21.1875 7.375 C-20.10855469 7.25898437 -19.02960938 7.14296875 -17.91796875 7.0234375 C-15 7 -15 7 -12 9 Z " fill="#A9211F" transform="translate(105,49)"/>
<path d="M0 0 C0.33 0 0.66 0 1 0 C1.21221057 5.8888434 0.55320433 10.83290313 -1 16.5 C-1.28617187 17.59054688 -1.28617187 17.59054688 -1.578125 18.703125 C-2.04337245 20.47106531 -2.52043593 22.23588933 -3 24 C-3.33 24 -3.66 24 -4 24 C-4.56377723 15.16749011 -3.26258646 8.21472661 0 0 Z " fill="#855964" transform="translate(114,103)"/>
<path d="M0 0 C1.65 0 3.3 0 5 0 C5 2.64 5 5.28 5 8 C3.02 8 1.04 8 -1 8 C-1.125 2.25 -1.125 2.25 0 0 Z " fill="#C98B9B" transform="translate(100,41)"/>
<path d="M0 0 C2.54384726 1.27192363 2.69368156 2.19948469 3.6875 4.8125 C3.95949219 5.49957031 4.23148437 6.18664062 4.51171875 6.89453125 C5.06812731 9.29376496 4.77364938 10.6894364 4 13 C3.67 12.67 3.34 12.34 3 12 C2.67 12.66 2.34 13.32 2 14 C1.34 14 0.68 14 0 14 C0 9.38 0 4.76 0 0 Z " fill="#A87281" transform="translate(108,8)"/>
<path d="M0 0 C-4.48818687 2.99212458 -7.55822786 3.12000748 -12.85546875 3.09765625 C-13.84792351 3.09553383 -13.84792351 3.09553383 -14.86042786 3.09336853 C-16.96949828 3.08777996 -19.07846177 3.07522965 -21.1875 3.0625 C-22.61913909 3.05748352 -24.05077985 3.05292087 -25.48242188 3.04882812 C-28.98831588 3.0378143 -32.4941475 3.02055755 -36 3 C-36 2.67 -36 2.34 -36 2 C-34.78884521 1.96241577 -34.78884521 1.96241577 -33.55322266 1.92407227 C-29.91031083 1.80834513 -26.26767274 1.68551365 -22.625 1.5625 C-20.71847656 1.50352539 -20.71847656 1.50352539 -18.7734375 1.44335938 C-16.95585938 1.38051758 -16.95585938 1.38051758 -15.1015625 1.31640625 C-13.42054443 1.26141968 -13.42054443 1.26141968 -11.70556641 1.20532227 C-7.63182718 0.89617097 -4.29210854 -0.07948349 0 0 Z " fill="#E8AEBD" transform="translate(87,148)"/>
<path d="M0 0 C1.32 0 2.64 0 4 0 C4 2.97 4 5.94 4 9 C0.7 9 -2.6 9 -6 9 C-6 8.67 -6 8.34 -6 8 C-4.02 8 -2.04 8 0 8 C0 5.36 0 2.72 0 0 Z " fill="#BE7985" transform="translate(101,23)"/>
<path d="M0 0 C2.97 0 5.94 0 9 0 C8.67 2.64 8.34 5.28 8 8 C6.35 8 4.7 8 3 8 C3.875 3.25 3.875 3.25 5 1 C3.68 1.33 2.36 1.66 1 2 C0.67 1.34 0.34 0.68 0 0 Z " fill="#AB2520" transform="translate(97,14)"/>
<path d="M0 0 C4.95 0 9.9 0 15 0 C15 0.33 15 0.66 15 1 C13.2984375 1.4640625 13.2984375 1.4640625 11.5625 1.9375 C8.21224901 2.62924531 8.21224901 2.62924531 7 4 C4.66702567 4.04092937 2.33294775 4.04241723 0 4 C0 2.68 0 1.36 0 0 Z " fill="#BB362B" transform="translate(0,0)"/>
<path d="M0 0 C0.33 0 0.66 0 1 0 C1.02690104 2.79173055 1.04679053 5.58320348 1.0625 8.375 C1.07087891 9.1690625 1.07925781 9.963125 1.08789062 10.78125 C1.11328125 16.7734375 1.11328125 16.7734375 0 19 C-0.23029956 21.37123246 -0.41119942 23.74741943 -0.5625 26.125 C-0.64628906 27.40632813 -0.73007813 28.68765625 -0.81640625 30.0078125 C-0.90728516 31.48894531 -0.90728516 31.48894531 -1 33 C-1.33 33 -1.66 33 -2 33 C-2.02684312 30.18743719 -2.04676188 27.37512759 -2.0625 24.5625 C-2.07087891 23.76005859 -2.07925781 22.95761719 -2.08789062 22.13085938 C-2.0965143 20.08704779 -2.0522815 18.04316098 -2 16 C-1.67 15.67 -1.34 15.34 -1 15 C-0.76346477 12.47403741 -0.57826308 9.96892793 -0.4375 7.4375 C-0.39431641 6.72658203 -0.35113281 6.01566406 -0.30664062 5.28320312 C-0.20028223 3.52238088 -0.09961154 1.7612168 0 0 Z " fill="#B27A89" transform="translate(111,96)"/>
<path d="M0 0 C-0.33 0.66 -0.66 1.32 -1 2 C-8.41017023 2.11459026 -15.64206267 1.91160286 -23 1 C-23 0.67 -23 0.34 -23 0 C-19.72966072 -0.19689005 -16.45872059 -0.38089008 -13.1875 -0.5625 C-12.25873047 -0.61857422 -11.32996094 -0.67464844 -10.37304688 -0.73242188 C-9.48037109 -0.78076172 -8.58769531 -0.82910156 -7.66796875 -0.87890625 C-6.84578857 -0.9260376 -6.0236084 -0.97316895 -5.17651367 -1.02172852 C-3 -1 -3 -1 0 0 Z " fill="#C68798" transform="translate(92,151)"/>
<path d="M0 0 C0.66 0 1.32 0 2 0 C2 8.91 2 17.82 2 27 C1.67 27 1.34 27 1 27 C1 21.06 1 15.12 1 9 C-0.65 9 -2.3 9 -4 9 C-4 8.67 -4 8.34 -4 8 C-2.35 8 -0.7 8 1 8 C1 6.35 1 4.7 1 3 C0.34 3 -0.32 3 -1 3 C-0.67 2.01 -0.34 1.02 0 0 Z " fill="#DA98A7" transform="translate(105,58)"/>
<path d="M0 0 C1.98 0 3.96 0 6 0 C6 2.97 6 5.94 6 9 C0.94997778 10.03590199 -3.87416389 10.10251672 -9 10 C-9 9.67 -9 9.34 -9 9 C-3.06 8.505 -3.06 8.505 3 8 C3.66 6.02 4.32 4.04 5 2 C3.35 1.67 1.7 1.34 0 1 C0 0.67 0 0.34 0 0 Z " fill="#CB808C" transform="translate(100,94)"/>
<path d="M0 0 C3.63 0 7.26 0 11 0 C11.33 0.99 11.66 1.98 12 3 C7.71 3 3.42 3 -1 3 C-0.67 2.01 -0.34 1.02 0 0 Z " fill="#DD4A38" transform="translate(25,1)"/>
<path d="M0 0 C0.99 0 1.98 0 3 0 C3 2.64 3 5.28 3 8 C1.02 8 -0.96 8 -3 8 C-2.5359375 7.13375 -2.5359375 7.13375 -2.0625 6.25 C-1.07416636 4.15705816 -0.4831387 2.25464725 0 0 Z " fill="#DBA3B3" transform="translate(98,23)"/>
<path d="M0 0 C0.99 0.33 1.98 0.66 3 1 C3.12375 1.94875 3.2475 2.8975 3.375 3.875 C3.71687177 7.08667191 3.71687177 7.08667191 6 9 C4.02 9 2.04 9 0 9 C0 6.03 0 3.06 0 0 Z " fill="#EEA6B8" transform="translate(1,22)"/>
<path d="M0 0 C0.33 0.66 0.66 1.32 1 2 C7.6 2 14.2 2 21 2 C21 2.33 21 2.66 21 3 C19.72382813 3.03738281 18.44765625 3.07476562 17.1328125 3.11328125 C15.46351162 3.17892791 13.79424211 3.2453757 12.125 3.3125 C10.86236328 3.34633789 10.86236328 3.34633789 9.57421875 3.38085938 C8.76855469 3.41630859 7.96289062 3.45175781 7.1328125 3.48828125 C6.38918457 3.51446533 5.64555664 3.54064941 4.87939453 3.56762695 C2.59266174 3.86729591 2.59266174 3.86729591 1 7 C0 6 0 6 -0.0625 2.9375 C-0.041875 1.968125 -0.02125 0.99875 0 0 Z " fill="#F2ABB7" transform="translate(1,56)"/>
<path d="M0 0 C1.9375 0.75 1.9375 0.75 4 2 C4.8125 4 4.8125 4 5 6 C4.67 6.66 4.34 7.32 4 8 C2.68 8 1.36 8 0 8 C0 5.36 0 2.72 0 0 Z " fill="#BC2926" transform="translate(1,84)"/>
<path d="M0 0 C0.99 0 1.98 0 3 0 C2.67 2.31 2.34 4.62 2 7 C-0.31 7 -2.62 7 -5 7 C-3 4 -3 4 0 3 C0 2.01 0 1.02 0 0 Z " fill="#97090B" transform="translate(103,139)"/>
<path d="M0 0 C0.99 0.33 1.98 0.66 3 1 C2.01 1 1.02 1 0 1 C0 0.67 0 0.34 0 0 Z M0 2 C0.33 2.474375 0.66 2.94875 1 3.4375 C4.09813267 5.85791615 7.12026792 5.68198917 11 6 C11 6.33 11 6.66 11 7 C6.71 7 2.42 7 -2 7 C-1 3 -1 3 0 2 Z " fill="#A21312" transform="translate(95,87)"/>
<path d="M0 0 C0.33 0 0.66 0 1 0 C1.08075665 2.29109597 1.13907731 4.58299267 1.1875 6.875 C1.22230469 8.15117188 1.25710937 9.42734375 1.29296875 10.7421875 C1.19628906 11.81726563 1.09960938 12.89234375 1 14 C0.01 14.66 -0.98 15.32 -2 16 C-1.690625 14.824375 -1.690625 14.824375 -1.375 13.625 C-1.25125 12.75875 -1.1275 11.8925 -1 11 C-1.66 10.34 -2.32 9.68 -3 9 C-2.01 6.03 -1.02 3.06 0 0 Z " fill="#BF8896" transform="translate(110,64)"/>
<path d="M0 0 C5.94 0 11.88 0 18 0 C18 0.66 18 1.32 18 2 C11.375 3.125 11.375 3.125 8 2 C6.6082227 1.78444749 5.21168784 1.59806254 3.8125 1.4375 C2.554375 1.293125 1.29625 1.14875 0 1 C0 0.67 0 0.34 0 0 Z " fill="#BE3A2F" transform="translate(79,14)"/>
<path d="M0 0 C2.64 0 5.28 0 8 0 C8 0.99 8 1.98 8 3 C8.66 3.33 9.32 3.66 10 4 C6.7 3.67 3.4 3.34 0 3 C0 2.01 0 1.02 0 0 Z " fill="#BB2B1F" transform="translate(79,0)"/>
<path d="M0 0 C1.33597652 0.80814651 2.668725 1.62163181 4 2.4375 C5.11375 3.11619141 5.11375 3.11619141 6.25 3.80859375 C6.8275 4.20175781 7.405 4.59492188 8 5 C8 5.33 8 5.66 8 6 C5.36 6 2.72 6 0 6 C0 4.02 0 2.04 0 0 Z " fill="#2E2024" transform="translate(0,147)"/>
<path d="M0 0 C2.875 -0.1875 2.875 -0.1875 6 0 C6.66 0.99 7.32 1.98 8 3 C5.39417629 3.93065133 4.35801776 4.14917407 1.75 3.0625 C1.1725 2.711875 0.595 2.36125 0 2 C0 1.34 0 0.68 0 0 Z " fill="#B5241B" transform="translate(2,140)"/>
<path d="M0 0 C4.29 0 8.58 0 13 0 C9.74874983 2.16750011 7.85466368 2.68533358 4 3 C1.625 2.0625 1.625 2.0625 0 1 C0 0.67 0 0.34 0 0 Z " fill="#B12A18" transform="translate(37,0)"/>
<path d="M0 0 C1.08667969 0.29197266 1.08667969 0.29197266 2.1953125 0.58984375 C2.74960938 0.74582031 3.30390625 0.90179688 3.875 1.0625 C0.875 3.0625 0.875 3.0625 -1.6875 2.8125 C-4.125 2.0625 -4.125 2.0625 -6.125 0.0625 C-3.57797384 -1.21101308 -2.6967055 -0.73941925 0 0 Z " fill="#E4A0B5" transform="translate(10.125,149.9375)"/>
<path d="M0 0 C1.875 0.1875 1.875 0.1875 4 1 C5.375 3.3125 5.375 3.3125 6 6 C5.125 8.3125 5.125 8.3125 4 10 C2.58071739 7.35067247 1.68136547 4.92013775 1 2 C0.67 1.34 0.34 0.68 0 0 Z " fill="#D192A1" transform="translate(101,0)"/>
<path d="M0 0 C0.33 0.99 0.66 1.98 1 3 C1.99 3.33 2.98 3.66 4 4 C3.67 4.66 3.34 5.32 3 6 C3.66 6.33 4.32 6.66 5 7 C4.34 7.66 3.68 8.32 3 9 C1.5 7.875 1.5 7.875 0 6 C-0.1875 2.8125 -0.1875 2.8125 0 0 Z " fill="#D18C9E" transform="translate(0,141)"/>
<path d="M0 0 C2.76223278 2.76223278 2.57856291 5.20706617 3 9 C2.01 8.67 1.02 8.34 0 8 C-0.38063221 5.6739143 -0.71269945 3.33944736 -1 1 C-0.67 0.67 -0.34 0.34 0 0 Z " fill="#986C77" transform="translate(110,12)"/>
<path d="M0 0 C1.98 0 3.96 0 6 0 C5.34 0.433125 4.68 0.86625 4 1.3125 C3.34 1.869375 2.68 2.42625 2 3 C2 3.99 2 4.98 2 6 C1.01 6.495 1.01 6.495 0 7 C0 4.69 0 2.38 0 0 Z " fill="#C2231C" transform="translate(3,32)"/>
<path d="M0 0 C0.33 0 0.66 0 1 0 C1 2.31 1 4.62 1 7 C-0.32 7 -1.64 7 -3 7 C-1.125 1.125 -1.125 1.125 0 0 Z " fill="#8C0E0F" transform="translate(104,15)"/>
<path d="M0 0 C1.98 0 3.96 0 6 0 C4.6875 2 4.6875 2 3 4 C2.01 4 1.02 4 0 4 C0 2.68 0 1.36 0 0 Z " fill="#643F44" transform="translate(0,0)"/>
</svg>
