<?xml version="1.0" encoding="UTF-8"?>
<svg version="1.1" xmlns="http://www.w3.org/2000/svg" width="112" height="158">
<path d="M0 0 C36.96 0 73.92 0 112 0 C112 52.14 112 104.28 112 158 C75.04 158 38.08 158 0 158 C0 105.86 0 53.72 0 0 Z " fill="#DD909B" transform="translate(0,0)"/>
<path d="M0 0 C8.76233263 -0.06172953 17.48768284 0.12358247 26.2421875 0.4765625 C36.99877246 0.87964062 47.74458857 1.11059021 58.5078125 1.2109375 C59.88889737 1.22519866 61.26998056 1.23962316 62.65106201 1.25421143 C68.25072889 1.31221637 73.8503141 1.3687667 79.45019531 1.40136719 C82.95271112 1.42225092 86.45482985 1.45739873 89.95711899 1.50212479 C91.90420001 1.52299679 93.85142798 1.52831356 95.7986145 1.53329468 C96.96609222 1.54986115 98.13356995 1.56642761 99.33642578 1.58349609 C100.36148224 1.59158295 101.3865387 1.5996698 102.44265747 1.60800171 C105 2 105 2 106.85397339 3.15103149 C108.48775383 5.78692891 108.20217175 7.96742379 108 11 C99.06919102 11.02363612 90.13839351 11.04116654 81.20755959 11.05181217 C77.05633023 11.05693293 72.90512291 11.06382136 68.75390625 11.07543945 C46.14910397 11.13704681 23.59071069 10.8178746 1 10 C1 12.64 1 15.28 1 18 C2.39798828 17.98259766 2.39798828 17.98259766 3.82421875 17.96484375 C5.09910156 17.95582031 6.37398438 17.94679688 7.6875 17.9375 C8.92886719 17.92589844 10.17023437 17.91429688 11.44921875 17.90234375 C14.88256953 17.92934777 18.26198958 18.17512637 21.68188477 18.47485352 C29.19682478 19.06585645 36.70003384 19.2758259 44.23361969 19.44555664 C46.69659293 19.50126592 49.15941743 19.56158304 51.62225342 19.62304688 C58.61309259 19.79665051 65.60413179 19.96155177 72.59521484 20.125 C76.89613942 20.22586369 81.19692993 20.33138551 85.49767303 20.43969727 C87.92678215 20.49935305 90.35597684 20.55342199 92.78521729 20.60742188 C94.25948846 20.64422536 95.73375245 20.68131841 97.20800781 20.71875 C99.14441132 20.76418945 99.14441132 20.76418945 101.11993408 20.81054688 C104 21 104 21 105 22 C105.125 24.5 105.125 24.5 105 27 C100.87039154 31.12960846 88.44515517 29.16342764 83.1875 29.16796875 C81.8144528 29.17119545 80.44140592 29.17456048 79.06835938 29.17805481 C76.18016776 29.18403551 73.29200596 29.18589673 70.40380859 29.18530273 C67.51083948 29.1852228 64.6180332 29.1919473 61.72509766 29.20581055 C41.39829041 29.30190736 21.2676448 28.58736576 1 27 C1 29.97 1 32.94 1 36 C2.24136719 35.98839844 3.48273438 35.97679687 4.76171875 35.96484375 C6.40364432 35.95546132 8.04557153 35.9463616 9.6875 35.9375 C10.91243164 35.92493164 10.91243164 35.92493164 12.16210938 35.91210938 C12.95810547 35.90888672 13.75410156 35.90566406 14.57421875 35.90234375 C15.30213623 35.89710693 16.03005371 35.89187012 16.7800293 35.88647461 C19 36 19 36 21.17793274 36.48951721 C24.60224656 37.10894018 27.89319326 37.2005453 31.37304688 37.28125 C32.09726334 37.29929688 32.8214798 37.31734375 33.56764221 37.3359375 C35.13355463 37.37440778 36.69951722 37.41087759 38.26551819 37.44555664 C40.74577276 37.5005997 43.22584111 37.56111425 45.70593262 37.62304688 C50.97051053 37.75354749 56.23523605 37.87726538 61.5 38 C67.60233109 38.14226038 73.70456839 38.28731647 79.80665588 38.43969727 C82.2466457 38.49915674 84.686716 38.55338559 87.12683105 38.60742188 C88.62687809 38.64427402 90.12691914 38.68137039 91.62695312 38.71875 C92.93313599 38.74904297 94.23931885 38.77933594 95.58508301 38.81054688 C98.50708334 38.97265392 101.15893942 39.32787361 104 40 C104 41.98 104 43.96 104 46 C99.28439131 48.40599611 94.93642283 48.30547066 89.76953125 48.30078125 C88.38389984 48.30890839 88.38389984 48.30890839 86.97027588 48.31719971 C83.91754368 48.32877915 80.86523462 48.32224255 77.8125 48.3125 C76.76875214 48.31200653 75.72500427 48.31151306 74.64962769 48.31100464 C57.41973557 48.28628832 40.25841812 47.61802836 23.0625 46.5625 C21.95548737 46.49519684 20.84847473 46.42789368 19.70791626 46.35855103 C16.58724506 46.16497299 13.46737205 45.96227233 10.34765625 45.75390625 C9.41141418 45.69342102 8.47517212 45.63293579 7.51055908 45.57061768 C1.11850054 45.11850054 1.11850054 45.11850054 0 44 C-0.0927833 42.61839885 -0.11747043 41.23211962 -0.11352539 39.84741211 C-0.11341209 38.52615578 -0.11341209 38.52615578 -0.11329651 37.1782074 C-0.10555458 35.74227989 -0.10555458 35.74227989 -0.09765625 34.27734375 C-0.0962413 33.30213272 -0.09482635 32.32692169 -0.09336853 31.32215881 C-0.08775133 28.19390857 -0.07519593 25.06572877 -0.0625 21.9375 C-0.05748722 19.82226666 -0.05292393 17.70703219 -0.04882812 15.59179688 C-0.03777631 10.39450704 -0.02102146 5.19725855 0 0 Z " fill="#F2BCC8" transform="translate(0,40)"/>
<path d="M0 0 C36.96 0 73.92 0 112 0 C112 5.28 112 10.56 112 16 C74.6649567 16.21456921 37.29859697 15.74257859 0 14 C0 9.38 0 4.76 0 0 Z " fill="#F8C7D3" transform="translate(0,0)"/>
<path d="M0 0 C23.7050331 -0.07546878 47.39935081 0.11833362 71.10174561 0.46356201 C75.40113912 0.52564899 79.70057121 0.58494662 84 0.64453125 C92.33337173 0.76040623 100.66669848 0.87918106 109 1 C109 3.97 109 6.94 109 10 C98.92251209 10.04698353 88.84505152 10.08219598 78.76747513 10.10362434 C74.0846893 10.11392487 69.40198005 10.12782196 64.71923828 10.15087891 C43.04788566 10.2548548 21.59082862 10.06391591 0 8 C0 5.36 0 2.72 0 0 Z " fill="#D13D2F" transform="translate(1,50)"/>
<path d="M0 0 C1.68186401 0.47542236 1.68186401 0.47542236 3.39770508 0.96044922 C8.14511359 2.14110806 12.76158828 2.44379879 17.63671875 2.6328125 C19.03710892 2.69529175 19.03710892 2.69529175 20.46578979 2.7590332 C23.5393631 2.89141563 26.61325727 3.00927288 29.6875 3.125 C31.26964798 3.18853668 31.26964798 3.18853668 32.88375854 3.25335693 C58.58440553 4.27175311 84.28435515 4.19966755 110 4 C110 6.97 110 9.94 110 13 C99.86858026 13.77614653 89.78986983 14.23470298 79.625 14.25 C78.90195679 14.25233643 78.17891357 14.25467285 77.43395996 14.25708008 C52.26776833 14.28668895 27.11179616 12.48828368 2 11 C2 10.34 2 9.68 2 9 C1.34 9 0.68 9 0 9 C0 6.03 0 3.06 0 0 Z " fill="#C9382C" transform="translate(0,101)"/>
<path d="M0 0 C2.87526069 0.1416533 5.75013536 0.28818532 8.625 0.4375 C9.43324219 0.47681641 10.24148438 0.51613281 11.07421875 0.55664062 C12.26337891 0.61948242 12.26337891 0.61948242 13.4765625 0.68359375 C14.5605835 0.73858032 14.5605835 0.73858032 15.66650391 0.79467773 C18 1 18 1 20.52954102 1.48681641 C25.68722391 2.24949312 30.84395797 2.35558212 36.05078125 2.52734375 C37.2353743 2.56866928 38.41996735 2.60999481 39.64045715 2.65257263 C53.153233 3.10386099 66.66936908 3.3410987 80.1875 3.5625 C82.7141969 3.60587607 85.24088965 3.64949495 87.76757812 3.69335938 C93.84500735 3.79835362 99.92247975 3.90042115 106 4 C108.125 8.625 108.125 8.625 107 12 C102.47547594 13.12887889 98.02386128 13.16102507 93.390625 13.16796875 C92.10131828 13.17418495 92.10131828 13.17418495 90.78596497 13.18052673 C87.94060106 13.19029363 85.0953783 13.19016241 82.25 13.1875 C81.27400848 13.18756042 80.29801697 13.18762085 79.29244995 13.18768311 C62.86946997 13.17336098 46.47228383 12.76692534 30.0625 12.125 C28.46190735 12.06619156 28.46190735 12.06619156 26.82897949 12.00619507 C23.79300853 11.89204251 20.75789346 11.76491528 17.72265625 11.6328125 C16.82456741 11.59937241 15.92647858 11.56593231 15.00117493 11.53147888 C9.53983217 11.27126786 4.95322176 10.47661088 0 8 C0 5.36 0 2.72 0 0 Z " fill="#F3BAC7" transform="translate(0,93)"/>
<path d="M0 0 C22.56086916 -0.21329113 45.09952651 0.37130883 67.65161133 0.92712402 C72.66742565 1.05005863 77.68332577 1.16938814 82.69921875 1.2890625 C92.46623075 1.52260476 102.23314461 1.760003 112 2 C111.125 7.75 111.125 7.75 110 10 C99.80160163 10.02339192 89.60320987 10.04104961 79.40478992 10.05181217 C74.6669042 10.05698322 69.92903711 10.06397285 65.19116211 10.07543945 C16.3695756 10.19035201 16.3695756 10.19035201 0 8 C0 5.36 0 2.72 0 0 Z " fill="#D84536" transform="translate(0,14)"/>
<path d="M0 0 C0.66 0 1.32 0 2 0 C2 0.66 2 1.32 2 2 C3.29357422 1.9836853 3.29357422 1.9836853 4.61328125 1.96704102 C14.23767745 1.90034608 23.79376437 2.27675422 33.40240479 2.7979126 C57.58981439 4.09767542 81.78346037 4.60130714 106 5 C106.99 8.465 106.99 8.465 108 12 C99.51151236 16.24424382 86.23161378 14.1979952 76.8125 14.1875 C75.67870407 14.18808914 75.67870407 14.18808914 74.52200317 14.18869019 C61.1434067 14.18053092 47.79905432 13.71390579 34.4375 13.0625 C33.54253815 13.01902435 32.64757629 12.97554871 31.72549438 12.93075562 C23.99179094 12.54788666 16.25682434 12.13941025 8.53515625 11.55859375 C7.73601807 11.49857178 6.93687988 11.4385498 6.11352539 11.37670898 C4 11 4 11 0 9 C0 6.03 0 3.06 0 0 Z " fill="#F1B5C2" transform="translate(0,110)"/>
<path d="M0 0 C1.85395386 0.13631836 1.85395386 0.13631836 3.74536133 0.27539062 C39.22991519 2.83409435 74.44550268 3.37842495 110 3 C110 5.97 110 8.94 110 12 C98.89062124 12.02318375 87.78124824 12.04094587 76.6718502 12.05181217 C71.51315836 12.05702778 66.35448309 12.06410147 61.19580078 12.07543945 C56.21617088 12.08631526 51.23655691 12.0922868 46.25691605 12.09487724 C44.35835138 12.09672302 42.45978758 12.10032735 40.56122971 12.10573006 C37.89936193 12.11300274 35.23755973 12.11398831 32.57568359 12.11352539 C31.79309174 12.11712067 31.01049988 12.12071594 30.20419312 12.12442017 C26.02467726 12.11656977 22.10150543 11.79733952 18 11 C16.6635145 10.88046188 15.3246282 10.78358984 13.984375 10.71875 C13.29085938 10.68136719 12.59734375 10.64398438 11.8828125 10.60546875 C10.44535041 10.53438546 9.0078492 10.46408948 7.5703125 10.39453125 C2.20647321 10.10323661 2.20647321 10.10323661 0 9 C0 6.03 0 3.06 0 0 Z " fill="#CD3C2F" transform="translate(0,84)"/>
<path d="M0 0 C1.61994873 0.05986084 3.23989746 0.11972168 4.90893555 0.18139648 C25.65224332 0.93081971 46.39893591 1.47740658 67.14910889 1.99578857 C71.66258183 2.10884002 76.17601543 2.22344205 80.68945312 2.33789062 C89.45959886 2.56006066 98.22978469 2.78059343 107 3 C107 5.64 107 8.28 107 11 C98.21684564 11.02366125 89.433703 11.0411783 80.65052319 11.05181217 C76.56770351 11.05692787 72.48490633 11.06380573 68.40209961 11.07543945 C45.58208602 11.13875359 22.80670569 10.79442012 0 10 C0 6.7 0 3.4 0 0 Z " fill="#F5C2CF" transform="translate(0,22)"/>
<path d="M0 0 C4.06706246 0.12137572 8.13402556 0.24567981 12.20092773 0.37231445 C14.23742393 0.43518236 16.27398458 0.49595167 18.31054688 0.55664062 C19.66147445 0.59844051 21.01238583 0.64076724 22.36328125 0.68359375 C23.41386467 0.71681984 23.41386467 0.71681984 24.485672 0.75071716 C28.06239156 0.87201885 31.63224775 1.02844335 35.20385742 1.25610352 C49.68537355 2.17066779 64.14867051 2.11746376 78.65478516 2.06866455 C82.08820972 2.05825211 85.52164218 2.05382941 88.95507812 2.04882812 C95.63673857 2.03792685 102.31836498 2.02128847 109 2 C109 4.97 109 7.94 109 11 C97.8733505 11.02317143 86.74670675 11.04093962 75.62003803 11.05181217 C70.45347046 11.05703047 65.2869194 11.06410906 60.12036133 11.07543945 C55.13425217 11.08630567 50.14815889 11.09228478 45.1620388 11.09487724 C43.25985654 11.09672474 41.35767515 11.10033242 39.45549965 11.10573006 C36.7910334 11.11299 34.12663275 11.11398884 31.4621582 11.11352539 C30.2828775 11.1189183 30.2828775 11.1189183 29.07977295 11.12442017 C25.25223108 11.11721736 21.72396311 10.89263939 18 10 C16.52725994 9.86378815 15.05137251 9.75798279 13.57421875 9.68359375 C12.77822266 9.64169922 11.98222656 9.59980469 11.16210938 9.55664062 C10.34548828 9.51732422 9.52886719 9.47800781 8.6875 9.4375 C7.85154297 9.39431641 7.01558594 9.35113281 6.15429688 9.30664062 C4.10303065 9.20114693 2.0515352 9.10012685 0 9 C0 6.03 0 3.06 0 0 Z " fill="#CF3D2F" transform="translate(1,67)"/>
<path d="M0 0 C2.09214844 0.30679688 4.18429688 0.61359375 6.33984375 0.9296875 C15.38904566 2.17140341 24.44351068 2.70082557 33.5625 3.125 C34.43243591 3.16735779 35.30237183 3.20971558 36.19866943 3.25335693 C61.11526747 4.43698077 86.06307492 4.1898849 111 4 C111 6.64 111 9.28 111 12 C104.060984 13.06074467 97.24649744 13.16126865 90.234375 13.16796875 C89.00575745 13.17129715 87.77713989 13.17462555 86.5112915 13.17805481 C83.91247937 13.18310546 81.31366079 13.18546371 78.71484375 13.18530273 C74.80457349 13.18746976 70.8945947 13.20559176 66.984375 13.22460938 C53.54427895 13.25436447 40.40836437 12.7967776 27.06384277 11.22122192 C21.97621574 10.67588259 16.8613504 10.53683695 11.75 10.375 C10.69554687 10.33632812 9.64109375 10.29765625 8.5546875 10.2578125 C6.03659756 10.16624559 3.51847243 10.08021028 1 10 C1 12.64 1 15.28 1 18 C0.67 18 0.34 18 0 18 C0 12.06 0 6.12 0 0 Z " fill="#C33329" transform="translate(0,119)"/>
<path d="M0 0 C33.72912196 -0.19006441 33.72912196 -0.19006441 49.38427734 0.57177734 C61.60378446 1.13375242 73.83323561 1.32401879 86.0625 1.5625 C87.19335022 1.58464569 88.32420044 1.60679138 89.48931885 1.62960815 C95.99281888 1.75635497 102.49637311 1.87994152 109 2 C109 4.64 109 7.28 109 10 C100.76513937 10.0235959 92.5302938 10.04114762 84.2954073 10.05181217 C80.46800318 10.05694108 76.64062285 10.06384636 72.81323242 10.07543945 C48.50982211 10.14696543 24.23715293 10.02512988 0 8 C0 5.36 0 2.72 0 0 Z " fill="#D03E30" transform="translate(0,32)"/>
<path d="M0 0 C15.19660852 -0.19469391 30.28444634 -0.30633643 45.4375 1 C66.8876069 2.81268509 88.49365756 2.17382764 110 2 C109.67 4.64 109.34 7.28 109 10 C95.87184377 10.94006781 82.78505477 11.23740132 69.625 11.25 C68.59994354 11.25200409 67.57488708 11.25400818 66.51876831 11.256073 C50.82115188 11.26350221 35.21875163 10.69371371 19.5625 9.5625 C18.62182678 9.4951062 17.68115356 9.4277124 16.7119751 9.35827637 C14.07936889 9.16534813 11.44778375 8.96287658 8.81640625 8.75390625 C8.03337631 8.69342606 7.25034637 8.63294586 6.44358826 8.57063293 C1.1194923 8.1194923 1.1194923 8.1194923 0 7 C-0.04092937 4.66702567 -0.04241723 2.33294775 0 0 Z " fill="#C53227" transform="translate(1,138)"/>
<path d="M0 0 C4.83804966 -0.02487921 9.67606135 -0.04294428 14.51416016 -0.05493164 C16.15707041 -0.05993363 17.79997627 -0.06673733 19.44287109 -0.07543945 C21.81609181 -0.0876874 24.18925323 -0.09326979 26.5625 -0.09765625 C27.28679199 -0.10281754 28.01108398 -0.10797882 28.75732422 -0.11329651 C32.7814435 -0.11373064 36.59623734 0.21277312 40.58959961 0.76072693 C46.36739363 1.33427086 52.19811687 1.24655564 58 1.31640625 C59.4458877 1.33701244 60.89176987 1.35800978 62.33764648 1.37937927 C66.11866747 1.43422192 69.89973935 1.48379572 73.68084717 1.53222656 C77.54899555 1.58272006 81.41707123 1.63825984 85.28515625 1.69335938 C92.85670903 1.80047753 100.42832282 1.90202271 108 2 C107.125 7.875 107.125 7.875 106 9 C84.9845639 12.3572835 63.42059181 11.40382033 42.31298828 9.78442383 C31.63915523 8.98129905 20.97932685 8.59934824 10.28100586 8.34204102 C9.07968018 8.31037842 7.87835449 8.27871582 6.640625 8.24609375 C5.57360352 8.22216553 4.50658203 8.1982373 3.40722656 8.17358398 C1 8 1 8 0 7 C-0.04092937 4.66702567 -0.04241723 2.33294775 0 0 Z " fill="#EFB1BF" transform="translate(2,130)"/>
<path d="M0 0 C0.33 0 0.66 0 1 0 C1 45.87 1 91.74 1 139 C-2.96 139 -6.92 139 -11 139 C-9.48546463 135.97092926 -6.82523161 135.42648608 -3.8125 134.09765625 C-1.66085901 133.06201927 -1.66085901 133.06201927 -1 130 C-6.61 130 -12.22 130 -18 130 C-18 129.67 -18 129.34 -18 129 C-12.39 129 -6.78 129 -1 129 C-0.67 126.36 -0.34 123.72 0 121 C-1.134375 121.165 -2.26875 121.33 -3.4375 121.5 C-10.92138718 122.35427008 -18.48015007 122.07770224 -26 122 C-26 121.67 -26 121.34 -26 121 C-14.615 120.01 -14.615 120.01 -3 119 C-2.34 117.02 -1.68 115.04 -1 113 C-3.31 113 -5.62 113 -8 113 C-8 112.67 -8 112.34 -8 112 C-5.36 112 -2.72 112 0 112 C0 109.36 0 106.72 0 104 C-1.65 104 -3.3 104 -5 104 C-4.67 103.34 -4.34 102.68 -4 102 C-4.33 100.35 -4.66 98.7 -5 97 C-8.63 96.67 -12.26 96.34 -16 96 C-16 95.67 -16 95.34 -16 95 C-11.05 95 -6.1 95 -1 95 C-1 92.03 -1 89.06 -1 86 C-1.99 86 -2.98 86 -4 86 C-4.495 82.535 -4.495 82.535 -5 79 C-23.15 78.67 -41.3 78.34 -60 78 C-60 77.67 -60 77.34 -60 77 C-40.53 77 -21.06 77 -1 77 C-1 74.03 -1 71.06 -1 68 C-4.3 68 -7.6 68 -11 68 C-9.02 67.505 -9.02 67.505 -7 67 C-7 65.02 -7 63.04 -7 61 C-19.54 60.67 -32.08 60.34 -45 60 C-45 59.67 -45 59.34 -45 59 C-30.48 59 -15.96 59 -1 59 C-1 56.03 -1 53.06 -1 50 C-2.61068359 50.24447876 -2.61068359 50.24447876 -4.25390625 50.49389648 C-9.81211198 51.18478779 -15.34428594 51.12452855 -20.9375 51.09765625 C-22.05817871 51.0962413 -23.17885742 51.09482635 -24.33349609 51.09336853 C-27.88902533 51.08780139 -31.44449002 51.07525498 -35 51.0625 C-37.420572 51.05748075 -39.841145 51.05291859 -42.26171875 51.04882812 C-48.17450094 51.03784272 -54.08724585 51.02113752 -60 51 C-60 50.67 -60 50.34 -60 50 C-59.43925278 49.98969254 -58.87850555 49.97938507 -58.30076599 49.96876526 C-52.44413627 49.86026045 -46.58764681 49.74570067 -40.73120117 49.62768555 C-38.54796291 49.58447714 -36.36469392 49.54279261 -34.18139648 49.50268555 C-31.03620154 49.44464025 -27.89115925 49.3810458 -24.74609375 49.31640625 C-23.7760289 49.29969376 -22.80596405 49.28298126 -21.8065033 49.26576233 C-16.78249853 49.15689437 -11.95586541 48.84144905 -7 48 C-7 46.35 -7 44.7 -7 43 C-26.8 42.505 -26.8 42.505 -47 42 C-47 41.67 -47 41.34 -47 41 C-31.82 41 -16.64 41 -1 41 C-1 38.03 -1 35.06 -1 32 C-1.66 32 -2.32 32 -3 32 C-3.1953125 29.94921875 -3.390625 27.8984375 -3.5859375 25.84765625 C-3.79089844 24.93306641 -3.79089844 24.93306641 -4 24 C-4.66 23.67 -5.32 23.34 -6 23 C-4.68 23 -3.36 23 -2 23 C-2 20.36 -2 17.72 -2 15 C-18.17 15 -34.34 15 -51 15 C-51 14.67 -51 14.34 -51 14 C-35.49 14 -19.98 14 -4 14 C-4 11.36 -4 8.72 -4 6 C-14.23 6 -24.46 6 -35 6 C-35 5.67 -35 5.34 -35 5 C-23.78 5 -12.56 5 -1 5 C-0.67 3.35 -0.34 1.7 0 0 Z " fill="#D9848F" transform="translate(111,19)"/>
<path d="M0 0 C20.35587287 -0.16302489 40.67868863 0.24332364 61.02539062 0.79956055 C65.34360085 0.91745362 69.66197542 1.02745089 73.98044014 1.13556576 C77.33465874 1.22053414 80.68874675 1.30996802 84.04281235 1.40075874 C85.63844761 1.44332119 87.23412393 1.48437257 88.8298378 1.5238781 C91.03010558 1.57891498 93.2301184 1.64006163 95.43017578 1.70288086 C97.30323898 1.75284462 97.30323898 1.75284462 99.21414185 1.80381775 C102 2 102 2 103 3 C103.125 5.5 103.125 5.5 103 8 C99.96806126 11.03193874 92.52796299 10.12644462 88.46069336 10.12939453 C87.20506088 10.13254669 85.94942841 10.13569885 84.65574646 10.13894653 C83.3004452 10.13715502 81.94514426 10.13510364 80.58984375 10.1328125 C79.176071 10.13348771 77.76229836 10.13445953 76.348526 10.13571167 C73.3889963 10.13718181 70.42949687 10.13505837 67.4699707 10.13037109 C63.71728786 10.12471094 59.96467715 10.12793346 56.21199703 10.13394356 C53.29050681 10.1375992 50.36903298 10.1363873 47.44754219 10.13381577 C46.06636102 10.13315832 44.68517825 10.13393247 43.30399895 10.13629532 C31.17518381 10.15247758 19.14977954 9.55760503 7.125 7.9375 C6.07505859 7.80118164 6.07505859 7.80118164 5.00390625 7.66210938 C3.33546802 7.44498385 1.6676531 7.22307567 0 7 C0 4.69 0 2.38 0 0 Z " fill="#F3C1CF" transform="translate(2,59)"/>
<path d="M0 0 C1.17113799 0.00138269 1.17113799 0.00138269 2.36593533 0.00279331 C3.70584782 0.00073132 3.70584782 0.00073132 5.07282925 -0.00137234 C6.55420376 0.00402058 6.55420376 0.00402058 8.06550503 0.00952244 C9.09952953 0.00937641 10.13355404 0.00923038 11.19891262 0.00907993 C14.63485175 0.00977956 18.07073742 0.01757425 21.50666714 0.02539158 C23.88178382 0.02725558 26.25690089 0.02867957 28.63201809 0.0296793 C34.89727233 0.03350586 41.16250356 0.04333732 47.42774868 0.05438328 C53.81537979 0.06459443 60.2030146 0.06917628 66.59065151 0.0742197 C79.13428115 0.08495947 91.6778948 0.10184656 104.22151089 0.12304783 C103.89151089 2.43304783 103.56151089 4.74304783 103.22151089 7.12304783 C82.54017274 7.2910417 61.86458836 7.03687157 41.18602657 6.71732807 C39.10930772 6.68574246 37.03257203 6.65566751 34.95582485 6.62600803 C30.97919301 6.56887787 27.00270748 6.50457874 23.02619839 6.43945408 C21.84364468 6.42273655 20.66109097 6.40601902 19.44270229 6.3887949 C11.34221128 6.24684704 3.29667579 5.77361071 -4.77848911 5.12304783 C-2.37924608 0.16461223 -2.37924608 0.16461223 0 0 Z " fill="#D05650" transform="translate(7.778489112854004,-0.1230478286743164)"/>
<path d="M0 0 C14.60036561 -0.20313009 29.01781722 -0.21534991 43.5625 1.21386719 C57.66282154 2.53812867 71.84799543 2.67907512 86 3 C86 3.66 86 4.32 86 5 C81.81283133 7.03561424 78.10293272 7.26175507 73.53515625 7.18286133 C72.4342012 7.17589737 72.4342012 7.17589737 71.31100464 7.16879272 C68.89460514 7.15047256 66.47871282 7.11694035 64.0625 7.08203125 C62.37769075 7.06346146 60.69287608 7.04537682 59.00805664 7.02775574 C55.48082959 6.98830157 51.95381352 6.94095138 48.42675781 6.88842773 C43.91094525 6.82209951 39.39523834 6.77848028 34.87910461 6.74116993 C31.40108347 6.70939906 27.92333869 6.66401113 24.44552612 6.61469078 C22.78064256 6.59301066 21.11569268 6.57591273 19.45071411 6.56351662 C17.12164342 6.5444417 14.7935885 6.50664037 12.46484375 6.46411133 C11.78001923 6.46240433 11.0951947 6.46069733 10.38961792 6.4589386 C6.15323151 6.35667202 3.31393935 5.70287086 0 3 C0 2.01 0 1.02 0 0 Z " fill="#F2BAC8" transform="translate(4,147)"/>
<path d="M0 0 C0.598125 0.78375 1.19625 1.5675 1.8125 2.375 C4.70396937 5.8572142 4.70396937 5.8572142 8.88122559 7.23377991 C9.94065369 7.22259377 9.94065369 7.22259377 11.02148438 7.21118164 C12.22919495 7.20611351 12.22919495 7.20611351 13.46130371 7.20094299 C14.33001099 7.18748337 15.19871826 7.17402374 16.09375 7.16015625 C16.99565063 7.15495468 17.89755127 7.14975311 18.82678223 7.14439392 C21.71801783 7.12657239 24.60890041 7.09546277 27.5 7.0625 C49.65755612 6.84728725 49.65755612 6.84728725 57.56152344 7.74389648 C63.32121497 8.34881403 69.13646665 8.40520461 74.921875 8.60546875 C75.89382812 8.64285156 76.86578125 8.68023437 77.8671875 8.71875 C79.16825439 8.76418945 79.16825439 8.76418945 80.49560547 8.81054688 C83.06351229 9.0048046 85.48772618 9.44384348 88 10 C88 10.33 88 10.66 88 11 C58.96 11 29.92 11 0 11 C0 7.37 0 3.74 0 0 Z " fill="#957E85" transform="translate(0,147)"/>
<path d="M0 0 C1.2375 -0.00128906 2.475 -0.00257812 3.75 -0.00390625 C5.71066406 0.00189453 5.71066406 0.00189453 7.7109375 0.0078125 C8.96390625 0.00394531 10.216875 0.00007813 11.5078125 -0.00390625 C19.11365315 0.00390262 26.63649436 0.32328656 34.22070312 0.87890625 C41.14806501 1.33396287 48.08472643 1.50082855 55.0234375 1.6953125 C56.49675228 1.73867873 57.97005964 1.78229746 59.44335938 1.82617188 C62.99080527 1.93127931 66.53833736 2.03302923 70.0859375 2.1328125 C70.0859375 2.4628125 70.0859375 2.7928125 70.0859375 3.1328125 C58.8659375 3.1328125 47.6459375 3.1328125 36.0859375 3.1328125 C36.0859375 3.7928125 36.0859375 4.4528125 36.0859375 5.1328125 C21.2359375 5.1328125 6.3859375 5.1328125 -8.9140625 5.1328125 C-6.14387072 -0.40757105 -5.95843227 0.00603167 0 0 Z " fill="#CF463B" transform="translate(11.9140625,-0.1328125)"/>
<path d="M0 0 C17.49 0 34.98 0 53 0 C52 4 52 4 50.35546875 5.484375 C38.99670783 12.11543543 25.45344361 8.54976187 13 7 C13 6.67 13 6.34 13 6 C18.94 6 24.88 6 31 6 C31 5.34 31 4.68 31 4 C30.34 3.67 29.68 3.34 29 3 C30.32 3 31.64 3 33 3 C33 2.34 33 1.68 33 1 C22.11 1 11.22 1 0 1 C0 0.67 0 0.34 0 0 Z " fill="#E397A4" transform="translate(57,149)"/>
<path d="M0 0 C15.73753168 -0.05016213 31.47354206 0.03689914 47.20979691 0.23571968 C50.81009252 0.28098539 54.410253 0.3202298 58.01074219 0.34643555 C61.55593232 0.37238623 65.10068878 0.41264322 68.64561081 0.46318626 C70.62811414 0.48783431 72.61078183 0.49787446 74.59341431 0.50764465 C75.78671356 0.52743881 76.98001282 0.54723297 78.20947266 0.56762695 C79.25865875 0.57873001 80.30784485 0.58983307 81.38882446 0.60127258 C84 1 84 1 85.86190796 2.15202332 C87 4 87 4 87 10 C62.91 10 38.82 10 14 10 C14 9.67 14 9.34 14 9 C14.80988373 8.98969254 15.61976746 8.97938507 16.45419312 8.96876526 C24.07660716 8.87089635 31.69893804 8.76839719 39.32121849 8.66066074 C43.24015849 8.60543316 47.15910595 8.55201343 51.078125 8.50268555 C54.8582888 8.45503954 58.63836074 8.40269667 62.41841507 8.34705925 C63.86252183 8.32663676 65.30665377 8.30792349 66.7508049 8.29092598 C68.76931251 8.26687994 70.78773862 8.23626123 72.80615234 8.20532227 C74.53156754 8.18200584 74.53156754 8.18200584 76.2918396 8.15821838 C78.9676465 8.18046271 78.9676465 8.18046271 81 7 C81.65213292 4.97536745 81.65213292 4.97536745 82 3 C81.23817413 2.98969254 80.47634827 2.97938507 79.69143677 2.96876526 C72.42720978 2.86980744 65.16304748 2.76717602 57.89892769 2.66066074 C54.16652917 2.60605489 50.43412254 2.55275239 46.70166016 2.50268555 C14.9886425 2.0755189 14.9886425 2.0755189 0 1 C0 0.67 0 0.34 0 0 Z " fill="#EAA3AD" transform="translate(21,41)"/>
<path d="M0 0 C0.99 0.33 1.98 0.66 3 1 C3 13.21 3 25.42 3 38 C-0.96 38 -4.92 38 -9 38 C-7.48546463 34.97092926 -4.82523161 34.42648608 -1.8125 33.09765625 C0.33914099 32.06201927 0.33914099 32.06201927 1 29 C-4.61 29 -10.22 29 -16 29 C-16 28.67 -16 28.34 -16 28 C-10.39 28 -4.78 28 1 28 C1.33 25.36 1.66 22.72 2 20 C0.2984375 20.2475 0.2984375 20.2475 -1.4375 20.5 C-8.92138718 21.35427008 -16.48015007 21.07770224 -24 21 C-24 20.67 -24 20.34 -24 20 C-16.41 19.34 -8.82 18.68 -1 18 C-0.34 16.02 0.32 14.04 1 12 C-1.31 12 -3.62 12 -6 12 C-6 11.67 -6 11.34 -6 11 C-3.36 11 -0.72 11 2 11 C2 8.36 2 5.72 2 3 C0.35 3 -1.3 3 -3 3 C-2.01 2.67 -1.02 2.34 0 2 C0 1.34 0 0.68 0 0 Z " fill="#CF7783" transform="translate(109,120)"/>
<path d="M0 0 C0.33 0 0.66 0 1 0 C0.67 9.57 0.34 19.14 0 29 C-0.66 29 -1.32 29 -2 29 C-2.1953125 26.94921875 -2.390625 24.8984375 -2.5859375 22.84765625 C-2.79089844 21.93306641 -2.79089844 21.93306641 -3 21 C-3.66 20.67 -4.32 20.34 -5 20 C-3.68 20 -2.36 20 -1 20 C-1 17.36 -1 14.72 -1 12 C-17.17 12 -33.34 12 -50 12 C-50 11.67 -50 11.34 -50 11 C-34.49 11 -18.98 11 -3 11 C-3 8.36 -3 5.72 -3 3 C-13.23 3 -23.46 3 -34 3 C-34 2.67 -34 2.34 -34 2 C-22.78 2 -11.56 2 0 2 C0 1.34 0 0.68 0 0 Z " fill="#D77C80" transform="translate(110,22)"/>
<path d="M0 0 C0.598125 0.78375 1.19625 1.5675 1.8125 2.375 C3.91085249 5.14574323 3.91085249 5.14574323 7 7 C9.94730302 7.14902303 12.79802075 7.18368347 15.7421875 7.125 C17.54052567 7.10789551 19.33886559 7.09097534 21.13720703 7.07421875 C22.07614807 7.06181152 23.01508911 7.0494043 23.98248291 7.03662109 C39.44309163 6.84088002 54.6579609 6.84673135 70 9 C70 9.33 70 9.66 70 10 C66.20834926 10.0289337 62.41672673 10.04677601 58.625 10.0625 C57.54476562 10.07087891 56.46453125 10.07925781 55.3515625 10.08789062 C53.8046875 10.09272461 53.8046875 10.09272461 52.2265625 10.09765625 C51.27346191 10.10289307 50.32036133 10.10812988 49.33837891 10.11352539 C47 10 47 10 45 9 C42.73089029 8.90221834 40.45871058 8.87024354 38.1875 8.875 C36.96417969 8.87242187 35.74085937 8.86984375 34.48046875 8.8671875 C31.1586915 8.89875325 31.1586915 8.89875325 28.58911133 9.49560547 C24.2500779 10.34090892 19.90822008 10.22574569 15.5 10.25 C14.56285156 10.270625 13.62570312 10.29125 12.66015625 10.3125 C3.65474848 10.36359451 3.65474848 10.36359451 0 7 C-0.3125 3.3125 -0.3125 3.3125 0 0 Z " fill="#4A2E35" transform="translate(0,147)"/>
<path d="M0 0 C28.74428567 -0.239874 57.31402448 0.06842285 86 2 C86 2.33 86 2.66 86 3 C78.25263411 3.05178375 70.50531457 3.08617351 62.7578125 3.10986328 C60.13598163 3.11861067 57.51438665 3.13328956 54.89257812 3.15087891 C36.47694556 3.27110385 18.34407613 2.59987099 0 1 C0 0.67 0 0.34 0 0 Z " fill="#D3544D" transform="translate(1,57)"/>
<path d="M0 0 C22.11 0 44.22 0 67 0 C67 0.66 67 1.32 67 2 C62.56295271 2.19940261 58.125366 2.38231597 53.6875 2.5625 C52.44419922 2.61857422 51.20089844 2.67464844 49.91992188 2.73242188 C43.46676859 2.98648303 37.27275705 2.94339993 30.85620117 2.24243164 C25.02236746 1.74726138 19.16270804 1.89807403 13.3125 1.9375 C12.02666016 1.94201172 10.74082031 1.94652344 9.41601562 1.95117188 C6.27729347 1.96283999 3.13867272 1.97920985 0 2 C0 1.34 0 0.68 0 0 Z " fill="#C78897" transform="translate(21,153)"/>
<path d="M0 0 C1.51400391 0.01740234 1.51400391 0.01740234 3.05859375 0.03515625 C4.07050781 0.04417969 5.08242187 0.05320312 6.125 0.0625 C7.29869141 0.07990234 7.29869141 0.07990234 8.49609375 0.09765625 C8.49609375 3.06765625 8.49609375 6.03765625 8.49609375 9.09765625 C4.53609375 9.09765625 0.57609375 9.09765625 -3.50390625 9.09765625 C-3.6015625 2.9453125 -3.6015625 2.9453125 -3.50390625 1.09765625 C-2.50390625 0.09765625 -2.50390625 0.09765625 0 0 Z " fill="#AE231C" transform="translate(101.50390625,86.90234375)"/>
<path d="M0 0 C1.17175781 -0.05607422 1.17175781 -0.05607422 2.3671875 -0.11328125 C3.12 -0.12488281 3.8728125 -0.13648437 4.6484375 -0.1484375 C5.68363525 -0.1781665 5.68363525 -0.1781665 6.73974609 -0.20849609 C8.625 0.375 8.625 0.375 11.625 5.375 C4.035 5.375 -3.555 5.375 -11.375 5.375 C-8.34612273 -0.68275454 -6.35515937 0.11422672 0 0 Z " fill="#DE4534" transform="translate(14.375,-0.375)"/>
<path d="M0 0 C1.67739258 0.00966797 1.67739258 0.00966797 3.38867188 0.01953125 C5.13954102 0.04466797 5.13954102 0.04466797 6.92578125 0.0703125 C8.69405273 0.08384766 8.69405273 0.08384766 10.49804688 0.09765625 C13.41166151 0.12124827 16.32487017 0.1541671 19.23828125 0.1953125 C18.90828125 2.5053125 18.57828125 4.8153125 18.23828125 7.1953125 C15.76328125 6.7003125 15.76328125 6.7003125 13.23828125 6.1953125 C13.23828125 5.2053125 13.23828125 4.2153125 13.23828125 3.1953125 C5.97828125 2.8653125 -1.28171875 2.5353125 -8.76171875 2.1953125 C-5.31537993 -0.10224672 -4.05103484 -0.04112726 0 0 Z " fill="#B73D3A" transform="translate(92.76171875,-0.1953125)"/>
<path d="M0 0 C1.30775391 -0.020625 2.61550781 -0.04125 3.96289062 -0.0625 C5.20619141 -0.06765625 6.44949219 -0.0728125 7.73046875 -0.078125 C9.41305786 -0.09214355 9.41305786 -0.09214355 11.12963867 -0.10644531 C12.45765503 0.06999512 12.45765503 0.06999512 13.8125 0.25 C14.4725 1.24 15.1325 2.23 15.8125 3.25 C-5.9675 2.755 -5.9675 2.755 -28.1875 2.25 C-28.1875 1.92 -28.1875 1.59 -28.1875 1.25 C-18.78370003 0.39519945 -9.44099544 0.03847578 0 0 Z " fill="#E2A5B6" transform="translate(69.1875,150.75)"/>
<path d="M0 0 C2.05078125 0.03255208 4.1015625 0.06510417 6.15234375 0.09765625 C6.15234375 3.06765625 6.15234375 6.03765625 6.15234375 9.09765625 C3.18234375 9.09765625 0.21234375 9.09765625 -2.84765625 9.09765625 C-2.9453125 2.9453125 -2.9453125 2.9453125 -2.84765625 1.09765625 C-1.84765625 0.09765625 -1.84765625 0.09765625 0 0 Z " fill="#A82621" transform="translate(103.84765625,50.90234375)"/>
<path d="M0 0 C31.68 0.495 31.68 0.495 64 1 C64 1.33 64 1.66 64 2 C56.68927243 2.17759194 49.37837616 2.3434998 42.06705379 2.49477577 C38.67157748 2.56539161 35.27628434 2.63992641 31.88110352 2.72363281 C27.9717399 2.81983999 24.0621157 2.89861455 20.15234375 2.9765625 C18.94166733 3.00875885 17.73099091 3.0409552 16.48362732 3.0741272 C10.56652575 3.17876774 5.5684611 3.08239834 0 1 C0 0.67 0 0.34 0 0 Z " fill="#E35C50" transform="translate(12,14)"/>
<path d="M0 0 C4.33756144 -0.02505701 8.67508251 -0.04302559 13.01269531 -0.05493164 C14.48275488 -0.05990456 15.95280965 -0.06668527 17.42285156 -0.07543945 C26.32906499 -0.12707848 35.13171416 0.0568142 44 1 C44 1.33 44 1.66 44 2 C34.55011383 2.0720525 25.1303411 1.85344979 15.6875 1.5 C14.34961708 1.45160953 13.01172645 1.40343145 11.67382812 1.35546875 C8.44913725 1.23905392 5.22453917 1.12053154 2 1 C2.33 2.98 2.66 4.96 3 7 C5.97 7 8.94 7 12 7 C12 7.33 12 7.66 12 8 C10.18757948 8.02687279 8.37504767 8.04633715 6.5625 8.0625 C5.55316406 8.07410156 4.54382813 8.08570313 3.50390625 8.09765625 C1 8 1 8 0 7 C-0.04092937 4.66702567 -0.04241723 2.33294775 0 0 Z " fill="#C04340" transform="translate(1,138)"/>
<path d="M0 0 C0.33 0 0.66 0 1 0 C1 3.63 1 7.26 1 11 C-10.88 11 -22.76 11 -35 11 C-35 10.67 -35 10.34 -35 10 C-24.11 10 -13.22 10 -2 10 C-1.67 7.69 -1.34 5.38 -1 3 C-1.66 2.67 -2.32 2.34 -3 2 C-2.01 2 -1.02 2 0 2 C0 1.34 0 0.68 0 0 Z " fill="#E9939B" transform="translate(111,5)"/>
<path d="M0 0 C0.66 0 1.32 0 2 0 C2 0.66 2 1.32 2 2 C6.95 2 11.9 2 17 2 C17 2.33 17 2.66 17 3 C12.71 3 8.42 3 4 3 C4.33 4.98 4.66 6.96 5 9 C5.99 9.66 6.98 10.32 8 11 C1.125 10.125 1.125 10.125 0 9 C-0.07179964 7.48071962 -0.08392007 5.95832518 -0.0625 4.4375 C-0.05347656 3.61121094 -0.04445312 2.78492187 -0.03515625 1.93359375 C-0.02355469 1.29550781 -0.01195312 0.65742187 0 0 Z " fill="#E8A4B1" transform="translate(0,110)"/>
<path d="M0 0 C0.66 0 1.32 0 2 0 C2 2.97 2 5.94 2 9 C-5.26 9 -12.52 9 -20 9 C-15.66061709 6.83030855 -13.51609592 6.78673896 -8.75 6.875 C-7.48671875 6.89304687 -6.2234375 6.91109375 -4.921875 6.9296875 C-3.95765625 6.95289062 -2.9934375 6.97609375 -2 7 C-1.34 4.69 -0.68 2.38 0 0 Z " fill="#B62922" transform="translate(108,105)"/>
<path d="M0 0 C0.33 0 0.66 0 1 0 C0.67 9.57 0.34 19.14 0 29 C-0.66 29 -1.32 29 -2 29 C-2.1953125 26.94921875 -2.390625 24.8984375 -2.5859375 22.84765625 C-2.79089844 21.93306641 -2.79089844 21.93306641 -3 21 C-3.66 20.67 -4.32 20.34 -5 20 C-3.68 20 -2.36 20 -1 20 C-1.165 18.700625 -1.33 17.40125 -1.5 16.0625 C-2.0315638 11.34580713 -2.07529541 6.74361065 -2 2 C-1.34 2 -0.68 2 0 2 C0 1.34 0 0.68 0 0 Z " fill="#B05A68" transform="translate(110,22)"/>
<path d="M0 0 C0.33 0 0.66 0 1 0 C1 2.97 1 5.94 1 9 C-2.96 9 -6.92 9 -11 9 C-9.49429938 5.98859877 -6.89855171 5.4372818 -3.91015625 4.09765625 C-1.68264809 3.00610802 -1.68264809 3.00610802 0 0 Z " fill="#8F797F" transform="translate(111,149)"/>
<path d="M0 0 C3.96 0 7.92 0 12 0 C11.01 0.33 10.02 0.66 9 1 C9 1.99 9 2.98 9 4 C6.03 4.66 3.06 5.32 0 6 C0 4.02 0 2.04 0 0 Z " fill="#EDAEBE" transform="translate(96,149)"/>
<path d="M0 0 C5.94 0.33 11.88 0.66 18 1 C18 1.33 18 1.66 18 2 C13.38 2 8.76 2 4 2 C4 4.64 4 7.28 4 10 C2.68 9.34 1.36 8.68 0 8 C0 5.36 0 2.72 0 0 Z " fill="#E8A0AA" transform="translate(0,93)"/>
<path d="M0 0 C1.65 0 3.3 0 5 0 C5 2.64 5 5.28 5 8 C2.03 8 -0.94 8 -4 8 C-4 7.34 -4 6.68 -4 6 C-3.01 6 -2.02 6 -1 6 C-0.67 4.02 -0.34 2.04 0 0 Z " fill="#9D1711" transform="translate(104,70)"/>
<path d="M0 0 C-0.36579518 2.55510665 -0.70013328 3.72933645 -2.64453125 5.484375 C-9.1435864 9.27841801 -14.57347875 9.56547116 -22 9 C-22 8.67 -22 8.34 -22 8 C-18.37 8 -14.74 8 -11 8 C-10.67 7.01 -10.34 6.02 -10 5 C-8.35 4.67 -6.7 4.34 -5 4 C-5 3.01 -5 2.02 -5 1 C-2 0 -2 0 0 0 Z " fill="#D697A8" transform="translate(110,149)"/>
<path d="M0 0 C3.96 0 7.92 0 12 0 C11.34 0.66 10.68 1.32 10 2 C12.475 2.99 12.475 2.99 15 4 C15 4.33 15 4.66 15 5 C13.06440687 5.13504138 11.126128 5.23201129 9.1875 5.3125 C7.56908203 5.39951172 7.56908203 5.39951172 5.91796875 5.48828125 C4.95503906 5.32714844 3.99210937 5.16601562 3 5 C2.01 3.35 1.02 1.7 0 0 Z " fill="#DA3C29" transform="translate(23,0)"/>
<path d="M0 0 C2.97 0 5.94 0 9 0 C9.33 2.31 9.66 4.62 10 7 C5.545 7.495 5.545 7.495 1 8 C2.32 7.67 3.64 7.34 5 7 C5 5.02 5 3.04 5 1 C3.35 1 1.7 1 0 1 C0 0.67 0 0.34 0 0 Z " fill="#DE99AA" transform="translate(99,79)"/>
<path d="M0 0 C9.24 0 18.48 0 28 0 C28 0.66 28 1.32 28 2 C23.545 2.495 23.545 2.495 19 3 C19 2.67 19 2.34 19 2 C12.73 1.67 6.46 1.34 0 1 C0 0.67 0 0.34 0 0 Z " fill="#EDB1C0" transform="translate(62,150)"/>
<path d="M0 0 C0.33 0 0.66 0 1 0 C1.042721 1.66611905 1.04063832 3.33382885 1 5 C-1.70680545 7.70680545 -8.77225268 7.06610631 -12.5 7.09765625 C-14.0000316 7.09113437 -15.5000494 7.07939719 -17 7.0625 C-18.16208984 7.05573242 -18.16208984 7.05573242 -19.34765625 7.04882812 C-21.23180524 7.03719758 -23.11591365 7.01926906 -25 7 C-25 6.67 -25 6.34 -25 6 C-23.97060303 5.94054199 -23.97060303 5.94054199 -22.92041016 5.87988281 C-19.82035453 5.68970824 -16.72305845 5.47024112 -13.625 5.25 C-12.54476562 5.188125 -11.46453125 5.12625 -10.3515625 5.0625 C-8.8046875 4.94648438 -8.8046875 4.94648438 -7.2265625 4.828125 C-6.27346191 4.7652832 -5.32036133 4.70244141 -4.33837891 4.63769531 C-1.82647187 4.23208686 -1.82647187 4.23208686 -0.67333984 1.94824219 C-0.4511377 1.30532227 -0.22893555 0.66240234 0 0 Z " fill="#DD8A93" transform="translate(110,134)"/>
<path d="M0 0 C1.32 0 2.64 0 4 0 C4 2.64 4 5.28 4 8 C1.69 7.67 -0.62 7.34 -3 7 C-2.34 6.34 -1.68 5.68 -1 5 C-0.35232207 2.42938689 -0.35232207 2.42938689 0 0 Z " fill="#A01713" transform="translate(105,34)"/>
<path d="M0 0 C1.32 0 2.64 0 4 0 C4 2.64 4 5.28 4 8 C0.37 8 -3.26 8 -7 8 C-7 7.67 -7 7.34 -7 7 C-3.535 6.505 -3.535 6.505 0 6 C0 4.02 0 2.04 0 0 Z " fill="#DD98AA" transform="translate(104,61)"/>
<path d="M0 0 C0 2.97 0 5.94 0 9 C-0.33 9 -0.66 9 -1 9 C-1 6.36 -1 3.72 -1 1 C-1.825 1.33 -2.65 1.66 -3.5 2 C-7.65726831 3.18779095 -10.69126185 3.28724921 -15 3 C-15.66 2.34 -16.32 1.68 -17 1 C-11.29014022 0.25983299 -5.75813575 -0.10469338 0 0 Z " fill="#A92C29" transform="translate(110,69)"/>
<path d="M0 0 C1.65 0 3.3 0 5 0 C4.67 2.31 4.34 4.62 4 7 C2.68 7 1.36 7 0 7 C0 4.69 0 2.38 0 0 Z " fill="#A9241B" transform="translate(106,17)"/>
<path d="M0 0 C0.99 0.33 1.98 0.66 3 1 C3 2.98 3 4.96 3 7 C5.97 7 8.94 7 12 7 C12 7.33 12 7.66 12 8 C10.18757948 8.02687279 8.37504767 8.04633715 6.5625 8.0625 C5.55316406 8.07410156 4.54382813 8.08570313 3.50390625 8.09765625 C1 8 1 8 0 7 C-0.04092937 4.66702567 -0.04241723 2.33294775 0 0 Z " fill="#B33938" transform="translate(1,138)"/>
<path d="M0 0 C0.66 0 1.32 0 2 0 C2 2.64 2 5.28 2 8 C-0.64 8 -3.28 8 -6 8 C-5.38125 7.79375 -4.7625 7.5875 -4.125 7.375 C-1.15346355 5.45224112 -0.86975341 3.33405473 0 0 Z " fill="#A21C1A" transform="translate(109,123)"/>
<path d="M0 0 C3.3 0 6.6 0 10 0 C10 1.65 10 3.3 10 5 C9.01 5.495 9.01 5.495 8 6 C7.608125 5.54625 7.21625 5.0925 6.8125 4.625 C4.69167513 2.72357081 2.66957765 1.93795972 0 1 C0 0.67 0 0.34 0 0 Z " fill="#956068" transform="translate(102,0)"/>
<path d="M0 0 C0 2.64 0 5.28 0 8 C-0.66 8 -1.32 8 -2 8 C-2.99 5.69 -3.98 3.38 -5 1 C-3 0 -3 0 0 0 Z " fill="#97130F" transform="translate(110,87)"/>
<path d="M0 0 C2.8203125 -0.29296875 2.8203125 -0.29296875 6.125 -0.1875 C7.76855469 -0.14689453 7.76855469 -0.14689453 9.4453125 -0.10546875 C10.28835937 -0.07066406 11.13140625 -0.03585938 12 0 C8.88089144 1.79275866 6.32317572 2.34290718 2.75 2.625 C1.85796875 2.69976562 0.9659375 2.77453125 0.046875 2.8515625 C-0.62859375 2.90054688 -1.3040625 2.94953125 -2 3 C-1.34 2.01 -0.68 1.02 0 0 Z " fill="#F7C3D1" transform="translate(40,149)"/>
<path d="M0 0 C1.32 0.33 2.64 0.66 4 1 C3.690625 1.680625 3.38125 2.36125 3.0625 3.0625 C1.86629351 6.36965912 1.40994603 9.51545878 1 13 C0.67 13 0.34 13 0 13 C0 8.71 0 4.42 0 0 Z " fill="#8B646F" transform="translate(0,0)"/>
<path d="M0 0 C1.67542976 0.28604898 3.34385343 0.61781233 5 1 C3.68 1.33 2.36 1.66 1 2 C3.475 2.99 3.475 2.99 6 4 C6 4.33 6 4.66 6 5 C3.03 5 0.06 5 -3 5 C-1 1 -1 1 0 0 Z " fill="#D85D58" transform="translate(6,0)"/>
<path d="M0 0 C0.99 0 1.98 0 3 0 C3 2.64 3 5.28 3 8 C2.01 7.67 1.02 7.34 0 7 C0 4.69 0 2.38 0 0 Z " fill="#910E0E" transform="translate(106,52)"/>
<path d="M0 0 C1.65 0 3.3 0 5 0 C5 2.97 5 5.94 5 9 C4.34 9 3.68 9 3 9 C2.8046875 6.94921875 2.609375 4.8984375 2.4140625 2.84765625 C2.27742188 2.23792969 2.14078125 1.62820312 2 1 C1.34 0.67 0.68 0.34 0 0 Z " fill="#C16B7D" transform="translate(105,42)"/>
<path d="M0 0 C2.64 0 5.28 0 8 0 C8 0.33 8 0.66 8 1 C6.35 1 4.7 1 3 1 C3 2.65 3 4.3 3 6 C2.01 6 1.02 6 0 6 C0 4.02 0 2.04 0 0 Z " fill="#F1B6C5" transform="translate(96,149)"/>
<path d="M0 0 C0.70125 0.309375 1.4025 0.61875 2.125 0.9375 C5.08936657 2.03302678 7.87698108 2.56422992 11 3 C11 3.33 11 3.66 11 4 C7.37 4 3.74 4 0 4 C0 2.68 0 1.36 0 0 Z " fill="#BFB3B8" transform="translate(0,154)"/>
<path d="M0 0 C0.66 0 1.32 0 2 0 C2 2.64 2 5.28 2 8 C1.01 8 0.02 8 -1 8 C-1.125 2.25 -1.125 2.25 0 0 Z " fill="#97130E" transform="translate(108,105)"/>
<path d="M0 0 C0.99 0.33 1.98 0.66 3 1 C2.67 3.64 2.34 6.28 2 9 C1.34 9 0.68 9 0 9 C0 6.03 0 3.06 0 0 Z " fill="#BC5053" transform="translate(0,101)"/>
<path d="M0 0 C0.33 0 0.66 0 1 0 C1 2.31 1 4.62 1 7 C-0.32 7 -1.64 7 -3 7 C-1.125 1.125 -1.125 1.125 0 0 Z " fill="#C83827" transform="translate(105,17)"/>
<path d="M0 0 C3.96 0 7.92 0 12 0 C12 0.33 12 0.66 12 1 C9.36 1 6.72 1 4 1 C4 1.66 4 2.32 4 3 C2.68 2.34 1.36 1.68 0 1 C0 0.67 0 0.34 0 0 Z " fill="#C33931" transform="translate(23,0)"/>
</svg>
